<?xml version="1.0" encoding="utf-8" standalone="yes"?>
<!DOCTYPE svg PUBLIC "-//W3C//DTD SVG 1.1//EN" "http://www.w3.org/Graphics/SVG/1.1/DTD/svg11.dtd">
<svg width="778" height="662" viewBox="0 0 778 662"
     style="fill:none;stroke:none;fill-rule:evenodd;clip-rule:evenodd;stroke-linecap:round;stroke-linejoin:round;stroke-miterlimit:1.5;"
     version="1.1" xmlns="http://www.w3.org/2000/svg" xmlns:xlink="http://www.w3.org/1999/xlink">
    <style class="text-font-style fontImports" data-font-family="Roboto">@import
        url('https://fonts.googleapis.com/css2?family=Roboto:wght@400;700&amp;display=block');
    </style>
    <g id="items" style="isolation: isolate">
        <g id="blend" style="mix-blend-mode: normal">
            <g id="g-root--1.line_fr_mfg47pb5uoei-fill" data-item-order="-410551" transform="translate(146.5, 267)"></g>
            <g id="g-root--1.line_1_fr_hzmm39b5up6s-fill" data-item-order="-410547"
               transform="translate(350.5, 267)"></g>
            <g id="g-root--1.line_2_fr_hzmm39b5up6u-fill" data-item-order="-410543"
               transform="translate(554.5, 267)"></g>
            <g id="g-root-1.g-1_1_fr_hzmm39b5up6w-fill" data-item-order="-410540"
               transform="translate(85.00003051757812, 315)">
                <g id="1.g-1_1_fr_hzmm39b5up6w-fill" stroke="none" fill="#3e4e69">
                    <g>
                        <path d="M 149.501969 13.1012C 145.370969 8.9678 138.668969 8.966 134.535969 13.0974C 130.403969 17.2272 130.403969 23.923 134.535969 28.0529L 153.913969 47.4222L 99.582669 47.4222C 93.737969 47.4222 88.999969 52.1581 88.999969 58.0001C 88.999969 63.842 93.737969 68.5779 99.582669 68.5779L 153.913969 68.5779L 134.535969 87.9471C 130.403969 92.077 130.403969 98.7728 134.535969 102.9026C 138.668969 107.034 145.370969 107.0322 149.501969 102.8988L 186.903969 65.4758C 191.031969 61.3458 191.031969 54.6542 186.903969 50.5242L 149.501969 13.1012ZM 42.906869 51.2384L 49.668869 58.0003L 42.906869 64.7623C 41.974369 65.6948 41.974369 67.2067 42.906869 68.1392C 43.839669 69.072 45.352269 69.0716 46.284669 68.1383L 54.725969 59.6884C 55.657569 58.7558 55.657569 57.2449 54.725969 56.3123L 46.284669 47.8623C 45.352269 46.929 43.839669 46.9286 42.906869 47.8615C 41.974369 48.794 41.974369 50.3059 42.906869 51.2384ZM 26.803069 51.2384L 33.565069 58.0003L 26.803069 64.7623C 25.870569 65.6948 25.870569 67.2067 26.803069 68.1392C 27.735969 69.072 29.248469 69.0716 30.180869 68.1383L 38.622269 59.6884C 39.553869 58.7558 39.553869 57.2449 38.622269 56.3123L 30.180869 47.8623C 29.248469 46.929 27.735969 46.9286 26.803069 47.8615C 25.870569 48.794 25.870569 50.3059 26.803069 51.2384ZM 10.699369 51.2381L 17.461269 58.0001L 10.699369 64.7621C 9.766869 65.6946 9.766869 67.2064 10.699369 68.1389C 11.632169 69.0718 13.144769 69.0714 14.077069 68.1381L 22.518469 59.6881C 23.450069 58.7556 23.450069 57.2446 22.518469 56.3121L 14.077069 47.8621C 13.144769 46.9288 11.632169 46.9284 10.699369 47.8612C 9.766869 48.7937 9.766869 50.3056 10.699369 51.2381ZM 71.949869 68.5775C 66.107869 68.5775 61.372069 63.8417 61.372069 57.9997C 61.372069 52.1577 66.107869 47.4219 71.949869 47.4219C 77.791869 47.4219 82.527669 52.1577 82.527669 57.9997C 82.527669 63.8417 77.791869 68.5775 71.949869 68.5775Z"></path>
                    </g>
                </g>
            </g>
            <g id="g-root-2.g-2_fr_dkfl1xb5umte-fill" data-item-order="-410536"
               transform="translate(289.0000305175781, 315)">
                <g id="2.g-2_fr_dkfl1xb5umte-fill" stroke="none" fill="#3b5649">
                    <g>
                        <path d="M 149.501969 13.1012C 145.370969 8.9678 138.668969 8.966 134.535969 13.0974C 130.403969 17.2272 130.403969 23.923 134.535969 28.0529L 153.913969 47.4222L 99.582669 47.4222C 93.737969 47.4222 88.999969 52.1581 88.999969 58.0001C 88.999969 63.842 93.737969 68.5779 99.582669 68.5779L 153.913969 68.5779L 134.535969 87.9471C 130.403969 92.077 130.403969 98.7728 134.535969 102.9026C 138.668969 107.034 145.370969 107.0322 149.501969 102.8988L 186.903969 65.4758C 191.031969 61.3458 191.031969 54.6542 186.903969 50.5242L 149.501969 13.1012ZM 42.906869 51.2384L 49.668869 58.0003L 42.906869 64.7623C 41.974369 65.6948 41.974369 67.2067 42.906869 68.1392C 43.839669 69.072 45.352269 69.0716 46.284669 68.1383L 54.725969 59.6884C 55.657569 58.7558 55.657569 57.2449 54.725969 56.3123L 46.284669 47.8623C 45.352269 46.929 43.839669 46.9286 42.906869 47.8615C 41.974369 48.794 41.974369 50.3059 42.906869 51.2384ZM 26.803069 51.2384L 33.565069 58.0003L 26.803069 64.7623C 25.870569 65.6948 25.870569 67.2067 26.803069 68.1392C 27.735969 69.072 29.248469 69.0716 30.180869 68.1383L 38.622269 59.6884C 39.553869 58.7558 39.553869 57.2449 38.622269 56.3123L 30.180869 47.8623C 29.248469 46.929 27.735969 46.9286 26.803069 47.8615C 25.870569 48.794 25.870569 50.3059 26.803069 51.2384ZM 10.699369 51.2381L 17.461269 58.0001L 10.699369 64.7621C 9.766869 65.6946 9.766869 67.2064 10.699369 68.1389C 11.632169 69.0718 13.144769 69.0714 14.077069 68.1381L 22.518469 59.6881C 23.450069 58.7556 23.450069 57.2446 22.518469 56.3121L 14.077069 47.8621C 13.144769 46.9288 11.632169 46.9284 10.699369 47.8612C 9.766869 48.7937 9.766869 50.3056 10.699369 51.2381ZM 71.949869 68.5775C 66.107869 68.5775 61.372069 63.8417 61.372069 57.9997C 61.372069 52.1577 66.107869 47.4219 71.949869 47.4219C 77.791869 47.4219 82.527669 52.1577 82.527669 57.9997C 82.527669 63.8417 77.791869 68.5775 71.949869 68.5775Z"></path>
                    </g>
                </g>
            </g>
            <g id="g-root-3.g-3_1_fr_dkfl1xb5umtg-fill" data-item-order="-410532" transform="translate(493, 315)">
                <g id="3.g-3_1_fr_dkfl1xb5umtg-fill" stroke="none" fill="#4b533a">
                    <g>
                        <path d="M 149.502 13.1012C 145.371 8.9678 138.669 8.966 134.536 13.0974C 130.404 17.2272 130.404 23.923 134.536 28.0529L 153.914 47.4222L 99.5827 47.4222C 93.738 47.4222 89 52.1581 89 58.0001C 89 63.842 93.738 68.5779 99.5827 68.5779L 153.914 68.5779L 134.536 87.9471C 130.404 92.077 130.404 98.7728 134.536 102.9026C 138.669 107.034 145.371 107.0322 149.502 102.8988L 186.904 65.4758C 191.032 61.3458 191.032 54.6542 186.904 50.5242L 149.502 13.1012ZM 42.9069 51.2384L 49.6689 58.0003L 42.9069 64.7623C 41.9744 65.6948 41.9744 67.2067 42.9069 68.1392C 43.8397 69.072 45.3523 69.0716 46.2847 68.1383L 54.726 59.6884C 55.6576 58.7558 55.6576 57.2449 54.726 56.3123L 46.2847 47.8623C 45.3523 46.929 43.8397 46.9286 42.9069 47.8615C 41.9744 48.794 41.9744 50.3059 42.9069 51.2384ZM 26.8031 51.2384L 33.5651 58.0003L 26.8031 64.7623C 25.8706 65.6948 25.8706 67.2067 26.8031 68.1392C 27.736 69.072 29.2485 69.0716 30.1809 68.1383L 38.6223 59.6884C 39.5539 58.7558 39.5539 57.2449 38.6223 56.3123L 30.1809 47.8623C 29.2485 46.929 27.736 46.9286 26.8031 47.8615C 25.8706 48.794 25.8706 50.3059 26.8031 51.2384ZM 10.6994 51.2381L 17.4613 58.0001L 10.6994 64.7621C 9.7669 65.6946 9.7669 67.2064 10.6994 68.1389C 11.6322 69.0718 13.1448 69.0714 14.0771 68.1381L 22.5185 59.6881C 23.4501 58.7556 23.4501 57.2446 22.5185 56.3121L 14.0771 47.8621C 13.1448 46.9288 11.6322 46.9284 10.6994 47.8612C 9.7669 48.7937 9.7669 50.3056 10.6994 51.2381ZM 71.9499 68.5775C 66.1079 68.5775 61.3721 63.8417 61.3721 57.9997C 61.3721 52.1577 66.1079 47.4219 71.9499 47.4219C 77.7919 47.4219 82.5277 52.1577 82.5277 57.9997C 82.5277 63.8417 77.7919 68.5775 71.9499 68.5775Z"></path>
                    </g>
                </g>
            </g>
            <g id="g-root-tx_dataacce_4oskt1b5unm6-fill" data-item-order="0" transform="translate(277, 39)">
                <g id="tx_dataacce_4oskt1b5unm6-fill" stroke="none" fill="#f4f4f4">
                    <g>
                        <text style="font: 20px Roboto, sans-serif; white-space: pre;" font-size="20px"
                              font-family="Roboto, sans-serif">
                            <tspan x="11.93" y="34" dominant-baseline="ideographic">Data Access Workflow</tspan>
                        </text>
                    </g>
                </g>
            </g>
            <g id="g-root-tx_decrypte_1d3m34lb5unf3-fill" data-item-order="0" transform="translate(75, 123)">
                <g id="tx_decrypte_1d3m34lb5unf3-fill" stroke="none" fill="#4f91fc">
                    <g>
                        <text style="font: bold 20px Roboto, sans-serif; white-space: pre;" font-weight="bold"
                              font-size="20px" font-family="Roboto, sans-serif">
                            <tspan x="47.09" y="34" dominant-baseline="ideographic">Decrypt</tspan>
                            <tspan x="14.27" y="58" dominant-baseline="ideographic">Exchange Keys</tspan>
                        </text>
                    </g>
                </g>
            </g>
            <g id="g-root-tx_decrypte_hxr6txb5w4ci-fill" data-item-order="0" transform="translate(495, 135)">
                <g id="tx_decrypte_hxr6txb5w4ci-fill" stroke="none" fill="#a6da37">
                    <g>
                        <text style="font: bold 20px Roboto, sans-serif; white-space: pre;" font-weight="bold"
                              font-size="20px" font-family="Roboto, sans-serif">
                            <tspan x="35.1" y="34" dominant-baseline="ideographic">Decrypt</tspan>
                            <tspan x="13.09" y="58" dominant-baseline="ideographic">Entities Data</tspan>
                        </text>
                    </g>
                </g>
            </g>
            <g id="g-root-tx_userempl_147z2vpb5uozk-fill" data-item-order="0" transform="translate(81, 183)">
                <g id="tx_userempl_147z2vpb5uozk-fill" stroke="none" fill="#f4f4f4">
                    <g>
                        <text style="font: 15px Roboto, sans-serif; white-space: pre;" font-size="15px"
                              font-family="Roboto, sans-serif">
                            <tspan x="28.77" y="28" dominant-baseline="ideographic">User employs</tspan>
                            <tspan x="23.62" y="46" dominant-baseline="ideographic">personal key to</tspan>
                            <tspan x="15.23" y="64" dominant-baseline="ideographic">decrypt exchange</tspan>
                            <tspan x="59.05" y="82" dominant-baseline="ideographic">keys</tspan>
                        </text>
                    </g>
                </g>
            </g>
            <g id="g-root-key_vcc2mtb5ups9-fill" data-item-order="0" transform="translate(321, 195)"></g>
            <g id="g-root-tx_entityen_92qno5b5w1zf-fill" data-item-order="0" transform="translate(483, 195)">
                <g id="tx_entityen_92qno5b5w1zf-fill" stroke="none" fill="#f4f4f4">
                    <g>
                        <text style="font: 15px Roboto, sans-serif; white-space: pre;" font-size="15px"
                              font-family="Roboto, sans-serif">
                            <tspan x="12.13" y="31" dominant-baseline="ideographic">Entity encryption key</tspan>
                            <tspan x="21.76" y="49" dominant-baseline="ideographic">is used to decrypt</tspan>
                            <tspan x="55.49" y="67" dominant-baseline="ideographic">content</tspan>
                        </text>
                    </g>
                </g>
            </g>
            <g id="g-root-key_4mx5jpb5w2ro-fill" data-item-order="0" transform="translate(117, 471)"></g>
            <g id="g-root-tx_accesssh_1cuvfx1b5xhjh-fill" data-item-order="0" transform="translate(279, 471)">
                <g id="tx_accesssh_1cuvfx1b5xhjh-fill" stroke="none" fill="#43dd93">
                    <g>
                        <text style="font: bold 20px Roboto, sans-serif; white-space: pre;" font-weight="bold"
                              font-size="20px" font-family="Roboto, sans-serif">
                            <tspan x="42.49" y="34" dominant-baseline="ideographic">Decrypt</tspan>
                            <tspan x="9.91" y="58" dominant-baseline="ideographic">Encryption Key</tspan>
                        </text>
                    </g>
                </g>
            </g>
            <g id="g-root-lock_zk1emtb5xfyn-fill" data-item-order="0" transform="translate(525, 471)"></g>
            <g id="g-root-tx_decrypte_18f1xslb5xibq-fill" data-item-order="0" transform="translate(279, 531)">
                <g id="tx_decrypte_18f1xslb5xibq-fill" stroke="none" fill="#f4f4f4">
                    <g>
                        <text style="font: 15px Roboto, sans-serif; white-space: pre;" font-size="15px"
                              font-family="Roboto, sans-serif">
                            <tspan x="13.24" y="31" dominant-baseline="ideographic">Decrypted exchange</tspan>
                            <tspan x="12.45" y="49" dominant-baseline="ideographic">keys allow access to</tspan>
                            <tspan x="45.71" y="67" dominant-baseline="ideographic">entity keys</tspan>
                        </text>
                    </g>
                </g>
            </g>
            <g id="g-root--1.line_fr_mfg47pb5uoei-stroke" data-item-order="-410551" transform="translate(146.5, 267)">
                <g id="-1.line_fr_mfg47pb5uoei-stroke" fill="none" stroke-linecap="round" stroke-linejoin="round"
                   stroke-miterlimit="4" stroke="#b7b7b7" stroke-width="2" stroke-dasharray="5.0, 7.0">
                    <g>
                        <path d="M 10 202L 10 10"></path>
                    </g>
                </g>
            </g>
            <g id="g-root--1.line_1_fr_hzmm39b5up6s-stroke" data-item-order="-410547" transform="translate(350.5, 267)">
                <g id="-1.line_1_fr_hzmm39b5up6s-stroke" fill="none" stroke-linecap="round" stroke-linejoin="round"
                   stroke-miterlimit="4" stroke="#b7b7b7" stroke-width="2" stroke-dasharray="5.0, 7.0">
                    <g>
                        <path d="M 10 202L 10 10"></path>
                    </g>
                </g>
            </g>
            <g id="g-root--1.line_2_fr_hzmm39b5up6u-stroke" data-item-order="-410543" transform="translate(554.5, 267)">
                <g id="-1.line_2_fr_hzmm39b5up6u-stroke" fill="none" stroke-linecap="round" stroke-linejoin="round"
                   stroke-miterlimit="4" stroke="#b7b7b7" stroke-width="2" stroke-dasharray="5.0, 7.0">
                    <g>
                        <path d="M 9.999992 202L 9.999992 10"></path>
                    </g>
                </g>
            </g>
            <g id="g-root-1.g-1_1_fr_hzmm39b5up6w-stroke" data-item-order="-410540"
               transform="translate(85.00003051757812, 315)">
                <g id="1.g-1_1_fr_hzmm39b5up6w-stroke" fill="none" stroke-linecap="round" stroke-linejoin="round"
                   stroke-miterlimit="4" stroke="#4f91fc" stroke-width="2">
                    <g>
                        <path d="M 149.501869 13.1012C 145.370769 8.9678 138.668969 8.9661 134.535669 13.0974C 130.403969 17.2272 130.403969 23.923 134.535669 28.0529L 153.913969 47.4222L 99.582669 47.4222C 93.737969 47.4222 88.999969 52.1581 88.999969 58.0001C 88.999969 63.842 93.737969 68.5779 99.582669 68.5779L 153.913869 68.5779L 134.535669 87.9471C 130.403969 92.077 130.403969 98.7728 134.535669 102.9026C 138.668969 107.0339 145.370769 107.0322 149.501969 102.8988L 186.904169 65.4758C 191.031869 61.3458 191.031869 54.6542 186.904169 50.5242L 149.501869 13.1012ZM 42.906869 51.2384L 49.668869 58.0003L 42.906869 64.7623C 41.974369 65.6948 41.974369 67.2067 42.906869 68.1392C 43.839669 69.072 45.352269 69.0716 46.284669 68.1383L 54.725969 59.6884C 55.657569 58.7558 55.657569 57.2449 54.725969 56.3123L 46.284669 47.8623C 45.352269 46.929 43.839669 46.9286 42.906869 47.8615C 41.974369 48.794 41.974369 50.3059 42.906869 51.2384ZM 26.803069 51.2384L 33.565069 58.0003L 26.803069 64.7623C 25.870569 65.6948 25.870569 67.2067 26.803069 68.1392C 27.735969 69.072 29.248469 69.0716 30.180869 68.1383L 38.622269 59.6884C 39.553869 58.7558 39.553869 57.2449 38.622269 56.3123L 30.180869 47.8623C 29.248469 46.929 27.735969 46.9286 26.803069 47.8615C 25.870569 48.794 25.870569 50.3059 26.803069 51.2384ZM 10.699369 51.2381L 17.461269 58.0001L 10.699369 64.7621C 9.766869 65.6946 9.766869 67.2064 10.699369 68.1389C 11.632169 69.0718 13.144769 69.0714 14.077069 68.1381L 22.518469 59.6881C 23.450069 58.7556 23.450069 57.2446 22.518469 56.3121L 14.077069 47.8621C 13.144769 46.9288 11.632169 46.9284 10.699369 47.8612C 9.766869 48.7937 9.766869 50.3056 10.699369 51.2381ZM 71.949869 68.5775C 66.107869 68.5775 61.372069 63.8417 61.372069 57.9997C 61.372069 52.1577 66.107869 47.4219 71.949869 47.4219C 77.791869 47.4219 82.527669 52.1577 82.527669 57.9997C 82.527669 63.8417 77.791869 68.5775 71.949869 68.5775Z"></path>
                    </g>
                </g>
            </g>
            <g id="g-root-2.g-2_fr_dkfl1xb5umte-stroke" data-item-order="-410536"
               transform="translate(289.0000305175781, 315)">
                <g id="2.g-2_fr_dkfl1xb5umte-stroke" fill="none" stroke-linecap="round" stroke-linejoin="round"
                   stroke-miterlimit="4" stroke="#43dd93" stroke-width="2">
                    <g>
                        <path d="M 149.501869 13.1012C 145.370769 8.9678 138.668969 8.9661 134.535669 13.0974C 130.403969 17.2272 130.403969 23.923 134.535669 28.0529L 153.913969 47.4222L 99.582669 47.4222C 93.737969 47.4222 88.999969 52.1581 88.999969 58.0001C 88.999969 63.842 93.737969 68.5779 99.582669 68.5779L 153.913869 68.5779L 134.535669 87.9471C 130.403969 92.077 130.403969 98.7728 134.535669 102.9026C 138.668969 107.0339 145.370769 107.0322 149.501969 102.8988L 186.904169 65.4758C 191.031869 61.3458 191.031869 54.6542 186.904169 50.5242L 149.501869 13.1012ZM 42.906869 51.2384L 49.668869 58.0003L 42.906869 64.7623C 41.974369 65.6948 41.974369 67.2067 42.906869 68.1392C 43.839669 69.072 45.352269 69.0716 46.284669 68.1383L 54.725969 59.6884C 55.657569 58.7558 55.657569 57.2449 54.725969 56.3123L 46.284669 47.8623C 45.352269 46.929 43.839669 46.9286 42.906869 47.8615C 41.974369 48.794 41.974369 50.3059 42.906869 51.2384ZM 26.803069 51.2384L 33.565069 58.0003L 26.803069 64.7623C 25.870569 65.6948 25.870569 67.2067 26.803069 68.1392C 27.735969 69.072 29.248469 69.0716 30.180869 68.1383L 38.622269 59.6884C 39.553869 58.7558 39.553869 57.2449 38.622269 56.3123L 30.180869 47.8623C 29.248469 46.929 27.735969 46.9286 26.803069 47.8615C 25.870569 48.794 25.870569 50.3059 26.803069 51.2384ZM 10.699369 51.2381L 17.461269 58.0001L 10.699369 64.7621C 9.766869 65.6946 9.766869 67.2064 10.699369 68.1389C 11.632169 69.0718 13.144769 69.0714 14.077069 68.1381L 22.518469 59.6881C 23.450069 58.7556 23.450069 57.2446 22.518469 56.3121L 14.077069 47.8621C 13.144769 46.9288 11.632169 46.9284 10.699369 47.8612C 9.766869 48.7937 9.766869 50.3056 10.699369 51.2381ZM 71.949869 68.5775C 66.107869 68.5775 61.372069 63.8417 61.372069 57.9997C 61.372069 52.1577 66.107869 47.4219 71.949869 47.4219C 77.791869 47.4219 82.527669 52.1577 82.527669 57.9997C 82.527669 63.8417 77.791869 68.5775 71.949869 68.5775Z"></path>
                    </g>
                </g>
            </g>
            <g id="g-root-3.g-3_1_fr_dkfl1xb5umtg-stroke" data-item-order="-410532" transform="translate(493, 315)">
                <g id="3.g-3_1_fr_dkfl1xb5umtg-stroke" fill="none" stroke-linecap="round" stroke-linejoin="round"
                   stroke-miterlimit="4" stroke="#a6da37" stroke-width="2">
                    <g>
                        <path d="M 149.5019 13.1012C 145.3708 8.9678 138.669 8.9661 134.5357 13.0974C 130.404 17.2272 130.404 23.923 134.5357 28.0529L 153.914 47.4222L 99.5827 47.4222C 93.738 47.4222 89 52.1581 89 58.0001C 89 63.842 93.738 68.5779 99.5827 68.5779L 153.9139 68.5779L 134.5357 87.9471C 130.404 92.077 130.404 98.7728 134.5357 102.9026C 138.669 107.0339 145.3708 107.0322 149.502 102.8988L 186.9042 65.4758C 191.0319 61.3458 191.0319 54.6542 186.9042 50.5242L 149.5019 13.1012ZM 42.9069 51.2384L 49.6689 58.0003L 42.9069 64.7623C 41.9744 65.6948 41.9744 67.2067 42.9069 68.1392C 43.8397 69.072 45.3523 69.0716 46.2847 68.1383L 54.726 59.6884C 55.6576 58.7558 55.6576 57.2449 54.726 56.3123L 46.2847 47.8623C 45.3523 46.929 43.8397 46.9286 42.9069 47.8615C 41.9744 48.794 41.9744 50.3059 42.9069 51.2384ZM 26.8031 51.2384L 33.5651 58.0003L 26.8031 64.7623C 25.8706 65.6948 25.8706 67.2067 26.8031 68.1392C 27.736 69.072 29.2485 69.0716 30.1809 68.1383L 38.6223 59.6884C 39.5539 58.7558 39.5539 57.2449 38.6223 56.3123L 30.1809 47.8623C 29.2485 46.929 27.736 46.9286 26.8031 47.8615C 25.8706 48.794 25.8706 50.3059 26.8031 51.2384ZM 10.6994 51.2381L 17.4613 58.0001L 10.6994 64.7621C 9.7669 65.6946 9.7669 67.2064 10.6994 68.1389C 11.6322 69.0718 13.1448 69.0714 14.0771 68.1381L 22.5185 59.6881C 23.4501 58.7556 23.4501 57.2446 22.5185 56.3121L 14.0771 47.8621C 13.1448 46.9288 11.6322 46.9284 10.6994 47.8612C 9.7669 48.7937 9.7669 50.3056 10.6994 51.2381ZM 71.9499 68.5775C 66.1079 68.5775 61.3721 63.8417 61.3721 57.9997C 61.3721 52.1577 66.1079 47.4219 71.9499 47.4219C 77.7919 47.4219 82.5277 52.1577 82.5277 57.9997C 82.5277 63.8417 77.7919 68.5775 71.9499 68.5775Z"></path>
                    </g>
                </g>
            </g>
            <g id="g-root-tx_dataacce_4oskt1b5unm6-stroke" data-item-order="0" transform="translate(277, 39)"></g>
            <g id="g-root-tx_decrypte_1d3m34lb5unf3-stroke" data-item-order="0" transform="translate(75, 123)"></g>
            <g id="g-root-tx_decrypte_hxr6txb5w4ci-stroke" data-item-order="0" transform="translate(495, 135)"></g>
            <g id="g-root-tx_userempl_147z2vpb5uozk-stroke" data-item-order="0" transform="translate(81, 183)"></g>
            <g id="g-root-key_vcc2mtb5ups9-stroke" data-item-order="0" transform="translate(321, 195)">
                <g id="key_vcc2mtb5ups9-stroke" fill="none" stroke-linecap="round" stroke-linejoin="round"
                   stroke-miterlimit="4" stroke="#43dd93" stroke-width="2">
                    <g>
                        <path d="M 35.634998 55.610001L 16.549999 55.610001C 13.62289 55.610001 11.25 53.237106 11.25 50.309998L 11.25 17.184999C 11.25 14.257486 13.622486 11.883881 16.550001 11.8825L 56.300003 11.8825C 59.227516 11.883881 61.600002 14.257486 61.600002 17.184999L 61.599998 35.885002M 11.25 22.2325L 61.602501 22.2325M 11.25 44.227501L 51.487499 44.227501M 11.25 33.247498L 61.602501 33.247498M 31.814999 22.2325L 31.814999 55.610001M 46.559998 22.2325L 46.559998 45.494999M 51.75 55.352501C 50.410202 55.297394 49.171402 56.062149 48.620277 57.284592C 48.069157 58.507034 48.316357 59.941734 49.244812 60.909241C 50.173264 61.876751 51.596569 62.182823 52.840672 61.682507C 54.08477 61.18219 54.899887 59.975933 54.900002 58.635002C 54.936272 56.858833 53.52615 55.3894 51.749996 55.352497L 51.75 55.352501M 68.5 46.567501L 60.235001 55.177498L 60.235001 55.177498C 61.817543 59.324299 60.381966 64.01619 56.75 66.567505C 53.161983 69.028999 48.315296 68.507927 45.3325 65.339996C 42.278652 62.10627 41.793655 57.218288 44.1525 53.447498C 46.417435 49.723858 51.044708 48.186722 55.087502 49.814999L 63.352501 41.205002L 68.75 41.205002ZM 63.315002 48.02L 65.2425 49.949997"></path>
                    </g>
                </g>
            </g>
            <g id="g-root-tx_entityen_92qno5b5w1zf-stroke" data-item-order="0" transform="translate(483, 195)"></g>
            <g id="g-root-key_4mx5jpb5w2ro-stroke" data-item-order="0" transform="translate(117, 471)">
                <g id="key_4mx5jpb5w2ro-stroke" fill="none" stroke-linecap="round" stroke-linejoin="round"
                   stroke-miterlimit="4" stroke="#4f91fc" stroke-width="2">
                    <g>
                        <path d="M 51.012501 60.577503C 49.792027 61.797653 47.813538 61.797482 46.593277 60.57711C 45.373016 59.356747 45.373016 57.378254 46.593277 56.15789C 47.813538 54.937523 49.792027 54.937347 51.012501 56.157497C 52.231899 57.378525 52.231899 59.356476 51.012501 60.577503ZM 10 10M 57.620003 54.855L 68.3825 44.1175C 68.617699 43.883034 68.749931 43.564606 68.75 43.232502L 68.75 40C 68.75 39.309647 68.190353 38.75 67.5 38.75L 64.25 38.75C 63.930069 38.749901 63.622276 38.872482 63.390003 39.092499L 52.317501 49.552502C 47.910397 47.685406 42.798222 49.202923 40.123604 53.172188C 37.44899 57.141449 37.961964 62.449371 41.347179 65.832993C 44.732395 69.216614 50.040565 69.727089 54.00856 67.050598C 57.976563 64.374115 59.491673 59.261223 57.622498 54.855ZM 18.125 21.875C 18.125 27.743027 22.881975 32.5 28.75 32.5C 34.618027 32.5 39.375 27.743027 39.375 21.875C 39.375 16.006975 34.618027 11.25 28.75 11.25C 22.881975 11.25 18.125 16.006975 18.125 21.875ZM 31.25 53.75L 11.25 53.75C 11.249877 46.3932 15.850917 39.821819 22.763943 37.305344C 29.67697 34.788872 37.425751 36.864689 42.155003 42.500004"></path>
                    </g>
                </g>
            </g>
            <g id="g-root-tx_accesssh_1cuvfx1b5xhjh-stroke" data-item-order="0" transform="translate(279, 471)"></g>
            <g id="g-root-lock_zk1emtb5xfyn-stroke" data-item-order="0" transform="translate(525, 471)">
                <g id="lock_zk1emtb5xfyn-stroke" fill="none" stroke-linecap="round" stroke-linejoin="round"
                   stroke-miterlimit="4" stroke="#a6da37" stroke-width="2">
                    <g>
                        <path d="M 21.25 38.75L 45 38.75M 21.25 23.75L 38.75 23.75M 21.25 46.25L 37.5 46.25M 21.25 53.75L 37.5 53.75M 21.25 31.25L 45 31.25M 38.75 68.75L 13.75 68.75C 12.369288 68.75 11.25 67.630707 11.25 66.25L 11.25 13.75C 11.25 12.369288 12.369288 11.25 13.75 11.25L 46.982502 11.25C 47.645489 11.250141 48.281269 11.513626 48.75 11.9825L 58.017502 21.25C 58.486374 21.718733 58.749855 22.354513 58.75 23.0175L 58.75 31.25M 48.75 48.75L 66.25 48.75C 66.25 48.75 68.75 48.75 68.75 51.25L 68.75 66.247498C 68.75 66.247498 68.75 68.747498 66.25 68.747498L 48.75 68.747498C 48.75 68.747498 46.25 68.747498 46.25 66.247498L 46.25 51.25C 46.25 51.25 46.25 48.75 48.75 48.75M 54.375 58.907501C 54.375 60.633392 55.774113 62.032501 57.5 62.032501C 59.225887 62.032501 60.625 60.633392 60.625 58.907501C 60.625 57.18161 59.225887 55.782501 57.5 55.782501C 55.774113 55.782501 54.375 57.18161 54.375 58.907501M 63.75 45C 63.75 41.548222 60.951782 38.75 57.5 38.75C 54.048218 38.75 51.25 41.548222 51.25 45L 51.25 48.75L 63.75 48.75Z"></path>
                    </g>
                </g>
            </g>
            <g id="g-root-tx_decrypte_18f1xslb5xibq-stroke" data-item-order="0" transform="translate(279, 531)"></g>
        </g>
    </g>
</svg>
