<?xml version="1.0" encoding="utf-8" standalone="yes"?>
<!DOCTYPE svg PUBLIC "-//W3C//DTD SVG 1.1//EN" "http://www.w3.org/Graphics/SVG/1.1/DTD/svg11.dtd">
<svg width="842" height="626" viewBox="0 0 842 626" style="fill:none;stroke:none;fill-rule:evenodd;clip-rule:evenodd;stroke-linecap:round;stroke-linejoin:round;stroke-miterlimit:1.5;" version="1.1" xmlns="http://www.w3.org/2000/svg" xmlns:xlink="http://www.w3.org/1999/xlink"><style class="text-font-style fontImports" data-font-family="Roboto">@import url('https://fonts.googleapis.com/css2?family=Roboto:wght@400;700&amp;display=block');</style><g id="items" style="isolation: isolate"><g id="blend" style="mix-blend-mode: normal"><g id="g-root-3.box-3_fr_mbq251980cul-fill" data-item-order="-418166" transform="translate(543, 144)"><g id="3.box-3_fr_mbq251980cul-fill" stroke="none" fill="url(#gradient-87aa3f-469929121)"><g><path d="M 10 55C 10 30.1472 30.1472 10 55 10L 175 10C 199.853 10 220 30.1472 220 55L 220 176.134C 235.527 180.131 247 194.225 247 211C 247 230.882 230.882 247 211 247C 191.118 247 175 230.882 175 211C 175 194.225 186.473 180.131 202 176.134L 202 55C 202 40.0883 189.912 28 175 28L 55 28C 40.0883 28 28 40.0883 28 55L 28 331L 10 331L 10 313.299L 19 307L 10 300.704L 10 55ZM 202 298L 235 298L 235 286L 265 307L 235 328L 235 316L 220 316L 220 331L 202 331L 202 298ZM 220 331L 220 337L 202 337L 202 331L 220 331ZM 28 331L 28 337L 10 337L 10 331L 28 331ZM 28 337C 28 351.9117 40.0883 364 55 364L 175 364C 189.912 364 202 351.9117 202 337L 220 337C 220 361.8528 199.853 382 175 382L 55 382C 30.1472 382 10 361.8528 10 337L 28 337Z"></path></g></g></g><g id="g-root-0.g-0_fr_hwj13p980ah3-fill" data-item-order="-418147" transform="translate(588, 344.8590087890625)"></g><g id="g-root-2.box-2_fr_hwj13p980ah5-fill" data-item-order="-418136" transform="translate(297, 144)"><g id="2.box-2_fr_hwj13p980ah5-fill" stroke="none" fill="url(#gradient-40ae79-389135447)"><g><path d="M 10 55C 10 30.1472 30.1472 10 55 10L 175 10C 199.853 10 220 30.1472 220 55L 220 176.134C 235.527 180.131 247 194.225 247 211C 247 230.882 230.882 247 211 247C 191.118 247 175 230.882 175 211C 175 194.225 186.473 180.131 202 176.134L 202 55C 202 40.0883 189.912 28 175 28L 55 28C 40.0883 28 28 40.0883 28 55L 28 331L 10 331L 10 313.299L 19 307L 10 300.704L 10 55ZM 202 298L 235 298L 235 286L 265 307L 235 328L 235 316L 220 316L 220 331L 202 331L 202 298ZM 220 331L 220 337L 202 337L 202 331L 220 331ZM 28 331L 28 337L 10 337L 10 331L 28 331ZM 28 337C 28 351.9117 40.0883 364 55 364L 175 364C 189.912 364 202 351.9117 202 337L 220 337C 220 361.8528 199.853 382 175 382L 55 382C 30.1472 382 10 361.8528 10 337L 28 337Z"></path></g></g></g><g id="g-root-0.g-0_1_fr_dgpiz9980b9f-fill" data-item-order="-418117" transform="translate(342, 344.859375)"></g><g id="g-root-1.box-1_fr_dgpiz9980b9h-fill" data-item-order="-418106" transform="translate(51, 144)"><defs><linearGradient id="gradient-87aa3f-469929121" x2="0" y2="1"><stop offset="0" stop-color="#91bb39"></stop><stop offset="1" stop-color="#7d9844"></stop></linearGradient><linearGradient id="gradient-40ae79-389135447" x2="0" y2="1"><stop offset="0" stop-color="#3bc482"></stop><stop offset="1" stop-color="#449870"></stop></linearGradient><linearGradient id="gradient-4f83d8-135982273" x2="0" y2="1"><stop offset="0" stop-color="#4e88e6"></stop><stop offset="1" stop-color="#4f7eca"></stop></linearGradient></defs><g id="1.box-1_fr_dgpiz9980b9h-fill" stroke="none" fill="url(#gradient-4f83d8-135982273)"><g><path d="M 10 55C 10 30.1472 30.1472 10 55 10L 175 10C 199.853 10 220 30.1472 220 55L 220 176.134C 235.527 180.131 247 194.225 247 211C 247 230.882 230.882 247 211 247C 191.118 247 175 230.882 175 211C 175 194.225 186.473 180.131 202 176.134L 202 55C 202 40.0883 189.912 28 175 28L 55 28C 40.0883 28 28 40.0883 28 55L 28 331L 10 331L 10 55ZM 202 298L 235 298L 235 286L 265 307L 235 328L 235 316L 220 316L 220 331L 202 331L 202 298ZM 220 331L 220 337L 202 337L 202 331L 220 331ZM 28 331L 28 337L 10 337L 10 331L 28 331ZM 28 337C 28 351.9117 40.0883 364 55 364L 175 364C 189.912 364 202 351.9117 202 337L 220 337C 220 361.8528 199.853 382 175 382L 55 382C 30.1472 382 10 361.8528 10 337L 28 337Z"></path></g></g></g><g id="g-root-0.g-0_2_fr_4l2iqd980c27-fill" data-item-order="-418087" transform="translate(96, 344.859375)"></g><g id="g-root-tx_datashar_90w0ut980c1t-fill" data-item-order="0" transform="translate(261, 39)"><g id="tx_datashar_90w0ut980c1t-fill" stroke="none" fill="#f4f4f4"><g><text style="font: 20px Roboto, sans-serif; white-space: pre;" font-size="20px" font-family="Roboto, sans-serif"><tspan x="12.42" y="34" dominant-baseline="ideographic">Data Sharing Workflow Sequence</tspan></text></g></g></g><g id="g-root-spre_qtezit981q0y-fill" data-item-order="0" transform="translate(108, 201)"></g><g id="g-root-1_zk272t981p1l-fill" data-item-order="0" transform="translate(354, 201)"></g><g id="g-root-lock_1ur61jp980a9w-fill" data-item-order="0" transform="translate(600, 201)"></g><g id="g-root-tx_1_v98hn9981p8o-fill" data-item-order="0" transform="translate(240, 327)"><g id="tx_1_v98hn9981p8o-fill" stroke="none" fill="#d0e2ff"><g><text style="font: bold 30px Roboto, sans-serif; white-space: pre;" font-weight="bold" font-size="30px" font-family="Roboto, sans-serif"><tspan x="13.39" y="45" dominant-baseline="ideographic">1</tspan></text></g></g></g><g id="g-root-tx_2_18f2q8l981reo-fill" data-item-order="0" transform="translate(486, 327)"><g id="tx_2_18f2q8l981reo-fill" stroke="none" fill="#bbffde"><g><text style="font: bold 30px Roboto, sans-serif; white-space: pre;" font-weight="bold" font-size="30px" font-family="Roboto, sans-serif"><tspan x="13.39" y="45" dominant-baseline="ideographic">2</tspan></text></g></g></g><g id="g-root-tx_3_1ur61jp980a9v-fill" data-item-order="0" transform="translate(732, 327)"><g id="tx_3_1ur61jp980a9v-fill" stroke="none" fill="#e4ffac"><g><text style="font: bold 30px Roboto, sans-serif; white-space: pre;" font-weight="bold" font-size="30px" font-family="Roboto, sans-serif"><tspan x="13.39" y="45" dominant-baseline="ideographic">3</tspan></text></g></g></g><g id="g-root-tx_createex_18k2ixh981qti-fill" data-item-order="0" transform="translate(108, 399)"><g id="tx_createex_18k2ixh981qti-fill" stroke="none" fill="#f4f4f4"><g><text style="font: 20px Roboto, sans-serif; white-space: pre;" font-size="20px" font-family="Roboto, sans-serif"><tspan x="26.39" y="34" dominant-baseline="ideographic">Create </tspan><tspan x="12.34" y="58" dominant-baseline="ideographic">Exchange </tspan><tspan x="34.8" y="82" dominant-baseline="ideographic">Data</tspan></text></g></g></g><g id="g-root-tx_createen_1cuw8d1981qmf-fill" data-item-order="0" transform="translate(342, 399)"><g id="tx_createen_1cuw8d1981qmf-fill" stroke="none" fill="#f4f4f4"><g><text style="font: 20px Roboto, sans-serif; white-space: pre;" font-size="20px" font-family="Roboto, sans-serif"><tspan x="12.24" y="34" dominant-baseline="ideographic">Create Entity </tspan><tspan x="21.55" y="58" dominant-baseline="ideographic">Encryption </tspan><tspan x="47.48" y="82" dominant-baseline="ideographic">Keys</tspan></text></g></g></g><g id="g-root-tx_encrypte_590lx980cui-fill" data-item-order="0" transform="translate(606, 399)"><g id="tx_encrypte_590lx980cui-fill" stroke="none" fill="#f4f4f4"><g><text style="font: 20px Roboto, sans-serif; white-space: pre;" font-size="20px" font-family="Roboto, sans-serif"><tspan x="16.76" y="34" dominant-baseline="ideographic">Encrypt </tspan><tspan x="25.38" y="58" dominant-baseline="ideographic">Entity </tspan><tspan x="15.2" y="82" dominant-baseline="ideographic">Content</tspan></text></g></g></g><g id="g-root-3.box-3_fr_mbq251980cul-stroke" data-item-order="-418166" transform="translate(543, 144)"><g id="3.box-3_fr_mbq251980cul-stroke" fill="none" stroke-linecap="round" stroke-linejoin="round" stroke-miterlimit="4" stroke="#f4f4f4" stroke-width="2"><g><path d="M 220 331L 220 316L 235 316L 235 328L 265 307L 235 286L 235 298L 202 298L 202 331M 28 331L 28 55C 28 40.0883 40.0883 28 55 28L 175 28C 189.9117 28 202 40.0883 202 55L 202 176.1342C 186.473 180.1305 175 194.2254 175 211C 175 230.8823 191.1177 247 211 247C 230.8823 247 247 230.8823 247 211C 247 194.2254 235.527 180.1305 220 176.1342L 220 55C 220 30.1472 199.8528 10 175 10L 55 10C 30.1472 10 10 30.1472 10 55L 10 300.7041L 19 307L 10 313.2993L 10 331M 220 337L 220 331M 202 331L 202 337M 28 337L 28 331M 10 331L 10 337M 28 337C 28 351.9117 40.0883 364 55 364L 175 364C 189.9117 364 202 351.9117 202 337M 220 337C 220 361.8528 199.8528 382 175 382L 55 382C 30.1472 382 10 361.8528 10 337"></path></g></g></g><g id="g-root-0.g-0_fr_hwj13p980ah3-stroke" data-item-order="-418147" transform="translate(588, 344.8590087890625)"><g id="0.g-0_fr_hwj13p980ah3-stroke" fill="none" stroke-linecap="round" stroke-linejoin="round" stroke-miterlimit="4" stroke="#f4f4f4" stroke-width="2"><g><path d="M 35.6883 10L 42.1104 10M 22.8443 10L 29.2663 10M 10 10L 16.4221 10M 48.5326 10L 54.9546 10M 61.3766 10L 67.7987 10M 74.2206 10L 80.6427 10M 87.0649 10L 93.487 10M 99.9089 10L 106.331 10"></path></g></g></g><g id="g-root-2.box-2_fr_hwj13p980ah5-stroke" data-item-order="-418136" transform="translate(297, 144)"><g id="2.box-2_fr_hwj13p980ah5-stroke" fill="none" stroke-linecap="round" stroke-linejoin="round" stroke-miterlimit="4" stroke="#f4f4f4" stroke-width="2"><g><path d="M 220 331L 220 316L 235 316L 235 328L 265 307L 235 286L 235 298L 202 298L 202 331M 28 331L 28 55C 28 40.0883 40.0883 28 55 28L 175 28C 189.9117 28 202 40.0883 202 55L 202 176.1342C 186.473 180.1305 175 194.2254 175 211C 175 230.8823 191.1177 247 211 247C 230.8823 247 247 230.8823 247 211C 247 194.2254 235.527 180.1305 220 176.1342L 220 55C 220 30.1472 199.8528 10 175 10L 55 10C 30.1472 10 10 30.1472 10 55L 10 300.7041L 19 307L 10 313.2993L 10 331M 220 337L 220 331M 202 331L 202 337M 28 337L 28 331M 10 331L 10 337M 28 337C 28 351.9117 40.0883 364 55 364L 175 364C 189.9117 364 202 351.9117 202 337M 220 337C 220 361.8528 199.8528 382 175 382L 55 382C 30.1472 382 10 361.8528 10 337"></path></g></g></g><g id="g-root-0.g-0_1_fr_dgpiz9980b9f-stroke" data-item-order="-418117" transform="translate(342, 344.859375)"><g id="0.g-0_1_fr_dgpiz9980b9f-stroke" fill="none" stroke-linecap="round" stroke-linejoin="round" stroke-miterlimit="4" stroke="#f4f4f4" stroke-width="2"><g><path d="M 35.6883 10L 42.1104 10M 22.8443 10L 29.2663 10M 10 10L 16.4221 10M 48.5326 10L 54.9546 10M 61.3766 10L 67.7987 10M 74.2206 10L 80.6427 10M 87.0649 10L 93.487 10M 99.9089 10L 106.331 10"></path></g></g></g><g id="g-root-1.box-1_fr_dgpiz9980b9h-stroke" data-item-order="-418106" transform="translate(51, 144)"><g id="1.box-1_fr_dgpiz9980b9h-stroke" fill="none" stroke-linecap="round" stroke-linejoin="round" stroke-miterlimit="4" stroke="#f4f4f4" stroke-width="2"><g><path d="M 220 331L 220 316L 235 316L 235 328L 265 307L 235 286L 235 298L 202 298L 202 331M 28 331L 28 55C 28 40.0883 40.0883 28 55 28L 175 28C 189.9117 28 202 40.0883 202 55L 202 176.1342C 186.473 180.1305 175 194.2254 175 211C 175 230.8823 191.1177 247 211 247C 230.8823 247 247 230.8823 247 211C 247 194.2254 235.527 180.1305 220 176.1342L 220 55C 220 30.1472 199.8528 10 175 10L 55 10C 30.1472 10 10 30.1472 10 55L 10 331M 220 337L 220 331M 202 331L 202 337M 28 337L 28 331M 10 331L 10 337M 28 337C 28 351.9117 40.0883 364 55 364L 175 364C 189.9117 364 202 351.9117 202 337M 220 337C 220 361.8528 199.8528 382 175 382L 55 382C 30.1472 382 10 361.8528 10 337"></path></g></g></g><g id="g-root-0.g-0_2_fr_4l2iqd980c27-stroke" data-item-order="-418087" transform="translate(96, 344.859375)"><g id="0.g-0_2_fr_4l2iqd980c27-stroke" fill="none" stroke-linecap="round" stroke-linejoin="round" stroke-miterlimit="4" stroke="#f4f4f4" stroke-width="2"><g><path d="M 35.6883 10L 42.1104 10M 22.8443 10L 29.2663 10M 10 10L 16.4221 10M 48.5326 10L 54.9546 10M 61.3766 10L 67.7987 10M 74.2206 10L 80.6427 10M 87.0649 10L 93.487 10M 99.9089 10L 106.331 10"></path></g></g></g><g id="g-root-tx_datashar_90w0ut980c1t-stroke" data-item-order="0" transform="translate(261, 39)"></g><g id="g-root-spre_qtezit981q0y-stroke" data-item-order="0" transform="translate(108, 201)"><g id="spre_qtezit981q0y-stroke" fill="none" stroke-linecap="round" stroke-linejoin="round" stroke-miterlimit="4" stroke="#f4f4f4" stroke-width="2"><g><path d="M 41 13L 13 13L 13 103L 41 103L 41 13ZM 13 43L 41 43M 13 73L 41 73M 99.800003 23.80028C 101.800003 25.40028 103 27.8002 103 30.200199L 103 57.400398C 103 61.8004 99.400002 65.400398 95 65.400398L 67 65.400398C 62.599998 65.400398 59 61.8004 59 57.400398L 59 21.4004C 59 17.000401 62.599998 13.400393 67 13.400393L 83.400002 13.400393C 85 13.400393 87 13.800244 88.199997 15.00024L 99.800003 23.80028ZM 71 27.4004L 85 27.4004M 71 39.400398L 91 39.400398M 71 51.400398L 81 51.400398M 89.400398 77.800003L 89.400398 84.999603C 89.400398 89.399597 85.8004 92.999603 81.400398 92.999603L 57.8004 92.999603M 57.8004 92.999603L 67.8004 82.999603M 57.8004 92.999603L 67.8004 102.999603"></path></g></g></g><g id="g-root-1_zk272t981p1l-stroke" data-item-order="0" transform="translate(354, 201)"><g id="1_zk272t981p1l-stroke" fill="none" stroke-linecap="round" stroke-linejoin="round" stroke-miterlimit="4" stroke="#f4f4f4" stroke-width="2"><g><path d="M 88 60L 88 35.891998C 87.995583 22.695518 77.296478 11.999999 64.099998 12L 16 12C 13.790861 12 12 13.790861 12 16L 12 100C 12 102.209137 13.790861 104 16 104L 28 104M 68 12.316L 68 28C 68 30.209139 69.790863 32 72 32L 87.68 32M 56 71.996002L 40 87.996002L 56 103.996002M 40 103.996002L 40 71.996002M 80 104L 70 104C 66.686295 104 64 101.313713 64 98L 64 78C 64 74.686295 66.686295 72 70 72L 80 72M 64 87.996002L 74 87.996002M 104 72L 104 80C 104 84.418282 100.418282 88 96 88C 91.581718 88 88 84.418282 88 80L 88 72M 96 87.996002L 96 103.996002"></path></g></g></g><g id="g-root-lock_1ur61jp980a9w-stroke" data-item-order="0" transform="translate(600, 201)"><g id="lock_1ur61jp980a9w-stroke" fill="none" stroke-linecap="round" stroke-linejoin="round" stroke-miterlimit="4" stroke="#f4f4f4" stroke-width="2"><g><path d="M 12.087999 28.003996C 12.088 36.840549 29.101175 44.003994 50.087994 44.003994C 71.074814 44.003994 88.087982 36.840549 88.087982 28.003996C 88.087982 19.167442 71.074814 12.004 50.087994 12.004C 29.101175 12.004 12.088 19.167442 12.088 28.003996ZM 54.083992 59.915993C 52.763992 59.975994 51.435993 60.003994 50.083992 60.003994C 29.099997 60.003994 12.084 52.843994 12.084 44.003994M 54.083992 77.915985C 52.763992 77.975983 51.435993 78.003983 50.083992 78.003983C 29.099997 78.003983 12.084 70.843994 12.084 62.003994M 88.083984 46.003994L 88.083984 28.003996M 12.084 27.999996L 12.084 79.999985C 12.084 88.839981 29.099997 95.999985 50.083992 95.999985C 51.435993 95.999985 52.771992 95.971985 54.083992 95.911987M 104.083984 99.999985C 104.083984 102.209122 102.293121 103.999985 100.083984 103.999985L 72.083992 103.999985C 69.874855 103.999985 68.083992 102.209122 68.083992 99.999985L 68.083992 75.999985C 68.083992 73.790848 69.874855 71.999992 72.083992 71.999992L 100.083984 71.999992C 102.293121 71.999992 104.083984 73.790848 104.083984 75.999985ZM 81.083984 88.255981C 81.083984 91.01741 83.322563 93.255989 86.083984 93.255989C 88.845413 93.255989 91.083984 91.01741 91.083984 88.255989C 91.083984 85.49456 88.845413 83.255989 86.083984 83.255989C 83.322563 83.255989 81.083984 85.49456 81.083984 88.255989ZM 96.083984 65.999992C 96.083984 60.477146 91.606834 55.999992 86.083984 55.999992C 80.561142 55.999992 76.083984 60.477146 76.083984 65.999992L 76.083984 71.999992L 96.083984 71.999992Z"></path></g></g></g><g id="g-root-tx_1_v98hn9981p8o-stroke" data-item-order="0" transform="translate(240, 327)"></g><g id="g-root-tx_2_18f2q8l981reo-stroke" data-item-order="0" transform="translate(486, 327)"></g><g id="g-root-tx_3_1ur61jp980a9v-stroke" data-item-order="0" transform="translate(732, 327)"></g><g id="g-root-tx_createex_18k2ixh981qti-stroke" data-item-order="0" transform="translate(108, 399)"></g><g id="g-root-tx_createen_1cuw8d1981qmf-stroke" data-item-order="0" transform="translate(342, 399)"></g><g id="g-root-tx_encrypte_590lx980cui-stroke" data-item-order="0" transform="translate(606, 399)"></g></g></g></svg>