<svg width="239" height="56" viewBox="0 0 239 56" fill="none" xmlns="http://www.w3.org/2000/svg">
<g clip-path="url(#clip0_442_1474)">
<path fill-rule="evenodd" clip-rule="evenodd" d="M54.5551 0.979261V19.7255C54.4606 23.7654 54.8666 27.2102 53.9964 29.8997C52.5894 34.2511 50.352 36.5451 47.0579 39.7533C44.3716 42.3691 41.7272 45.0273 39.082 47.6845C36.988 49.7875 34.6697 52.2218 32.6212 54.2533C31.9241 54.9452 31.5042 55.3123 31.0261 55.7755V33.9853C31.0573 33.436 31.0829 33.1338 31.1857 32.7036C31.3665 31.9469 31.4823 31.1734 31.7442 30.4602C32.5668 28.2172 33.5727 26.5011 34.8548 24.7724C35.918 23.7313 36.9019 22.6892 37.9653 21.6481C38.916 20.598 39.8385 19.7666 40.7565 18.8441C42.1126 17.4559 43.4686 16.0668 44.8246 14.6786C47.551 11.94 49.5153 10.3631 49.8495 5.7861C46.9623 5.7235 45.0301 6.87394 43.4686 8.18928C43.057 8.53634 42.5998 9.08564 42.1924 9.47099C41.9703 9.68118 41.7362 9.93527 41.7139 9.95163C41.5852 10.046 41.024 10.6476 40.8364 10.833C40.0855 11.5762 39.6171 11.9825 38.7629 12.9158C38.4169 13.2362 37.9918 13.7169 37.6458 14.0373C36.8569 14.8304 36.1248 15.602 35.3334 16.3606C34.9344 16.788 34.4558 17.2153 34.0568 17.6423C32.6696 19.0356 31.2894 20.5826 29.6701 21.7284C27.8323 23.0283 25.7382 23.9144 23.2099 24.452C21.5115 24.813 17.9382 24.6925 15.3936 24.6925H0C1.17886 23.5585 6.87367 17.788 7.7363 16.9216C10.5549 14.091 13.3725 11.2599 16.1911 8.42985C18.899 5.70948 21.3307 3.04287 25.4429 1.70045C28.3238 0.759728 32.4082 0.979261 36.2102 0.979261H54.5551Z" fill="#D7D7D7"/>
<path d="M63.5313 29.4832V30.0521H61.6367V36.3397H60.9531V30.0521H59.0488V29.4832H63.5313ZM67.1498 30.8859C67.5534 30.8859 67.9147 30.9709 68.2338 31.1409C68.5592 31.3109 68.8132 31.5725 68.9956 31.9256C69.1843 32.2722 69.2788 32.6973 69.2788 33.2008V36.3397H68.6049V33.2793C68.6049 32.6973 68.4584 32.2526 68.1655 31.9453C67.8788 31.6379 67.485 31.4842 66.9838 31.4842C66.4694 31.4842 66.0592 31.6477 65.7533 31.9747C65.4471 32.3016 65.2944 32.7823 65.2944 33.4166V36.3397H64.6108V29.0811H65.2944V31.8962C65.4635 31.5758 65.7108 31.3273 66.0365 31.1507C66.3686 30.9742 66.7397 30.8859 67.1498 30.8859ZM75.615 33.3872C75.615 33.6226 75.6083 33.8024 75.5954 33.9267H71.1716C71.1911 34.3321 71.2888 34.6787 71.4645 34.9664C71.6403 35.2541 71.8712 35.4732 72.1579 35.6236C72.4443 35.7675 72.7568 35.8394 73.0954 35.8394C73.538 35.8394 73.9091 35.7315 74.2087 35.5157C74.5146 35.2999 74.7165 35.0089 74.8142 34.6427H75.5368C75.4064 35.1658 75.1267 35.5942 74.697 35.9277C74.2736 36.2545 73.74 36.4181 73.0954 36.4181C72.5939 36.4181 72.1447 36.3071 71.7477 36.0846C71.3505 35.8558 71.038 35.5353 70.8102 35.1233C70.5888 34.7048 70.4782 34.2177 70.4782 33.6618C70.4782 33.106 70.5888 32.6188 70.8102 32.2003C71.0314 31.7818 71.3407 31.4614 71.738 31.239C72.1349 31.0167 72.5876 30.9055 73.0954 30.9055C73.6032 30.9055 74.0458 31.0167 74.4236 31.239C74.8076 31.4614 75.1005 31.7621 75.3025 32.1414C75.5107 32.5142 75.615 32.9294 75.615 33.3872ZM74.9216 33.3676C74.9279 32.9686 74.8466 32.6286 74.6775 32.3474C74.5146 32.0662 74.29 31.8537 74.0036 31.7098C73.7169 31.566 73.4044 31.494 73.0661 31.494C72.5583 31.494 72.1251 31.6575 71.7673 31.9845C71.4091 32.3114 71.2106 32.7725 71.1716 33.3676H74.9216ZM81.6157 36.4083C81.1664 36.4083 80.7692 36.3298 80.4242 36.1729C80.0856 36.016 79.8188 35.7969 79.6235 35.5157C79.4281 35.2345 79.3239 34.9206 79.3109 34.574H80.0336C80.066 34.9076 80.2125 35.2018 80.4731 35.4569C80.7336 35.7053 81.1145 35.8296 81.6157 35.8296C82.0778 35.8296 82.4426 35.7119 82.7094 35.4765C82.9829 35.2345 83.1196 34.9304 83.1196 34.5642C83.1196 34.27 83.0446 34.0346 82.895 33.858C82.7453 33.6749 82.5598 33.5409 82.3383 33.4558C82.1168 33.3643 81.811 33.2662 81.4203 33.1616C80.9645 33.0373 80.6032 32.9163 80.3363 32.7986C80.0695 32.6809 79.8414 32.4978 79.6528 32.2493C79.4641 32.0009 79.3695 31.6641 79.3695 31.239C79.3695 30.8859 79.4606 30.572 79.643 30.2974C79.8254 30.0162 80.0824 29.7971 80.4145 29.6402C80.7465 29.4832 81.1274 29.4048 81.5571 29.4048C82.1887 29.4048 82.6965 29.5617 83.0805 29.8756C83.4711 30.1829 83.6958 30.5818 83.7543 31.0723H83.0122C82.9665 30.7911 82.8137 30.5426 82.5532 30.3268C82.2926 30.1044 81.9411 29.9933 81.4985 29.9933C81.0883 29.9933 80.7465 30.1044 80.4731 30.3268C80.1996 30.5426 80.0629 30.8401 80.0629 31.2194C80.0629 31.5071 80.1379 31.7393 80.2875 31.9158C80.4371 32.0924 80.6227 32.2265 80.8442 32.318C81.0719 32.4095 81.3781 32.5076 81.7621 32.6123C82.2047 32.7365 82.5629 32.8607 82.8364 32.985C83.1098 33.1027 83.3411 33.2858 83.5297 33.5343C83.7184 33.7828 83.8129 34.1163 83.8129 34.5348C83.8129 34.8552 83.7282 35.1593 83.559 35.447C83.3899 35.7348 83.1391 35.9669 82.8071 36.1435C82.475 36.32 82.0778 36.4083 81.6157 36.4083ZM89.9584 33.3872C89.9584 33.6226 89.9517 33.8024 89.9388 33.9267H85.515C85.5345 34.3321 85.6322 34.6787 85.8079 34.9664C85.9837 35.2541 86.2146 35.4732 86.5013 35.6236C86.7876 35.7675 87.1002 35.8394 87.4388 35.8394C87.8814 35.8394 88.2525 35.7315 88.5521 35.5157C88.858 35.2999 89.0599 35.0089 89.1576 34.6427H89.8802C89.7498 35.1658 89.4701 35.5942 89.0404 35.9277C88.617 36.2545 88.0834 36.4181 87.4388 36.4181C86.9373 36.4181 86.4881 36.3071 86.0911 36.0846C85.6939 35.8558 85.3814 35.5353 85.1536 35.1233C84.9322 34.7048 84.8216 34.2177 84.8216 33.6618C84.8216 33.106 84.9322 32.6188 85.1536 32.2003C85.3748 31.7818 85.6841 31.4614 86.0814 31.239C86.4783 31.0167 86.931 30.9055 87.4388 30.9055C87.9466 30.9055 88.3892 31.0167 88.767 31.239C89.151 31.4614 89.4439 31.7621 89.6459 32.1414C89.8541 32.5142 89.9584 32.9294 89.9584 33.3872ZM89.265 33.3676C89.2713 32.9686 89.19 32.6286 89.0209 32.3474C88.858 32.0662 88.6334 31.8537 88.347 31.7098C88.0603 31.566 87.7478 31.494 87.4095 31.494C86.9017 31.494 86.4685 31.6575 86.1107 31.9845C85.7525 32.3114 85.554 32.7725 85.515 33.3676H89.265ZM90.8966 33.6618C90.8966 33.106 91.0071 32.6221 91.2286 32.2101C91.4497 31.7916 91.756 31.4712 92.1466 31.2488C92.5372 31.02 92.983 30.9055 93.4845 30.9055C94.1419 30.9055 94.6822 31.069 95.1056 31.396C95.5353 31.7229 95.8119 32.1676 95.9357 32.73H95.2033C95.1119 32.3442 94.9134 32.0433 94.6075 31.8276C94.3079 31.6052 93.9337 31.494 93.4845 31.494C93.1263 31.494 92.804 31.5758 92.5177 31.7393C92.231 31.9028 92.0032 32.148 91.8341 32.4749C91.6712 32.7954 91.5899 33.191 91.5899 33.6618C91.5899 34.1326 91.6712 34.5316 91.8341 34.8585C92.0032 35.1855 92.231 35.4307 92.5177 35.5942C92.804 35.7577 93.1263 35.8394 93.4845 35.8394C93.9337 35.8394 94.3079 35.7315 94.6075 35.5157C94.9134 35.2934 95.1119 34.986 95.2033 34.5937H95.9357C95.8119 35.143 95.5353 35.5844 95.1056 35.9179C94.6759 36.2514 94.1353 36.4181 93.4845 36.4181C92.983 36.4181 92.5372 36.3071 92.1466 36.0846C91.756 35.8558 91.4497 35.5353 91.2286 35.1233C91.0071 34.7048 90.8966 34.2177 90.8966 33.6618ZM101.817 30.984V36.3397H101.133V35.398C100.977 35.7315 100.737 35.9865 100.411 36.1631C100.085 36.3397 99.7209 36.4279 99.3171 36.4279C98.6792 36.4279 98.1584 36.2318 97.7546 35.8394C97.351 35.4405 97.1491 34.8651 97.1491 34.113V30.984H97.8229V34.0346C97.8229 34.6165 97.9663 35.0612 98.2526 35.3686C98.5456 35.6759 98.9428 35.8296 99.444 35.8296C99.9585 35.8296 100.369 35.6661 100.674 35.3391C100.981 35.0122 101.133 34.5316 101.133 33.8972V30.984H101.817ZM104.061 31.9355C104.211 31.6019 104.439 31.3437 104.745 31.1605C105.058 30.9774 105.438 30.8859 105.888 30.8859V31.6019H105.702C105.207 31.6019 104.81 31.736 104.511 32.0041C104.211 32.2722 104.061 32.7202 104.061 33.3479V36.3397H103.378V30.984H104.061V31.9355ZM111.74 33.3872C111.74 33.6226 111.734 33.8024 111.721 33.9267H107.297C107.317 34.3321 107.414 34.6787 107.59 34.9664C107.766 35.2541 107.997 35.4732 108.283 35.6236C108.57 35.7675 108.882 35.8394 109.221 35.8394C109.663 35.8394 110.035 35.7315 110.334 35.5157C110.64 35.2999 110.842 35.0089 110.94 34.6427H111.662C111.532 35.1658 111.252 35.5942 110.822 35.9277C110.399 36.2545 109.865 36.4181 109.221 36.4181C108.719 36.4181 108.27 36.3071 107.873 36.0846C107.476 35.8558 107.163 35.5353 106.936 35.1233C106.714 34.7048 106.604 34.2177 106.604 33.6618C106.604 33.106 106.714 32.6188 106.936 32.2003C107.157 31.7818 107.466 31.4614 107.863 31.239C108.26 31.0167 108.713 30.9055 109.221 30.9055C109.729 30.9055 110.171 31.0167 110.549 31.239C110.933 31.4614 111.226 31.7621 111.428 32.1414C111.636 32.5142 111.74 32.9294 111.74 33.3872ZM111.047 33.3676C111.053 32.9686 110.972 32.6286 110.803 32.3474C110.64 32.0662 110.415 31.8537 110.129 31.7098C109.842 31.566 109.53 31.494 109.192 31.494C108.684 31.494 108.251 31.6575 107.893 31.9845C107.535 32.3114 107.336 32.7725 107.297 33.3676H111.047ZM118.864 32.7986C119.249 32.8706 119.574 33.0667 119.841 33.3872C120.108 33.7076 120.241 34.0803 120.241 34.5054C120.241 34.852 120.153 35.1658 119.977 35.447C119.808 35.7217 119.558 35.9407 119.226 36.1042C118.893 36.2612 118.497 36.3397 118.034 36.3397H115.671V29.4832H117.966C118.656 29.4832 119.18 29.6434 119.538 29.9639C119.903 30.2843 120.085 30.6995 120.085 31.2096C120.085 31.6346 119.971 31.9812 119.743 32.2493C119.515 32.5109 119.222 32.694 118.864 32.7986ZM116.354 32.5142H117.946C118.409 32.5142 118.763 32.4063 119.011 32.1905C119.265 31.9681 119.392 31.6641 119.392 31.2783C119.392 30.899 119.265 30.6014 119.011 30.3856C118.763 30.1698 118.399 30.0619 117.917 30.0619H116.354V32.5142ZM117.985 35.7609C118.48 35.7609 118.864 35.6432 119.138 35.4078C119.418 35.1724 119.558 34.8487 119.558 34.4367C119.558 34.0247 119.411 33.6978 119.118 33.4558C118.832 33.2074 118.444 33.0831 117.956 33.0831H116.354V35.7609H117.985ZM121.185 33.652C121.185 33.1027 121.293 32.6221 121.508 32.2101C121.729 31.7916 122.032 31.4712 122.416 31.2488C122.806 31.02 123.246 30.9055 123.734 30.9055C124.242 30.9055 124.678 31.0232 125.043 31.2586C125.414 31.494 125.681 31.7949 125.844 32.1611V30.984H126.527V36.3397H125.844V35.1528C125.674 35.519 125.404 35.823 125.033 36.065C124.669 36.3004 124.232 36.4181 123.724 36.4181C123.243 36.4181 122.806 36.3036 122.416 36.0748C122.032 35.846 121.729 35.5223 121.508 35.1037C121.293 34.6852 121.185 34.2013 121.185 33.652ZM125.844 33.6618C125.844 33.2302 125.756 32.8509 125.58 32.524C125.404 32.197 125.163 31.9453 124.857 31.7687C124.558 31.5921 124.226 31.5039 123.861 31.5039C123.484 31.5039 123.145 31.5889 122.845 31.7589C122.546 31.9289 122.308 32.1774 122.133 32.5044C121.963 32.8248 121.879 33.2074 121.879 33.652C121.879 34.0902 121.963 34.476 122.133 34.8095C122.308 35.1364 122.546 35.3882 122.845 35.5647C123.145 35.7348 123.484 35.8198 123.861 35.8198C124.226 35.8198 124.558 35.7315 124.857 35.5549C125.163 35.3784 125.404 35.1266 125.58 34.7997C125.756 34.4727 125.844 34.0934 125.844 33.6618ZM127.775 33.6618C127.775 33.106 127.886 32.6221 128.107 32.2101C128.329 31.7916 128.635 31.4712 129.025 31.2488C129.416 31.02 129.862 30.9055 130.363 30.9055C131.021 30.9055 131.561 31.069 131.984 31.396C132.414 31.7229 132.691 32.1676 132.815 32.73H132.082C131.991 32.3442 131.792 32.0433 131.486 31.8276C131.187 31.6052 130.813 31.494 130.363 31.494C130.005 31.494 129.683 31.5758 129.397 31.7393C129.11 31.9028 128.882 32.148 128.713 32.4749C128.55 32.7954 128.469 33.191 128.469 33.6618C128.469 34.1326 128.55 34.5316 128.713 34.8585C128.882 35.1855 129.11 35.4307 129.397 35.5942C129.683 35.7577 130.005 35.8394 130.363 35.8394C130.813 35.8394 131.187 35.7315 131.486 35.5157C131.792 35.2934 131.991 34.986 132.082 34.5937H132.815C132.691 35.143 132.414 35.5844 131.984 35.9179C131.555 36.2514 131.014 36.4181 130.363 36.4181C129.862 36.4181 129.416 36.3071 129.025 36.0846C128.635 35.8558 128.329 35.5353 128.107 35.1233C127.886 34.7048 127.775 34.2177 127.775 33.6618ZM136.958 36.3397L134.761 33.9365V36.3397H134.077V29.0811H134.761V33.3774L136.909 30.984H137.866L135.337 33.652L137.886 36.3397H136.958ZM143.593 33.3872C143.593 33.6226 143.587 33.8024 143.574 33.9267H139.15C139.17 34.3321 139.267 34.6787 139.443 34.9664C139.619 35.2541 139.85 35.4732 140.136 35.6236C140.423 35.7675 140.735 35.8394 141.074 35.8394C141.516 35.8394 141.888 35.7315 142.187 35.5157C142.493 35.2999 142.695 35.0089 142.793 34.6427H143.515C143.385 35.1658 143.105 35.5942 142.675 35.9277C142.252 36.2545 141.718 36.4181 141.074 36.4181C140.572 36.4181 140.123 36.3071 139.726 36.0846C139.329 35.8558 139.016 35.5353 138.789 35.1233C138.567 34.7048 138.457 34.2177 138.457 33.6618C138.457 33.106 138.567 32.6188 138.789 32.2003C139.01 31.7818 139.319 31.4614 139.716 31.239C140.113 31.0167 140.566 30.9055 141.074 30.9055C141.582 30.9055 142.024 31.0167 142.402 31.239C142.786 31.4614 143.079 31.7621 143.281 32.1414C143.489 32.5142 143.593 32.9294 143.593 33.3872ZM142.9 33.3676C142.906 32.9686 142.825 32.6286 142.656 32.3474C142.493 32.0662 142.268 31.8537 141.982 31.7098C141.695 31.566 141.383 31.494 141.045 31.494C140.537 31.494 140.104 31.6575 139.746 31.9845C139.388 32.3114 139.189 32.7725 139.15 33.3676H142.9ZM147.344 30.8859C147.982 30.8859 148.503 31.0853 148.907 31.4842C149.31 31.8766 149.512 32.4488 149.512 33.2008V36.3397H148.838V33.2793C148.838 32.6973 148.692 32.2526 148.399 31.9453C148.112 31.6379 147.718 31.4842 147.217 31.4842C146.703 31.4842 146.293 31.6477 145.987 31.9747C145.68 32.3016 145.528 32.7823 145.528 33.4166V36.3397H144.844V30.984H145.528V31.8962C145.697 31.5693 145.941 31.3207 146.26 31.1507C146.579 30.9742 146.94 30.8859 147.344 30.8859ZM150.712 33.652C150.712 33.1027 150.822 32.6221 151.044 32.2101C151.265 31.7916 151.567 31.4712 151.952 31.2488C152.342 31.02 152.782 30.9055 153.27 30.9055C153.739 30.9055 154.162 31.02 154.54 31.2488C154.917 31.4777 155.194 31.7752 155.37 32.1414V29.0811H156.053V36.3397H155.37V35.143C155.207 35.5157 154.94 35.823 154.569 36.065C154.198 36.3004 153.762 36.4181 153.26 36.4181C152.772 36.4181 152.333 36.3036 151.942 36.0748C151.558 35.846 151.255 35.5223 151.034 35.1037C150.819 34.6852 150.712 34.2013 150.712 33.652ZM155.37 33.6618C155.37 33.2302 155.282 32.8509 155.106 32.524C154.93 32.197 154.689 31.9453 154.383 31.7687C154.084 31.5921 153.752 31.5039 153.387 31.5039C153.01 31.5039 152.671 31.5889 152.372 31.7589C152.072 31.9289 151.835 32.1774 151.659 32.5044C151.489 32.8248 151.405 33.2074 151.405 33.652C151.405 34.0902 151.489 34.476 151.659 34.8095C151.835 35.1364 152.072 35.3882 152.372 35.5647C152.671 35.7348 153.01 35.8198 153.387 35.8198C153.752 35.8198 154.084 35.7315 154.383 35.5549C154.689 35.3784 154.93 35.1266 155.106 34.7997C155.282 34.4727 155.37 34.0934 155.37 33.6618ZM163.985 29.4832V30.0521H160.977V32.6123H163.517V33.1812H160.977V36.3397H160.294V29.4832H163.985ZM167.444 36.4181C166.943 36.4181 166.49 36.3071 166.086 36.0846C165.689 35.8558 165.373 35.5353 165.139 35.1233C164.911 34.7048 164.797 34.2177 164.797 33.6618C164.797 33.106 164.914 32.6221 165.149 32.2101C165.383 31.7916 165.702 31.4712 166.106 31.2488C166.51 31.02 166.962 30.9055 167.463 30.9055C167.965 30.9055 168.417 31.02 168.821 31.2488C169.231 31.4712 169.55 31.7916 169.778 32.2101C170.012 32.6221 170.129 33.106 170.129 33.6618C170.129 34.2111 170.012 34.695 169.778 35.1135C169.543 35.5321 169.221 35.8558 168.811 36.0846C168.401 36.3071 167.945 36.4181 167.444 36.4181ZM167.444 35.8198C167.795 35.8198 168.121 35.7413 168.42 35.5844C168.72 35.4209 168.961 35.1789 169.143 34.8585C169.332 34.5316 169.426 34.1326 169.426 33.6618C169.426 33.191 169.335 32.7954 169.153 32.4749C168.971 32.148 168.73 31.906 168.43 31.7491C168.131 31.5856 167.805 31.5039 167.454 31.5039C167.102 31.5039 166.777 31.5856 166.477 31.7491C166.178 31.906 165.937 32.148 165.754 32.4749C165.578 32.7954 165.491 33.191 165.491 33.6618C165.491 34.1326 165.578 34.5316 165.754 34.8585C165.937 35.1789 166.174 35.4209 166.467 35.5844C166.767 35.7413 167.092 35.8198 167.444 35.8198ZM172.059 31.9355C172.209 31.6019 172.437 31.3437 172.743 31.1605C173.055 30.9774 173.436 30.8859 173.885 30.8859V31.6019H173.7C173.205 31.6019 172.808 31.736 172.508 32.0041C172.209 32.2722 172.059 32.7202 172.059 33.3479V36.3397H171.375V30.984H172.059V31.9355ZM182.662 29.4832V36.3397H181.978V33.1321H178.277V36.3397H177.593V29.4832H178.277V32.5632H181.978V29.4832H182.662ZM189.046 33.3872C189.046 33.6226 189.039 33.8024 189.026 33.9267H184.602C184.622 34.3321 184.72 34.6787 184.895 34.9664C185.071 35.2541 185.302 35.4732 185.589 35.6236C185.875 35.7675 186.188 35.8394 186.526 35.8394C186.969 35.8394 187.34 35.7315 187.64 35.5157C187.945 35.2999 188.147 35.0089 188.245 34.6427H188.968C188.838 35.1658 188.558 35.5942 188.128 35.9277C187.705 36.2545 187.171 36.4181 186.526 36.4181C186.025 36.4181 185.576 36.3071 185.179 36.0846C184.781 35.8558 184.469 35.5353 184.241 35.1233C184.02 34.7048 183.909 34.2177 183.909 33.6618C183.909 33.106 184.02 32.6188 184.241 32.2003C184.463 31.7818 184.772 31.4614 185.169 31.239C185.566 31.0167 186.019 30.9055 186.526 30.9055C187.034 30.9055 187.477 31.0167 187.854 31.239C188.238 31.4614 188.531 31.7621 188.733 32.1414C188.942 32.5142 189.046 32.9294 189.046 33.3872ZM188.352 33.3676C188.359 32.9686 188.278 32.6286 188.108 32.3474C187.945 32.0662 187.721 31.8537 187.435 31.7098C187.148 31.566 186.836 31.494 186.497 31.494C185.989 31.494 185.556 31.6575 185.198 31.9845C184.84 32.3114 184.642 32.7725 184.602 33.3676H188.352ZM189.984 33.652C189.984 33.1027 190.091 32.6221 190.306 32.2101C190.528 31.7916 190.831 31.4712 191.215 31.2488C191.605 31.02 192.045 30.9055 192.533 30.9055C193.041 30.9055 193.477 31.0232 193.842 31.2586C194.213 31.494 194.479 31.7949 194.642 32.1611V30.984H195.326V36.3397H194.642V35.1528C194.473 35.519 194.203 35.823 193.832 36.065C193.467 36.3004 193.031 36.4181 192.523 36.4181C192.041 36.4181 191.605 36.3036 191.215 36.0748C190.831 35.846 190.528 35.5223 190.306 35.1037C190.091 34.6852 189.984 34.2013 189.984 33.652ZM194.642 33.6618C194.642 33.2302 194.554 32.8509 194.379 32.524C194.203 32.197 193.962 31.9453 193.656 31.7687C193.356 31.5921 193.024 31.5039 192.66 31.5039C192.282 31.5039 191.944 31.5889 191.644 31.7589C191.345 31.9289 191.107 32.1774 190.931 32.5044C190.762 32.8248 190.677 33.2074 190.677 33.652C190.677 34.0902 190.762 34.476 190.931 34.8095C191.107 35.1364 191.345 35.3882 191.644 35.5647C191.944 35.7348 192.282 35.8198 192.66 35.8198C193.024 35.8198 193.356 35.7315 193.656 35.5549C193.962 35.3784 194.203 35.1266 194.379 34.7997C194.554 34.4727 194.642 34.0934 194.642 33.6618ZM197.57 29.0811V36.3397H196.887V29.0811H197.57ZM200.007 31.5627V34.8879C200.007 35.2149 200.069 35.4405 200.192 35.5647C200.316 35.689 200.534 35.7511 200.847 35.7511H201.472V36.3397H200.739C200.258 36.3397 199.899 36.2286 199.665 36.0061C199.431 35.7773 199.313 35.4045 199.313 34.8879V31.5627H198.571V30.984H199.313V29.6402H200.007V30.984H201.472V31.5627H200.007ZM205.138 30.8859C205.542 30.8859 205.903 30.9709 206.222 31.1409C206.548 31.3109 206.802 31.5725 206.984 31.9256C207.173 32.2722 207.267 32.6973 207.267 33.2008V36.3397H206.593V33.2793C206.593 32.6973 206.447 32.2526 206.154 31.9453C205.867 31.6379 205.474 31.4842 204.972 31.4842C204.458 31.4842 204.048 31.6477 203.742 31.9747C203.436 32.3016 203.283 32.7823 203.283 33.4166V36.3397H202.599V29.0811H203.283V31.8962C203.452 31.5758 203.699 31.3273 204.025 31.1507C204.357 30.9742 204.728 30.8859 205.138 30.8859ZM212.089 32.4161V32.9948H208.291V32.4161H212.089ZM217.837 29.4832V30.0521H215.943V36.3397H215.259V30.0521H213.355V29.4832H217.837ZM223.741 33.3872C223.741 33.6226 223.734 33.8024 223.721 33.9267H219.298C219.317 34.3321 219.415 34.6787 219.591 34.9664C219.766 35.2541 219.997 35.4732 220.284 35.6236C220.57 35.7675 220.883 35.8394 221.221 35.8394C221.664 35.8394 222.035 35.7315 222.335 35.5157C222.641 35.2999 222.843 35.0089 222.94 34.6427H223.663C223.532 35.1658 223.253 35.5942 222.823 35.9277C222.4 36.2545 221.866 36.4181 221.221 36.4181C220.72 36.4181 220.271 36.3071 219.874 36.0846C219.477 35.8558 219.164 35.5353 218.936 35.1233C218.715 34.7048 218.604 34.2177 218.604 33.6618C218.604 33.106 218.715 32.6188 218.936 32.2003C219.157 31.7818 219.467 31.4614 219.864 31.239C220.261 31.0167 220.714 30.9055 221.221 30.9055C221.729 30.9055 222.172 31.0167 222.55 31.239C222.934 31.4614 223.227 31.7621 223.429 32.1414C223.637 32.5142 223.741 32.9294 223.741 33.3872ZM223.048 33.3676C223.054 32.9686 222.973 32.6286 222.804 32.3474C222.641 32.0662 222.416 31.8537 222.13 31.7098C221.843 31.566 221.53 31.494 221.192 31.494C220.684 31.494 220.251 31.6575 219.893 31.9845C219.535 32.3114 219.337 32.7725 219.298 33.3676H223.048ZM224.679 33.6618C224.679 33.106 224.79 32.6221 225.011 32.2101C225.232 31.7916 225.539 31.4712 225.929 31.2488C226.32 31.02 226.766 30.9055 227.267 30.9055C227.925 30.9055 228.465 31.069 228.888 31.396C229.318 31.7229 229.595 32.1676 229.718 32.73H228.986C228.895 32.3442 228.696 32.0433 228.39 31.8276C228.091 31.6052 227.716 31.494 227.267 31.494C226.909 31.494 226.587 31.5758 226.3 31.7393C226.014 31.9028 225.786 32.148 225.617 32.4749C225.454 32.7954 225.373 33.191 225.373 33.6618C225.373 34.1326 225.454 34.5316 225.617 34.8585C225.786 35.1855 226.014 35.4307 226.3 35.5942C226.587 35.7577 226.909 35.8394 227.267 35.8394C227.716 35.8394 228.091 35.7315 228.39 35.5157C228.696 35.2934 228.895 34.986 228.986 34.5937H229.718C229.595 35.143 229.318 35.5844 228.888 35.9179C228.459 36.2514 227.918 36.4181 227.267 36.4181C226.766 36.4181 226.32 36.3071 225.929 36.0846C225.539 35.8558 225.232 35.5353 225.011 35.1233C224.79 34.7048 224.679 34.2177 224.679 33.6618ZM233.52 30.8859C233.924 30.8859 234.285 30.9709 234.604 31.1409C234.929 31.3109 235.183 31.5725 235.366 31.9256C235.554 32.2722 235.649 32.6973 235.649 33.2008V36.3397H234.975V33.2793C234.975 32.6973 234.829 32.2526 234.536 31.9453C234.249 31.6379 233.855 31.4842 233.354 31.4842C232.84 31.4842 232.429 31.6477 232.123 31.9747C231.817 32.3016 231.664 32.7823 231.664 33.4166V36.3397H230.981V29.0811H231.664V31.8962C231.834 31.5758 232.081 31.3273 232.407 31.1507C232.739 30.9742 233.11 30.8859 233.52 30.8859ZM237.278 36.3887C237.135 36.3887 237.014 36.3397 236.916 36.2416C236.825 36.1435 236.78 36.0226 236.78 35.8786C236.78 35.7348 236.825 35.6171 236.916 35.5255C237.014 35.4274 237.135 35.3784 237.278 35.3784C237.414 35.3784 237.528 35.4274 237.619 35.5255C237.717 35.6171 237.766 35.7348 237.766 35.8786C237.766 36.0226 237.717 36.1435 237.619 36.2416C237.528 36.3397 237.414 36.3887 237.278 36.3887Z" fill="#D7D7D7"/>
<path d="M59.5938 13.3287C59.5938 11.7802 59.9488 10.3912 60.6593 9.16161C61.3847 7.932 62.3595 6.97563 63.5837 6.29251C64.8229 5.59422 66.1758 5.24505 67.6417 5.24505C69.3194 5.24505 70.8079 5.66253 72.1078 6.49744C73.4227 7.31719 74.3749 8.4861 74.9643 10.0041H71.8584C71.4504 9.16922 70.8836 8.54681 70.1582 8.13693C69.4327 7.72706 68.5939 7.52212 67.6417 7.52212C66.5989 7.52212 65.6694 7.75743 64.8533 8.22802C64.0372 8.6986 63.3947 9.37415 62.9263 10.2546C62.4729 11.1351 62.2462 12.1597 62.2462 13.3287C62.2462 14.4976 62.4729 15.5222 62.9263 16.4027C63.3947 17.2832 64.0372 17.9663 64.8533 18.4521C65.6694 18.9226 66.5989 19.158 67.6417 19.158C68.5939 19.158 69.4327 18.953 70.1582 18.5431C70.8836 18.1333 71.4504 17.5109 71.8584 16.6759H74.9643C74.3749 18.194 73.4227 19.3629 72.1078 20.1826C70.8079 21.0024 69.3194 21.4123 67.6417 21.4123C66.1605 21.4123 64.8079 21.0707 63.5837 20.3876C62.3595 19.6893 61.3847 18.7253 60.6593 17.4957C59.9488 16.2661 59.5938 14.8771 59.5938 13.3287ZM77.1277 14.9454C77.1277 13.6854 77.3848 12.5696 77.8985 11.5981C78.4276 10.6265 79.1381 9.87511 80.0296 9.34378C80.9364 8.79728 81.9339 8.52404 83.0221 8.52404C84.0046 8.52404 84.8584 8.72137 85.5838 9.11607C86.3246 9.49557 86.914 9.97376 87.3521 10.5506V8.72897H89.9592V21.2756H87.3521V19.4084C86.914 20.0005 86.3169 20.4938 85.5611 20.8885C84.8057 21.2832 83.9442 21.4806 82.9767 21.4806C81.9039 21.4806 80.9214 21.2073 80.0296 20.6608C79.1381 20.0992 78.4276 19.3249 77.8985 18.3382C77.3848 17.3363 77.1277 16.2054 77.1277 14.9454ZM87.3521 14.9909C87.3521 14.1256 87.1707 13.3742 86.808 12.7366C86.4606 12.099 85.9995 11.6132 85.4251 11.2793C84.851 10.9453 84.2313 10.7783 83.5661 10.7783C82.9014 10.7783 82.2816 10.9453 81.7072 11.2793C81.1331 11.5981 80.6643 12.0763 80.3016 12.7138C79.9542 13.3363 79.7802 14.0801 79.7802 14.9454C79.7802 15.8107 79.9542 16.5697 80.3016 17.2224C80.6643 17.8752 81.1331 18.3761 81.7072 18.7253C82.2966 19.0593 82.9164 19.2263 83.5661 19.2263C84.2313 19.2263 84.851 19.0593 85.4251 18.7253C85.9995 18.3914 86.4606 17.9056 86.808 17.268C87.1707 16.6152 87.3521 15.8562 87.3521 14.9909ZM95.9383 10.5506C96.316 9.91305 96.8147 9.41969 97.4345 9.07053C98.0693 8.7062 98.8174 8.52404 99.6789 8.52404V11.211H99.0214C98.0089 11.211 97.2381 11.4691 96.7091 11.9852C96.1953 12.5013 95.9383 13.397 95.9383 14.6721V21.2756H93.3538V8.72897H95.9383V10.5506ZM101.193 14.9454C101.193 13.6854 101.45 12.5696 101.964 11.5981C102.493 10.6265 103.203 9.87511 104.095 9.34378C105.002 8.79728 106.007 8.52404 107.11 8.52404C107.926 8.52404 108.727 8.7062 109.513 9.07053C110.314 9.41969 110.949 9.89028 111.417 10.4823V4.42531H114.024V21.2756H111.417V19.3857C110.994 19.9929 110.405 20.4938 109.649 20.8885C108.909 21.2832 108.055 21.4806 107.087 21.4806C105.999 21.4806 105.002 21.2073 104.095 20.6608C103.203 20.0992 102.493 19.3249 101.964 18.3382C101.45 17.3363 101.193 16.2054 101.193 14.9454ZM111.417 14.9909C111.417 14.1256 111.236 13.3742 110.873 12.7366C110.526 12.099 110.065 11.6132 109.49 11.2793C108.916 10.9453 108.296 10.7783 107.631 10.7783C106.967 10.7783 106.347 10.9453 105.772 11.2793C105.198 11.5981 104.729 12.0763 104.367 12.7138C104.019 13.3363 103.845 14.0801 103.845 14.9454C103.845 15.8107 104.019 16.5697 104.367 17.2224C104.729 17.8752 105.198 18.3761 105.772 18.7253C106.362 19.0593 106.982 19.2263 107.631 19.2263C108.296 19.2263 108.916 19.0593 109.49 18.7253C110.065 18.3914 110.526 17.9056 110.873 17.268C111.236 16.6152 111.417 15.8562 111.417 14.9909ZM118.734 7.06671C118.265 7.06671 117.872 6.90732 117.555 6.58853C117.238 6.26974 117.079 5.87503 117.079 5.40445C117.079 4.93387 117.238 4.53916 117.555 4.22037C117.872 3.90158 118.265 3.74219 118.734 3.74219C119.187 3.74219 119.573 3.90158 119.89 4.22037C120.207 4.53916 120.366 4.93387 120.366 5.40445C120.366 5.87503 120.207 6.26974 119.89 6.58853C119.573 6.90732 119.187 7.06671 118.734 7.06671ZM120.003 8.72897V21.2756H117.419V8.72897H120.003ZM129.699 8.52404C130.681 8.52404 131.558 8.72897 132.329 9.13884C133.115 9.54872 133.727 10.1559 134.165 10.9605C134.603 11.7651 134.823 12.7366 134.823 13.8751V21.2756H132.261V14.2623C132.261 13.1389 131.981 12.2812 131.422 11.6892C130.863 11.082 130.099 10.7783 129.132 10.7783C128.165 10.7783 127.394 11.082 126.82 11.6892C126.26 12.2812 125.981 13.1389 125.981 14.2623V21.2756H123.397V8.72897H125.981V10.1635C126.404 9.6474 126.941 9.2451 127.591 8.95668C128.255 8.66826 128.958 8.52404 129.699 8.52404ZM137.258 14.9454C137.258 13.6854 137.514 12.5696 138.028 11.5981C138.557 10.6265 139.268 9.87511 140.16 9.34378C141.066 8.79728 142.064 8.52404 143.152 8.52404C144.134 8.52404 144.988 8.72137 145.714 9.11607C146.454 9.49557 147.044 9.97376 147.482 10.5506V8.72897H150.089V21.2756H147.482V19.4084C147.044 20.0005 146.447 20.4938 145.691 20.8885C144.935 21.2832 144.074 21.4806 143.107 21.4806C142.033 21.4806 141.051 21.2073 140.16 20.6608C139.268 20.0992 138.557 19.3249 138.028 18.3382C137.514 17.3363 137.258 16.2054 137.258 14.9454ZM147.482 14.9909C147.482 14.1256 147.301 13.3742 146.938 12.7366C146.59 12.099 146.129 11.6132 145.555 11.2793C144.981 10.9453 144.361 10.7783 143.696 10.7783C143.031 10.7783 142.411 10.9453 141.837 11.2793C141.263 11.5981 140.794 12.0763 140.432 12.7138C140.084 13.3363 139.91 14.0801 139.91 14.9454C139.91 15.8107 140.084 16.5697 140.432 17.2224C140.794 17.8752 141.263 18.3761 141.837 18.7253C142.427 19.0593 143.046 19.2263 143.696 19.2263C144.361 19.2263 144.981 19.0593 145.555 18.7253C146.129 18.3914 146.59 17.9056 146.938 17.268C147.301 16.6152 147.482 15.8562 147.482 14.9909ZM156.068 4.42531V21.2756H153.483V4.42531H156.068Z" fill="#D7D7D7"/>
</g>
<defs>
<clipPath id="clip0_442_1474">
<rect width="238.562" height="55" fill="white" transform="translate(0 0.957031)"/>
</clipPath>
</defs>
</svg>
