<svg width="180" height="41" viewBox="0 0 180 41" fill="none" xmlns="http://www.w3.org/2000/svg">
<g clip-path="url(#clip0_442_1516)">
<path fill-rule="evenodd" clip-rule="evenodd" d="M40.805 0.0165544V13.9762C40.7343 16.9846 41.0379 19.5498 40.387 21.5525C39.3347 24.7929 37.6612 26.501 35.1973 28.8903C33.1881 30.8382 31.2102 32.8177 29.2317 34.7964C27.6655 36.3624 25.9315 38.1752 24.3993 39.688C23.8779 40.2029 23.5638 40.4763 23.2063 40.8214V24.595C23.2296 24.1859 23.2487 23.9609 23.3256 23.6405C23.4609 23.0771 23.5475 22.5011 23.7433 21.9699C24.3586 20.2997 25.111 19.0218 26.0699 17.7345C26.8651 16.9592 27.601 16.1832 28.3964 15.4079C29.1076 14.6259 29.7976 14.0068 30.4842 13.3199C31.4984 12.2861 32.5127 11.2517 33.527 10.2179C35.5662 8.17865 37.0354 7.00437 37.2853 3.59603C35.1258 3.54941 33.6806 4.40611 32.5127 5.38559C32.2049 5.64404 31.8629 6.05308 31.5582 6.34004C31.392 6.49656 31.217 6.68577 31.2003 6.69795C31.104 6.7682 30.6843 7.21619 30.5439 7.3543C29.9823 7.90768 29.6319 8.21029 28.993 8.90525C28.7343 9.14386 28.4163 9.50178 28.1575 9.74037C27.5674 10.331 27.0198 10.9056 26.4279 11.4705C26.1295 11.7887 25.7715 12.107 25.4731 12.4249C24.4355 13.4625 23.4031 14.6145 22.192 15.4677C20.8174 16.4357 19.2511 17.0955 17.36 17.4959C16.0897 17.7647 13.417 17.675 11.5137 17.675H0C0.881739 16.8305 5.14122 12.5334 5.78643 11.8882C7.89462 9.78038 10.0021 7.67219 12.1103 5.56473C14.1357 3.53898 15.9544 1.55325 19.0303 0.553594C21.185 -0.146927 24.24 0.0165544 27.0837 0.0165544H40.805Z" fill="#00B1FF"/>
<path d="M47.643 21.2565V21.797H46.2551V26.3476H45.5904V21.797H44.1953V21.2565H47.643ZM50.4478 22.2718C50.7499 22.2718 51.0225 22.3375 51.2659 22.469C51.5096 22.5956 51.6995 22.788 51.8357 23.046C51.9771 23.3041 52.0475 23.6182 52.0475 23.9883V26.3476H51.3901V24.0833C51.3901 23.6839 51.2904 23.3796 51.0906 23.1702C50.8911 22.956 50.6184 22.8488 50.2725 22.8488C49.9219 22.8488 49.642 22.9584 49.4325 23.1775C49.228 23.3966 49.1258 23.7156 49.1258 24.1344V26.3476H48.4611V20.9424H49.1258V22.9146C49.2572 22.71 49.4375 22.5518 49.6663 22.4398C49.9 22.3278 50.1606 22.2718 50.4478 22.2718ZM56.7857 24.1928C56.7857 24.3194 56.7784 24.4533 56.7637 24.5946H53.5644C53.5887 24.989 53.7225 25.2982 53.9662 25.5222C54.2145 25.7413 54.514 25.8509 54.8646 25.8509C55.1518 25.8509 55.3905 25.7852 55.5804 25.6537C55.7751 25.5173 55.9115 25.3372 55.9895 25.1132H56.7053C56.5981 25.4979 56.3839 25.812 56.0625 26.0554C55.7411 26.2941 55.3417 26.4133 54.8646 26.4133C54.4848 26.4133 54.1438 26.328 53.842 26.1577C53.5449 25.9873 53.3111 25.7462 53.1408 25.4346C52.9702 25.118 52.8851 24.7528 52.8851 24.3389C52.8851 23.925 52.9678 23.5622 53.1335 23.2506C53.2989 22.9389 53.5303 22.7003 53.8274 22.5347C54.1292 22.3643 54.4749 22.2791 54.8646 22.2791C55.2444 22.2791 55.5804 22.3619 55.8726 22.5274C56.1648 22.693 56.3886 22.9219 56.5446 23.214C56.7053 23.5013 56.7857 23.8276 56.7857 24.1928ZM56.0991 24.054C56.0991 23.8008 56.043 23.5841 55.9311 23.4039C55.8189 23.2189 55.6655 23.0801 55.4709 22.9876C55.281 22.8902 55.0691 22.8415 54.8354 22.8415C54.4994 22.8415 54.2119 22.9487 53.9735 23.1629C53.7397 23.3772 53.6057 23.6742 53.5718 24.054H56.0991ZM61.2246 26.3987C60.8886 26.3987 60.5865 26.3403 60.3189 26.2234C60.0559 26.1016 59.8488 25.9361 59.698 25.7267C59.547 25.5125 59.469 25.2666 59.4643 24.989H60.1728C60.1971 25.2276 60.2944 25.4297 60.465 25.5953C60.6403 25.7559 60.8933 25.8363 61.2246 25.8363C61.5411 25.8363 61.7894 25.7584 61.9697 25.6026C62.1546 25.4419 62.2472 25.2373 62.2472 24.989C62.2472 24.7942 62.1935 24.636 62.0865 24.5142C61.9793 24.3925 61.8455 24.3 61.6848 24.2366C61.5241 24.1733 61.3073 24.1052 61.0347 24.0321C60.6987 23.9445 60.4284 23.8568 60.2239 23.7692C60.0241 23.6815 59.8514 23.5452 59.7053 23.3601C59.5639 23.1702 59.4935 22.917 59.4935 22.6005C59.4935 22.3229 59.5639 22.077 59.7053 21.8627C59.8464 21.6485 60.0437 21.4829 60.297 21.366C60.555 21.2492 60.8495 21.1907 61.1808 21.1907C61.6579 21.1907 62.0474 21.31 62.3495 21.5486C62.6563 21.7873 62.829 22.1038 62.8681 22.4982H62.1377C62.1131 22.3034 62.0109 22.133 61.8309 21.9869C61.6506 21.8359 61.4119 21.7605 61.1151 21.7605C60.8375 21.7605 60.6111 21.8335 60.4358 21.9796C60.2604 22.1208 60.1728 22.3205 60.1728 22.5786C60.1728 22.7636 60.2239 22.9146 60.3262 23.0314C60.4331 23.1483 60.5623 23.2384 60.7133 23.3017C60.8691 23.3601 61.0858 23.4283 61.3634 23.5062C61.6994 23.5987 61.9697 23.6912 62.1742 23.7838C62.3787 23.8714 62.554 24.0102 62.7001 24.2001C62.8462 24.3852 62.9192 24.6384 62.9192 24.9598C62.9192 25.2081 62.8535 25.4419 62.722 25.661C62.5905 25.8801 62.3957 26.0579 62.1377 26.1942C61.8794 26.3306 61.5752 26.3987 61.2246 26.3987ZM67.5494 24.1928C67.5494 24.3194 67.5421 24.4533 67.5275 24.5946H64.3282C64.3527 24.989 64.4865 25.2982 64.7299 25.5222C64.9783 25.7413 65.2778 25.8509 65.6284 25.8509C65.9158 25.8509 66.1543 25.7852 66.3442 25.6537C66.5391 25.5173 66.6755 25.3372 66.7532 25.1132H67.4691C67.3621 25.4979 67.1477 25.812 66.8263 26.0554C66.5049 26.2941 66.1058 26.4133 65.6284 26.4133C65.2485 26.4133 64.9078 26.328 64.6058 26.1577C64.3089 25.9873 64.0751 25.7462 63.9045 25.4346C63.7342 25.118 63.6489 24.7528 63.6489 24.3389C63.6489 23.925 63.7318 23.5622 63.8972 23.2506C64.0629 22.9389 64.2943 22.7003 64.5911 22.5347C64.8932 22.3643 65.2389 22.2791 65.6284 22.2791C66.0082 22.2791 66.3442 22.3619 66.6364 22.5274C66.9285 22.693 67.1526 22.9219 67.3084 23.214C67.4691 23.5013 67.5494 23.8276 67.5494 24.1928ZM66.8628 24.054C66.8628 23.8008 66.807 23.5841 66.6948 23.4039C66.5829 23.2189 66.4295 23.0801 66.2346 22.9876C66.0447 22.8902 65.8329 22.8415 65.5991 22.8415C65.2631 22.8415 64.9759 22.9487 64.7372 23.1629C64.5035 23.3772 64.3697 23.6742 64.3355 24.054H66.8628ZM68.1786 24.3389C68.1786 23.925 68.2613 23.5646 68.427 23.2579C68.5924 22.9462 68.8214 22.7052 69.1136 22.5347C69.4105 22.3643 69.7491 22.2791 70.1289 22.2791C70.6206 22.2791 71.0247 22.3984 71.3414 22.637C71.6628 22.8756 71.8746 23.2067 71.9769 23.6304H71.2611C71.1927 23.3869 71.0589 23.1945 70.8593 23.0533C70.6644 22.9121 70.4211 22.8415 70.1289 22.8415C69.7491 22.8415 69.4423 22.973 69.2085 23.2359C68.9748 23.494 68.8579 23.8617 68.8579 24.3389C68.8579 24.821 68.9748 25.1935 69.2085 25.4565C69.4423 25.7194 69.7491 25.8509 70.1289 25.8509C70.4211 25.8509 70.6644 25.7827 70.8593 25.6464C71.0539 25.51 71.188 25.3153 71.2611 25.062H71.9769C71.8697 25.4711 71.6555 25.7998 71.3341 26.0481C71.0127 26.2915 70.611 26.4133 70.1289 26.4133C69.7491 26.4133 69.4105 26.328 69.1136 26.1577C68.8214 25.9873 68.5924 25.7462 68.427 25.4346C68.2613 25.1229 68.1786 24.7577 68.1786 24.3389ZM76.4135 22.3448V26.3476H75.7488V25.7559C75.6223 25.9605 75.4446 26.1212 75.2156 26.238C74.9918 26.3499 74.7434 26.406 74.4705 26.406C74.1591 26.406 73.8789 26.3426 73.6305 26.2161C73.3822 26.0846 73.185 25.8899 73.0389 25.6318C72.8978 25.3737 72.8271 25.0596 72.8271 24.6895V22.3448H73.4844V24.6019C73.4844 24.9963 73.5844 25.3007 73.7839 25.5149C73.9838 25.7243 74.2564 25.829 74.602 25.829C74.9576 25.829 75.2375 25.7194 75.442 25.5003C75.6465 25.2812 75.7488 24.9622 75.7488 24.5434V22.3448H76.4135ZM78.2007 22.9949C78.3176 22.766 78.483 22.5883 78.6974 22.4617C78.9165 22.3351 79.1818 22.2718 79.4936 22.2718V22.9584H79.3183C78.5732 22.9584 78.2007 23.3625 78.2007 24.1709V26.3476H77.536V22.3448H78.2007V22.9949ZM83.913 24.1928C83.913 24.3194 83.9057 24.4533 83.8911 24.5946H80.6918C80.716 24.989 80.8498 25.2982 81.0935 25.5222C81.3418 25.7413 81.6413 25.8509 81.9919 25.8509C82.2791 25.8509 82.5178 25.7852 82.7078 25.6537C82.9024 25.5173 83.0388 25.3372 83.1168 25.1132H83.8326C83.7254 25.4979 83.5112 25.812 83.1898 26.0554C82.8684 26.2941 82.4691 26.4133 81.9919 26.4133C81.6121 26.4133 81.2711 26.328 80.9693 26.1577C80.6722 25.9873 80.4384 25.7462 80.2681 25.4346C80.0975 25.118 80.0124 24.7528 80.0124 24.3389C80.0124 23.925 80.0951 23.5622 80.2608 23.2506C80.4262 22.9389 80.6576 22.7003 80.9547 22.5347C81.2565 22.3643 81.6022 22.2791 81.9919 22.2791C82.3717 22.2791 82.7078 22.3619 82.9999 22.5274C83.2921 22.693 83.5159 22.9219 83.6719 23.214C83.8326 23.5013 83.913 23.8276 83.913 24.1928ZM83.2264 24.054C83.2264 23.8008 83.1703 23.5841 83.0584 23.4039C82.9462 23.2189 82.7928 23.0801 82.5982 22.9876C82.4083 22.8902 82.1964 22.8415 81.9627 22.8415C81.6267 22.8415 81.3392 22.9487 81.1008 23.1629C80.8671 23.3772 80.733 23.6742 80.6991 24.054H83.2264ZM89.2869 23.7253C89.4718 23.7546 89.6398 23.83 89.7909 23.9518C89.9466 24.0735 90.0685 24.2245 90.1561 24.4046C90.2487 24.5848 90.2949 24.7772 90.2949 24.9817C90.2949 25.2398 90.2291 25.4735 90.0977 25.6829C89.9662 25.8874 89.7739 26.0505 89.5206 26.1723C89.2723 26.2892 88.9778 26.3476 88.6368 26.3476H86.7377V21.2565H88.5638C88.9094 21.2565 89.2042 21.3149 89.4476 21.4318C89.691 21.5438 89.8736 21.6972 89.9954 21.8919C90.1172 22.0867 90.178 22.3059 90.178 22.5493C90.178 22.8512 90.0953 23.102 89.9297 23.3017C89.769 23.4965 89.5548 23.6377 89.2869 23.7253ZM87.4024 23.4551H88.5199C88.8317 23.4551 89.0727 23.382 89.2431 23.2359C89.4134 23.0899 89.4987 22.8878 89.4987 22.6297C89.4987 22.3716 89.4134 22.1695 89.2431 22.0234C89.0727 21.8773 88.8267 21.8043 88.5053 21.8043H87.4024V23.4551ZM88.5784 25.7998C88.9094 25.7998 89.1677 25.7219 89.3526 25.566C89.5376 25.4102 89.6302 25.1935 89.6302 24.9159C89.6302 24.6335 89.5329 24.4119 89.338 24.2513C89.1431 24.0857 88.8828 24.0029 88.5564 24.0029H87.4024V25.7998H88.5784ZM90.969 24.3316C90.969 23.9226 91.0517 23.5646 91.2173 23.2579C91.3827 22.9462 91.6091 22.7052 91.8966 22.5347C92.1888 22.3643 92.5125 22.2791 92.8681 22.2791C93.2187 22.2791 93.5229 22.3545 93.7811 22.5055C94.0391 22.6565 94.2314 22.8464 94.3582 23.0753V22.3448H95.0302V26.3476H94.3582V25.6026C94.2267 25.8363 94.0295 26.0311 93.7665 26.1869C93.5083 26.3379 93.2064 26.4133 92.8608 26.4133C92.5052 26.4133 92.1838 26.3257 91.8966 26.1504C91.6091 25.9751 91.3827 25.7292 91.2173 25.4126C91.0517 25.0961 90.969 24.7358 90.969 24.3316ZM94.3582 24.3389C94.3582 24.037 94.2971 23.774 94.1756 23.55C94.0538 23.326 93.8881 23.1556 93.6789 23.0387C93.4744 22.917 93.2479 22.8561 92.9996 22.8561C92.7512 22.8561 92.5248 22.9146 92.3203 23.0314C92.1158 23.1483 91.9524 23.3187 91.8309 23.5427C91.7091 23.7667 91.6483 24.0297 91.6483 24.3316C91.6483 24.6384 91.7091 24.9062 91.8309 25.1351C91.9524 25.3591 92.1158 25.5319 92.3203 25.6537C92.5248 25.7706 92.7512 25.829 92.9996 25.829C93.2479 25.829 93.4744 25.7706 93.6789 25.6537C93.8881 25.5319 94.0538 25.3591 94.1756 25.1351C94.2971 24.9062 94.3582 24.6408 94.3582 24.3389ZM95.9051 24.3389C95.9051 23.925 95.9878 23.5646 96.1535 23.2579C96.3189 22.9462 96.5479 22.7052 96.8401 22.5347C97.137 22.3643 97.4756 22.2791 97.8554 22.2791C98.3471 22.2791 98.7512 22.3984 99.0679 22.637C99.3893 22.8756 99.6011 23.2067 99.7034 23.6304H98.9876C98.9192 23.3869 98.7854 23.1945 98.5858 23.0533C98.391 22.9121 98.1476 22.8415 97.8554 22.8415C97.4756 22.8415 97.1688 22.973 96.9351 23.2359C96.7013 23.494 96.5845 23.8617 96.5845 24.3389C96.5845 24.821 96.7013 25.1935 96.9351 25.4565C97.1688 25.7194 97.4756 25.8509 97.8554 25.8509C98.1476 25.8509 98.391 25.7827 98.5858 25.6464C98.7805 25.51 98.9145 25.3153 98.9876 25.062H99.7034C99.5962 25.4711 99.382 25.7998 99.0606 26.0481C98.7392 26.2915 98.3375 26.4133 97.8554 26.4133C97.4756 26.4133 97.137 26.328 96.8401 26.1577C96.5479 25.9873 96.3189 25.7462 96.1535 25.4346C95.9878 25.1229 95.9051 24.7577 95.9051 24.3389ZM102.825 26.3476L101.255 24.5799V26.3476H100.59V20.9424H101.255V24.1198L102.796 22.3448H103.724L101.839 24.3389L103.731 26.3476H102.825ZM108.002 24.1928C108.002 24.3194 107.994 24.4533 107.98 24.5946H104.78C104.805 24.989 104.939 25.2982 105.182 25.5222C105.431 25.7413 105.73 25.8509 106.081 25.8509C106.368 25.8509 106.607 25.7852 106.796 25.6537C106.991 25.5173 107.127 25.3372 107.205 25.1132H107.921C107.814 25.4979 107.6 25.812 107.279 26.0554C106.957 26.2941 106.558 26.4133 106.081 26.4133C105.701 26.4133 105.36 26.328 105.058 26.1577C104.761 25.9873 104.527 25.7462 104.357 25.4346C104.186 25.118 104.101 24.7528 104.101 24.3389C104.101 23.925 104.184 23.5622 104.349 23.2506C104.515 22.9389 104.746 22.7003 105.043 22.5347C105.345 22.3643 105.691 22.2791 106.081 22.2791C106.46 22.2791 106.796 22.3619 107.089 22.5274C107.381 22.693 107.605 22.9219 107.761 23.214C107.921 23.5013 108.002 23.8276 108.002 24.1928ZM107.315 24.054C107.315 23.8008 107.259 23.5841 107.147 23.4039C107.035 23.2189 106.881 23.0801 106.687 22.9876C106.497 22.8902 106.285 22.8415 106.051 22.8415C105.715 22.8415 105.428 22.9487 105.189 23.1629C104.956 23.3772 104.822 23.6742 104.788 24.054H107.315ZM110.829 22.2718C111.316 22.2718 111.711 22.4203 112.013 22.7173C112.314 23.0095 112.465 23.4332 112.465 23.9883V26.3476H111.808V24.0833C111.808 23.6839 111.708 23.3796 111.509 23.1702C111.309 22.956 111.036 22.8488 110.69 22.8488C110.34 22.8488 110.06 22.9584 109.85 23.1775C109.646 23.3966 109.544 23.7156 109.544 24.1344V26.3476H108.879V22.3448H109.544V22.9146C109.675 22.71 109.853 22.5518 110.077 22.4398C110.306 22.3278 110.557 22.2718 110.829 22.2718ZM113.303 24.3316C113.303 23.9226 113.385 23.5646 113.551 23.2579C113.717 22.9462 113.943 22.7052 114.23 22.5347C114.523 22.3643 114.849 22.2791 115.209 22.2791C115.521 22.2791 115.811 22.3521 116.078 22.4982C116.346 22.6394 116.551 22.8269 116.692 23.0606V20.9424H117.364V26.3476H116.692V25.5953C116.561 25.8339 116.366 26.0311 116.108 26.1869C115.85 26.3379 115.548 26.4133 115.202 26.4133C114.846 26.4133 114.523 26.3257 114.23 26.1504C113.943 25.9751 113.717 25.7292 113.551 25.4126C113.385 25.0961 113.303 24.7358 113.303 24.3316ZM116.692 24.3389C116.692 24.037 116.631 23.774 116.509 23.55C116.388 23.326 116.222 23.1556 116.013 23.0387C115.808 22.917 115.582 22.8561 115.333 22.8561C115.085 22.8561 114.859 22.9146 114.654 23.0314C114.45 23.1483 114.287 23.3187 114.165 23.5427C114.043 23.7667 113.982 24.0297 113.982 24.3316C113.982 24.6384 114.043 24.9062 114.165 25.1351C114.287 25.3591 114.45 25.5319 114.654 25.6537C114.859 25.7706 115.085 25.829 115.333 25.829C115.582 25.829 115.808 25.7706 116.013 25.6537C116.222 25.5319 116.388 25.3591 116.509 25.1351C116.631 24.9062 116.692 24.6408 116.692 24.3389ZM123.313 21.2565V21.797H121.099V23.5135H122.896V24.054H121.099V26.3476H120.435V21.2565H123.313ZM125.861 26.4133C125.486 26.4133 125.145 26.328 124.838 26.1577C124.537 25.9873 124.298 25.7462 124.123 25.4346C123.952 25.118 123.867 24.7528 123.867 24.3389C123.867 23.9299 123.955 23.5695 124.13 23.2579C124.31 22.9413 124.554 22.7003 124.86 22.5347C125.167 22.3643 125.51 22.2791 125.89 22.2791C126.27 22.2791 126.613 22.3643 126.92 22.5347C127.227 22.7003 127.468 22.9389 127.643 23.2506C127.824 23.5622 127.914 23.925 127.914 24.3389C127.914 24.7528 127.821 25.118 127.636 25.4346C127.456 25.7462 127.21 25.9873 126.898 26.1577C126.587 26.328 126.241 26.4133 125.861 26.4133ZM125.861 25.829C126.1 25.829 126.324 25.773 126.533 25.661C126.743 25.549 126.911 25.381 127.037 25.157C127.169 24.933 127.234 24.6603 127.234 24.3389C127.234 24.0175 127.171 23.7448 127.044 23.5208C126.918 23.2968 126.752 23.1313 126.548 23.0241C126.343 22.9121 126.122 22.8561 125.883 22.8561C125.64 22.8561 125.415 22.9121 125.211 23.0241C125.011 23.1313 124.851 23.2968 124.729 23.5208C124.607 23.7448 124.546 24.0175 124.546 24.3389C124.546 24.6652 124.605 24.9403 124.722 25.1643C124.843 25.3883 125.004 25.5563 125.204 25.6683C125.403 25.7754 125.623 25.829 125.861 25.829ZM129.452 22.9949C129.569 22.766 129.735 22.5883 129.949 22.4617C130.168 22.3351 130.434 22.2718 130.745 22.2718V22.9584H130.57C129.825 22.9584 129.452 23.3625 129.452 24.1709V26.3476H128.788V22.3448H129.452V22.9949ZM137.382 21.2565V26.3476H136.718V24.0394H134.125V26.3476H133.46V21.2565H134.125V23.4916H136.718V21.2565H137.382ZM142.169 24.1928C142.169 24.3194 142.162 24.4533 142.147 24.5946H138.948C138.973 24.989 139.106 25.2982 139.35 25.5222C139.598 25.7413 139.898 25.8509 140.248 25.8509C140.536 25.8509 140.774 25.7852 140.964 25.6537C141.159 25.5173 141.295 25.3372 141.373 25.1132H142.089C141.982 25.4979 141.768 25.812 141.446 26.0554C141.125 26.2941 140.726 26.4133 140.248 26.4133C139.868 26.4133 139.528 26.328 139.226 26.1577C138.929 25.9873 138.695 25.7462 138.524 25.4346C138.354 25.118 138.269 24.7528 138.269 24.3389C138.269 23.925 138.352 23.5622 138.517 23.2506C138.683 22.9389 138.914 22.7003 139.211 22.5347C139.513 22.3643 139.859 22.2791 140.248 22.2791C140.628 22.2791 140.964 22.3619 141.256 22.5274C141.548 22.693 141.773 22.9219 141.928 23.214C142.089 23.5013 142.169 23.8276 142.169 24.1928ZM141.483 24.054C141.483 23.8008 141.427 23.5841 141.315 23.4039C141.203 23.2189 141.049 23.0801 140.855 22.9876C140.665 22.8902 140.453 22.8415 140.219 22.8415C139.883 22.8415 139.596 22.9487 139.357 23.1629C139.123 23.3772 138.99 23.6742 138.955 24.054H141.483ZM142.799 24.3316C142.799 23.9226 142.881 23.5646 143.047 23.2579C143.212 22.9462 143.439 22.7052 143.726 22.5347C144.018 22.3643 144.342 22.2791 144.698 22.2791C145.048 22.2791 145.352 22.3545 145.611 22.5055C145.869 22.6565 146.061 22.8464 146.188 23.0753V22.3448H146.86V26.3476H146.188V25.6026C146.056 25.8363 145.859 26.0311 145.596 26.1869C145.338 26.3379 145.036 26.4133 144.69 26.4133C144.335 26.4133 144.013 26.3257 143.726 26.1504C143.439 25.9751 143.212 25.7292 143.047 25.4126C142.881 25.0961 142.799 24.7358 142.799 24.3316ZM146.188 24.3389C146.188 24.037 146.127 23.774 146.005 23.55C145.883 23.326 145.718 23.1556 145.508 23.0387C145.304 22.917 145.078 22.8561 144.829 22.8561C144.581 22.8561 144.354 22.9146 144.15 23.0314C143.945 23.1483 143.782 23.3187 143.66 23.5427C143.539 23.7667 143.478 24.0297 143.478 24.3316C143.478 24.6384 143.539 24.9062 143.66 25.1351C143.782 25.3591 143.945 25.5319 144.15 25.6537C144.354 25.7706 144.581 25.829 144.829 25.829C145.078 25.829 145.304 25.7706 145.508 25.6537C145.718 25.5319 145.883 25.3591 146.005 25.1351C146.127 24.9062 146.188 24.6408 146.188 24.3389ZM148.647 20.9424V26.3476H147.983V20.9424H148.647ZM150.591 22.8926V25.2519C150.591 25.4467 150.633 25.5855 150.715 25.6683C150.798 25.7462 150.942 25.7852 151.146 25.7852H151.636V26.3476H151.037C150.667 26.3476 150.389 26.2623 150.204 26.0919C150.019 25.9215 149.927 25.6415 149.927 25.2519V22.8926H149.408V22.3448H149.927V21.3368H150.591V22.3448H151.636V22.8926H150.591ZM154.428 22.2718C154.73 22.2718 155.003 22.3375 155.246 22.469C155.49 22.5956 155.68 22.788 155.816 23.046C155.957 23.3041 156.028 23.6182 156.028 23.9883V26.3476H155.37V24.0833C155.37 23.6839 155.27 23.3796 155.071 23.1702C154.871 22.956 154.598 22.8488 154.253 22.8488C153.902 22.8488 153.622 22.9584 153.413 23.1775C153.208 23.3966 153.106 23.7156 153.106 24.1344V26.3476H152.441V20.9424H153.106V22.9146C153.237 22.71 153.417 22.5518 153.646 22.4398C153.88 22.3278 154.141 22.2718 154.428 22.2718ZM159.889 23.3893V23.9518H156.974V23.3893H159.889ZM164.27 21.2565V21.797H162.882V26.3476H162.217V21.797H160.822V21.2565H164.27ZM168.74 24.1928C168.74 24.3194 168.733 24.4533 168.719 24.5946H165.519C165.543 24.989 165.677 25.2982 165.921 25.5222C166.169 25.7413 166.469 25.8509 166.819 25.8509C167.107 25.8509 167.345 25.7852 167.535 25.6537C167.73 25.5173 167.866 25.3372 167.944 25.1132H168.66C168.553 25.4979 168.339 25.812 168.017 26.0554C167.696 26.2941 167.297 26.4133 166.819 26.4133C166.44 26.4133 166.099 26.328 165.797 26.1577C165.5 25.9873 165.266 25.7462 165.096 25.4346C164.925 25.118 164.84 24.7528 164.84 24.3389C164.84 23.925 164.923 23.5622 165.088 23.2506C165.254 22.9389 165.485 22.7003 165.782 22.5347C166.084 22.3643 166.43 22.2791 166.819 22.2791C167.199 22.2791 167.535 22.3619 167.827 22.5274C168.12 22.693 168.343 22.9219 168.499 23.214C168.66 23.5013 168.74 23.8276 168.74 24.1928ZM168.054 24.054C168.054 23.8008 167.998 23.5841 167.886 23.4039C167.774 23.2189 167.62 23.0801 167.426 22.9876C167.236 22.8902 167.024 22.8415 166.79 22.8415C166.454 22.8415 166.167 22.9487 165.928 23.1629C165.695 23.3772 165.56 23.6742 165.527 24.054H168.054ZM169.369 24.3389C169.369 23.925 169.452 23.5646 169.618 23.2579C169.783 22.9462 170.012 22.7052 170.304 22.5347C170.601 22.3643 170.94 22.2791 171.32 22.2791C171.811 22.2791 172.216 22.3984 172.532 22.637C172.854 22.8756 173.065 23.2067 173.168 23.6304H172.452C172.384 23.3869 172.25 23.1945 172.05 23.0533C171.855 22.9121 171.612 22.8415 171.32 22.8415C170.94 22.8415 170.633 22.973 170.399 23.2359C170.166 23.494 170.049 23.8617 170.049 24.3389C170.049 24.821 170.166 25.1935 170.399 25.4565C170.633 25.7194 170.94 25.8509 171.32 25.8509C171.612 25.8509 171.855 25.7827 172.05 25.6464C172.245 25.51 172.379 25.3153 172.452 25.062H173.168C173.06 25.4711 172.846 25.7998 172.525 26.0481C172.204 26.2915 171.802 26.4133 171.32 26.4133C170.94 26.4133 170.601 26.328 170.304 26.1577C170.012 25.9873 169.783 25.7462 169.618 25.4346C169.452 25.1229 169.369 24.7577 169.369 24.3389ZM176.041 22.2718C176.343 22.2718 176.616 22.3375 176.859 22.469C177.103 22.5956 177.293 22.788 177.429 23.046C177.57 23.3041 177.641 23.6182 177.641 23.9883V26.3476H176.984V24.0833C176.984 23.6839 176.884 23.3796 176.684 23.1702C176.484 22.956 176.212 22.8488 175.866 22.8488C175.516 22.8488 175.235 22.9584 175.026 23.1775C174.822 23.3966 174.719 23.7156 174.719 24.1344V26.3476H174.055V20.9424H174.719V22.9146C174.851 22.71 175.031 22.5518 175.26 22.4398C175.494 22.3278 175.754 22.2718 176.041 22.2718ZM178.939 26.3914C178.812 26.3914 178.705 26.3476 178.617 26.2599C178.53 26.1723 178.486 26.0652 178.486 25.9386C178.486 25.812 178.53 25.7048 178.617 25.6172C178.705 25.5295 178.812 25.4857 178.939 25.4857C179.06 25.4857 179.163 25.5295 179.245 25.6172C179.333 25.7048 179.377 25.812 179.377 25.9386C179.377 26.0652 179.333 26.1723 179.245 26.2599C179.163 26.3476 179.06 26.3914 178.939 26.3914Z" fill="#00B1FF"/>
<path d="M44.5742 9.21291C44.5742 8.05987 44.8398 7.02552 45.3712 6.10987C45.9138 5.19422 46.6429 4.48204 47.5586 3.97335C48.4854 3.45336 49.4973 3.19335 50.5938 3.19335C51.8486 3.19335 52.962 3.50423 53.9342 4.12596C54.9177 4.73639 55.6299 5.60684 56.0707 6.73726H53.7477C53.4425 6.11553 53.0186 5.65205 52.476 5.34683C51.9334 5.04161 51.306 4.889 50.5938 4.889C49.8138 4.889 49.1186 5.06423 48.5081 5.41465C47.8977 5.76508 47.4172 6.26814 47.0668 6.92378C46.7277 7.57943 46.5581 8.34247 46.5581 9.21291C46.5581 10.0834 46.7277 10.8464 47.0668 11.502C47.4172 12.1577 47.8977 12.6664 48.5081 13.0281C49.1186 13.3786 49.8138 13.5538 50.5938 13.5538C51.306 13.5538 51.9334 13.4012 52.476 13.096C53.0186 12.7907 53.4425 12.3273 53.7477 11.7055H56.0707C55.6299 12.8359 54.9177 13.7064 53.9342 14.3168C52.962 14.9273 51.8486 15.2325 50.5938 15.2325C49.4859 15.2325 48.4742 14.9781 47.5586 14.4694C46.6429 13.9494 45.9138 13.2316 45.3712 12.316C44.8398 11.4003 44.5742 10.366 44.5742 9.21291ZM57.6889 10.4168C57.6889 9.47856 57.8812 8.64769 58.2654 7.92422C58.6612 7.20075 59.1926 6.64118 59.8593 6.24552C60.5376 5.83857 61.2837 5.63509 62.0976 5.63509C62.8325 5.63509 63.4711 5.78204 64.0137 6.07596C64.5678 6.35856 65.0087 6.71465 65.3363 7.14422V5.7877H67.2863V15.1307H65.3363V13.7403C65.0087 14.1812 64.562 14.5486 63.9967 14.8425C63.4317 15.1364 62.7873 15.2833 62.0637 15.2833C61.2613 15.2833 60.5264 15.0799 59.8593 14.6729C59.1926 14.2547 58.6612 13.6781 58.2654 12.9433C57.8812 12.1973 57.6889 11.3551 57.6889 10.4168ZM65.3363 10.4507C65.3363 9.80639 65.2007 9.24683 64.9293 8.77204C64.6695 8.29726 64.3247 7.93551 63.895 7.68683C63.4656 7.43814 63.002 7.31378 62.5046 7.31378C62.0073 7.31378 61.5438 7.43814 61.1141 7.68683C60.6847 7.92422 60.3341 8.28031 60.0628 8.75509C59.803 9.21858 59.6728 9.77248 59.6728 10.4168C59.6728 11.0612 59.803 11.6264 60.0628 12.1125C60.3341 12.5986 60.6847 12.9716 61.1141 13.2316C61.555 13.4803 62.0186 13.6047 62.5046 13.6047C63.002 13.6047 63.4656 13.4803 63.895 13.2316C64.3247 12.9829 64.6695 12.6212 64.9293 12.1464C65.2007 11.6603 65.3363 11.0951 65.3363 10.4507ZM71.7584 7.14422C72.0409 6.66944 72.414 6.30205 72.8775 6.04204C73.3523 5.77074 73.9119 5.63509 74.5562 5.63509V7.63596H74.0645C73.3072 7.63596 72.7307 7.82814 72.3349 8.21248C71.9507 8.59682 71.7584 9.26378 71.7584 10.2133V15.1307H69.8253V5.7877H71.7584V7.14422ZM75.6887 10.4168C75.6887 9.47856 75.8809 8.64769 76.2652 7.92422C76.6609 7.20075 77.1923 6.64118 77.8591 6.24552C78.5374 5.83857 79.2892 5.63509 80.1143 5.63509C80.7247 5.63509 81.324 5.77074 81.9117 6.04204C82.5109 6.30205 82.9857 6.65248 83.336 7.09335V2.58291H85.286V15.1307H83.336V13.7233C83.0196 14.1755 82.5787 14.5486 82.0134 14.8425C81.4596 15.1364 80.821 15.2833 80.0973 15.2833C79.2834 15.2833 78.5374 15.0799 77.8591 14.6729C77.1923 14.2547 76.6609 13.6781 76.2652 12.9433C75.8809 12.1973 75.6887 11.3551 75.6887 10.4168ZM83.336 10.4507C83.336 9.80639 83.2004 9.24683 82.9291 8.77204C82.6693 8.29726 82.3244 7.93551 81.8947 7.68683C81.4654 7.43814 81.0018 7.31378 80.5043 7.31378C80.0071 7.31378 79.5435 7.43814 79.1139 7.68683C78.6845 7.92422 78.3339 8.28031 78.0626 8.75509C77.8027 9.21858 77.6726 9.77248 77.6726 10.4168C77.6726 11.0612 77.8027 11.6264 78.0626 12.1125C78.3339 12.5986 78.6845 12.9716 79.1139 13.2316C79.5547 13.4803 80.0183 13.6047 80.5043 13.6047C81.0018 13.6047 81.4654 13.4803 81.8947 13.2316C82.3244 12.9829 82.6693 12.6212 82.9291 12.1464C83.2004 11.6603 83.336 11.0951 83.336 10.4507ZM88.8086 4.54987C88.4582 4.54987 88.1642 4.43118 87.9268 4.19378C87.6894 3.95639 87.5707 3.66247 87.5707 3.31204C87.5707 2.96162 87.6894 2.6677 87.9268 2.43031C88.1642 2.19291 88.4582 2.07422 88.8086 2.07422C89.1477 2.07422 89.436 2.19291 89.6734 2.43031C89.9107 2.6677 90.0294 2.96162 90.0294 3.31204C90.0294 3.66247 89.9107 3.95639 89.6734 4.19378C89.436 4.43118 89.1477 4.54987 88.8086 4.54987ZM89.7581 5.7877V15.1307H87.8251V5.7877H89.7581ZM97.01 5.63509C97.7447 5.63509 98.4005 5.7877 98.977 6.09291C99.5647 6.39813 100.023 6.8503 100.35 7.44944C100.678 8.04858 100.842 8.77204 100.842 9.61987V15.1307H98.9261V9.90813C98.9261 9.0716 98.7169 8.43291 98.2987 7.99205C97.8803 7.53988 97.3095 7.31378 96.5861 7.31378C95.8625 7.31378 95.286 7.53988 94.8566 7.99205C94.4381 8.43291 94.2292 9.0716 94.2292 9.90813V15.1307H92.2961V5.7877H94.2292V6.85596C94.5456 6.47162 94.9468 6.17204 95.4331 5.95726C95.9303 5.74249 96.456 5.63509 97.01 5.63509ZM102.664 10.4168C102.664 9.47856 102.856 8.64769 103.24 7.92422C103.636 7.20075 104.167 6.64118 104.834 6.24552C105.512 5.83857 106.258 5.63509 107.072 5.63509C107.807 5.63509 108.446 5.78204 108.988 6.07596C109.542 6.35856 109.983 6.71465 110.311 7.14422V5.7877H112.261V15.1307H110.311V13.7403C109.983 14.1812 109.536 14.5486 108.971 14.8425C108.406 15.1364 107.762 15.2833 107.038 15.2833C106.236 15.2833 105.501 15.0799 104.834 14.6729C104.167 14.2547 103.636 13.6781 103.24 12.9433C102.856 12.1973 102.664 11.3551 102.664 10.4168ZM110.311 10.4507C110.311 9.80639 110.175 9.24683 109.904 8.77204C109.644 8.29726 109.299 7.93551 108.87 7.68683C108.44 7.43814 107.976 7.31378 107.479 7.31378C106.982 7.31378 106.518 7.43814 106.089 7.68683C105.659 7.92422 105.309 8.28031 105.038 8.75509C104.777 9.21858 104.648 9.77248 104.648 10.4168C104.648 11.0612 104.777 11.6264 105.038 12.1125C105.309 12.5986 105.659 12.9716 106.089 13.2316C106.53 13.4803 106.993 13.6047 107.479 13.6047C107.976 13.6047 108.44 13.4803 108.87 13.2316C109.299 12.9829 109.644 12.6212 109.904 12.1464C110.175 11.6603 110.311 11.0951 110.311 10.4507ZM116.733 2.58291V15.1307H114.8V2.58291H116.733Z" fill="#00B1FF"/>
</g>
<defs>
<clipPath id="clip0_442_1516">
<rect width="180" height="40.9565" fill="white"/>
</clipPath>
</defs>
</svg>
