<svg width="131" height="36" viewBox="0 0 131 36" fill="none" xmlns="http://www.w3.org/2000/svg">
    <g clip-path="url(#clip0_727_4101)">
        <mask id="mask0_727_4101" style="mask-type:luminance" maskUnits="userSpaceOnUse" x="0" y="0" width="35" height="36">
            <path d="M35 0.5H0V35.5H35V0.5Z" fill="white"/>
        </mask>
        <g mask="url(#mask0_727_4101)">
            <mask id="mask1_727_4101" style="mask-type:luminance" maskUnits="userSpaceOnUse" x="0" y="0" width="35" height="36">
                <path d="M35 0.5H0V35.5H35V0.5Z" fill="white"/>
            </mask>
            <g mask="url(#mask1_727_4101)">
                <path d="M30.0974 0.5H4.8125C2.15463 0.5 0 2.65463 0 5.3125V30.6009C0 33.2588 2.15463 35.4134 4.8125 35.4134H30.0974C32.7552 35.4134 34.9099 33.2588 34.9099 30.6009V5.3125C34.9099 2.65463 32.7552 0.5 30.0974 0.5Z" fill="#EF762F"/>
                <path fill-rule="evenodd" clip-rule="evenodd" d="M30.5279 4.88561V13.8327C30.4825 15.7608 30.6772 17.4049 30.26 18.6885C29.5855 20.7653 28.513 21.8601 26.9338 23.3915C25.646 24.6399 24.3783 25.9086 23.1103 27.1768C22.1064 28.1805 20.9951 29.3423 20.0131 30.3119C19.6789 30.642 19.4776 30.8172 19.2484 31.0384V20.6385C19.2634 20.3763 19.2756 20.2321 19.3249 20.0267C19.4116 19.6656 19.4671 19.2964 19.5926 18.956C19.987 17.8855 20.4692 17.0665 21.0838 16.2414C21.5935 15.7445 22.0652 15.2471 22.575 14.7502C23.0307 14.2491 23.473 13.8523 23.913 13.412C24.5631 12.7495 25.2132 12.0865 25.8632 11.4239C27.1702 10.1169 28.1119 9.36426 28.272 7.17978C26.888 7.14989 25.9617 7.69896 25.2132 8.32673C25.0159 8.49236 24.7967 8.75456 24.6014 8.93848C24.4949 9.0388 24.3827 9.16003 24.372 9.16786C24.3103 9.21288 24.0413 9.50001 23.9513 9.58852C23.5914 9.9432 23.3668 10.1371 22.9573 10.5826C22.7915 10.7355 22.5876 10.9649 22.4218 11.1178C22.0436 11.4964 21.6926 11.8646 21.3133 12.2267C21.122 12.4307 20.8925 12.6346 20.7013 12.8384C20.0363 13.5034 19.3746 14.2417 18.5984 14.7886C17.7174 15.409 16.7135 15.8319 15.5015 16.0885C14.6873 16.2608 12.9743 16.2033 11.7544 16.2033H4.375C4.94012 15.662 7.67012 12.908 8.08364 12.4944C9.43486 11.1435 10.7856 9.79226 12.1368 8.44157C13.4349 7.1432 14.6006 5.87051 16.5719 5.22979C17.953 4.78082 19.911 4.88561 21.7336 4.88561H30.5279Z" fill="#FCFEFF"/>
            </g>
        </g>
    </g>
    <path d="M43.74 18.02C43.74 16.66 44.0533 15.44 44.68 14.36C45.32 13.28 46.18 12.44 47.26 11.84C48.3533 11.2267 49.5467 10.92 50.84 10.92C52.32 10.92 53.6333 11.2867 54.78 12.02C55.94 12.74 56.78 13.7667 57.3 15.1H54.56C54.2 14.3667 53.7 13.82 53.06 13.46C52.42 13.1 51.68 12.92 50.84 12.92C49.92 12.92 49.1 13.1267 48.38 13.54C47.66 13.9533 47.0933 14.5467 46.68 15.32C46.28 16.0933 46.08 16.9933 46.08 18.02C46.08 19.0467 46.28 19.9467 46.68 20.72C47.0933 21.4933 47.66 22.0933 48.38 22.52C49.1 22.9333 49.92 23.14 50.84 23.14C51.68 23.14 52.42 22.96 53.06 22.6C53.7 22.24 54.2 21.6933 54.56 20.96H57.3C56.78 22.2933 55.94 23.32 54.78 24.04C53.6333 24.76 52.32 25.12 50.84 25.12C49.5333 25.12 48.34 24.82 47.26 24.22C46.18 23.6067 45.32 22.76 44.68 21.68C44.0533 20.6 43.74 19.38 43.74 18.02ZM59.2088 19.44C59.2088 18.3333 59.4354 17.3533 59.8888 16.5C60.3554 15.6467 60.9821 14.9867 61.7688 14.52C62.5688 14.04 63.4488 13.8 64.4088 13.8C65.2754 13.8 66.0288 13.9733 66.6688 14.32C67.3221 14.6533 67.8421 15.0733 68.2288 15.58V13.98H70.5288V25H68.2288V23.36C67.8421 23.88 67.3154 24.3133 66.6488 24.66C65.9821 25.0067 65.2221 25.18 64.3688 25.18C63.4221 25.18 62.5554 24.94 61.7688 24.46C60.9821 23.9667 60.3554 23.2867 59.8888 22.42C59.4354 21.54 59.2088 20.5467 59.2088 19.44ZM68.2288 19.48C68.2288 18.72 68.0688 18.06 67.7488 17.5C67.4421 16.94 67.0354 16.5133 66.5288 16.22C66.0221 15.9267 65.4754 15.78 64.8888 15.78C64.3021 15.78 63.7554 15.9267 63.2488 16.22C62.7421 16.5 62.3288 16.92 62.0088 17.48C61.7021 18.0267 61.5488 18.68 61.5488 19.44C61.5488 20.2 61.7021 20.8667 62.0088 21.44C62.3288 22.0133 62.7421 22.4533 63.2488 22.76C63.7688 23.0533 64.3154 23.2 64.8888 23.2C65.4754 23.2 66.0221 23.0533 66.5288 22.76C67.0354 22.4667 67.4421 22.04 67.7488 21.48C68.0688 20.9067 68.2288 20.24 68.2288 19.48ZM75.8034 15.58C76.1368 15.02 76.5768 14.5867 77.1234 14.28C77.6834 13.96 78.3434 13.8 79.1034 13.8V16.16H78.5234C77.6301 16.16 76.9501 16.3867 76.4834 16.84C76.0301 17.2933 75.8034 18.08 75.8034 19.2V25H73.5234V13.98H75.8034V15.58ZM80.4392 19.44C80.4392 18.3333 80.6659 17.3533 81.1192 16.5C81.5859 15.6467 82.2126 14.9867 82.9992 14.52C83.7992 14.04 84.6859 13.8 85.6592 13.8C86.3792 13.8 87.0859 13.96 87.7792 14.28C88.4859 14.5867 89.0459 15 89.4592 15.52V10.2H91.7592V25H89.4592V23.34C89.0859 23.8733 88.5659 24.3133 87.8992 24.66C87.2459 25.0067 86.4926 25.18 85.6392 25.18C84.6792 25.18 83.7992 24.94 82.9992 24.46C82.2126 23.9667 81.5859 23.2867 81.1192 22.42C80.6659 21.54 80.4392 20.5467 80.4392 19.44ZM89.4592 19.48C89.4592 18.72 89.2992 18.06 88.9792 17.5C88.6726 16.94 88.2659 16.5133 87.7592 16.22C87.2526 15.9267 86.7059 15.78 86.1192 15.78C85.5326 15.78 84.9859 15.9267 84.4792 16.22C83.9726 16.5 83.5592 16.92 83.2392 17.48C82.9326 18.0267 82.7792 18.68 82.7792 19.44C82.7792 20.2 82.9326 20.8667 83.2392 21.44C83.5592 22.0133 83.9726 22.4533 84.4792 22.76C84.9992 23.0533 85.5459 23.2 86.1192 23.2C86.7059 23.2 87.2526 23.0533 87.7592 22.76C88.2659 22.4667 88.6726 22.04 88.9792 21.48C89.2992 20.9067 89.4592 20.24 89.4592 19.48ZM95.9139 12.52C95.5006 12.52 95.1539 12.38 94.8739 12.1C94.5939 11.82 94.4539 11.4733 94.4539 11.06C94.4539 10.6467 94.5939 10.3 94.8739 10.02C95.1539 9.74 95.5006 9.6 95.9139 9.6C96.3139 9.6 96.6539 9.74 96.9339 10.02C97.2139 10.3 97.3539 10.6467 97.3539 11.06C97.3539 11.4733 97.2139 11.82 96.9339 12.1C96.6539 12.38 96.3139 12.52 95.9139 12.52ZM97.0339 13.98V25H94.7539V13.98H97.0339ZM105.587 13.8C106.454 13.8 107.227 13.98 107.907 14.34C108.601 14.7 109.141 15.2333 109.527 15.94C109.914 16.6467 110.107 17.5 110.107 18.5V25H107.847V18.84C107.847 17.8533 107.601 17.1 107.107 16.58C106.614 16.0467 105.941 15.78 105.087 15.78C104.234 15.78 103.554 16.0467 103.047 16.58C102.554 17.1 102.307 17.8533 102.307 18.84V25H100.027V13.98H102.307V15.24C102.681 14.7867 103.154 14.4333 103.727 14.18C104.314 13.9267 104.934 13.8 105.587 13.8ZM112.256 19.44C112.256 18.3333 112.482 17.3533 112.936 16.5C113.402 15.6467 114.029 14.9867 114.816 14.52C115.616 14.04 116.496 13.8 117.456 13.8C118.322 13.8 119.076 13.9733 119.716 14.32C120.369 14.6533 120.889 15.0733 121.276 15.58V13.98H123.576V25H121.276V23.36C120.889 23.88 120.362 24.3133 119.696 24.66C119.029 25.0067 118.269 25.18 117.416 25.18C116.469 25.18 115.602 24.94 114.816 24.46C114.029 23.9667 113.402 23.2867 112.936 22.42C112.482 21.54 112.256 20.5467 112.256 19.44ZM121.276 19.48C121.276 18.72 121.116 18.06 120.796 17.5C120.489 16.94 120.082 16.5133 119.576 16.22C119.069 15.9267 118.522 15.78 117.936 15.78C117.349 15.78 116.802 15.9267 116.296 16.22C115.789 16.5 115.376 16.92 115.056 17.48C114.749 18.0267 114.596 18.68 114.596 19.44C114.596 20.2 114.749 20.8667 115.056 21.44C115.376 22.0133 115.789 22.4533 116.296 22.76C116.816 23.0533 117.362 23.2 117.936 23.2C118.522 23.2 119.069 23.0533 119.576 22.76C120.082 22.4667 120.489 22.04 120.796 21.48C121.116 20.9067 121.276 20.24 121.276 19.48ZM128.85 10.2V25H126.57V10.2H128.85Z" fill="#EF762F"/>
    <defs>
        <clipPath id="clip0_727_4101">
            <rect width="35" height="35" fill="white" transform="translate(0 0.5)"/>
        </clipPath>
    </defs>
</svg>
