<svg width="100" height="47" viewBox="0 0 100 47" fill="none" xmlns="http://www.w3.org/2000/svg">
<path d="M54.6689 37.0732V39.1987H60.3832V17.8049H54.6341V29.4774C54.6341 30.9757 54.216 32.1603 53.3449 32.9966C52.4738 33.8328 51.3588 34.2509 49.9302 34.2509C48.6759 34.2509 47.7003 33.8676 47.0034 33.0663C46.3065 32.2649 45.9581 31.2544 45.9581 29.9652V17.8049H40.209V30.9408C40.209 32.2649 40.418 33.4147 40.8013 34.4948C41.1846 35.5401 41.7421 36.446 42.4738 37.2126C43.2055 37.9791 44.0766 38.5366 45.087 38.9548C46.0975 39.3729 47.2473 39.5819 48.5017 39.5819C49.7909 39.5819 50.9755 39.3729 52.0557 38.9199C53.0661 38.467 53.9372 37.8746 54.6689 37.0732Z" fill="white"/>
<path d="M70.2439 20.7317V17.8049H64.46V39.1986H70.3136V29.4425C70.3136 27.5958 70.8014 26.0976 71.777 24.9826C72.7526 23.9024 74.3206 23.3449 76.4809 23.3449V17.5261C75.1568 17.5261 73.9722 17.8049 72.9269 18.3972C71.8467 18.9895 70.9756 19.7561 70.2439 20.7317Z" fill="white"/>
<path fillRule="evenodd" clipRule="evenodd" d="M96.7248 20.7665C97.6308 21.7421 98.3625 22.8919 98.8503 24.216C99.3381 25.54 99.582 27.0034 99.582 28.5017C99.582 28.9198 99.582 29.3379 99.5471 29.7909C99.5123 30.2439 99.5123 30.4878 99.5123 30.5574L83.1708 30.5226C83.4844 31.8815 84.1464 32.9616 85.122 33.763C86.0977 34.5644 87.352 34.9825 88.8503 34.9825C90.1395 34.9825 91.2545 34.7386 92.1952 34.216C93.136 33.6933 93.9025 33.0313 94.5297 32.1602L98.8503 34.8432C97.7701 36.4459 96.4112 37.6655 94.7736 38.5714C93.136 39.4773 91.1151 39.9303 88.7109 39.9303C87.0036 39.9303 85.4356 39.6167 84.0768 39.0592C82.683 38.5017 81.4984 37.7003 80.5227 36.7247C79.5471 35.7491 78.7806 34.5644 78.2579 33.2055C77.7004 31.8466 77.4565 30.3484 77.4565 28.7804C77.4914 27.2822 77.7353 25.8188 78.2928 24.4599C78.8503 23.101 79.6168 21.9163 80.6273 20.9059C81.6377 19.8954 82.8224 19.094 84.2161 18.5017C85.6099 17.9094 87.143 17.6306 88.8154 17.6306C90.4879 17.6306 92.021 17.9094 93.345 18.4669C94.6691 19.0243 95.7841 19.7909 96.7248 20.7665ZM85.3311 23.4146C84.4252 24.1115 83.7632 25.0522 83.3799 26.2717L93.798 26.3066C93.4844 24.9825 92.8572 24.0069 91.9165 23.3797C90.9757 22.7177 89.9304 22.4041 88.7457 22.4041C87.352 22.4041 86.237 22.7177 85.3311 23.4146Z" fill="white"/>
<rect y="18.5017" width="5.78397" height="21.3937" fill="white"/>
<path d="M32.7875 22.0557L37.9443 18.5017C36.2718 14.5645 33.5541 12.8571 31.4635 11.8118C29.6516 10.9059 27.6307 10.3136 25.4008 10.1394V7.35192C26.8293 6.82927 27.8398 5.43554 27.8398 3.79791C27.8398 1.70732 26.1325 0 24.0419 0C21.9513 0 20.2788 1.74216 20.2788 3.83275C20.2788 5.47038 21.2893 6.82927 22.7178 7.38676V10.1394C21.0105 10.2439 19.4077 10.6272 17.8746 11.2544C16.0279 12.0209 14.3903 13.0662 13.0663 14.3902C11.7074 15.7143 10.6621 17.2822 9.86069 19.0941C9.09414 20.8711 8.67603 22.8223 8.67603 24.9129C8.67603 27.0035 9.0593 28.9547 9.86069 30.7666C10.6621 32.5784 11.7074 34.1812 13.1011 35.5052C14.4948 36.8641 16.0976 37.9094 17.9792 38.676C19.8607 39.4425 21.8816 39.8258 24.0767 39.8258C27.0036 39.8258 29.5123 39.1986 31.6029 37.9443C33.6934 36.6899 35.4356 34.9129 36.8293 32.6829L31.8468 29.1289C31.0454 30.5575 29.9652 31.6725 28.6412 32.5087C27.3171 33.3449 25.784 33.7631 24.0419 33.7631C22.7875 33.7631 21.6377 33.5192 20.5576 33.0662C19.4774 32.6132 18.5715 31.9861 17.7701 31.1847C17.0036 30.3833 16.3764 29.4425 15.9583 28.3624C15.5401 27.2822 15.2962 26.0976 15.2962 24.8432C15.2962 23.6237 15.5053 22.4739 15.9583 21.3937C16.3764 20.3136 17.0036 19.4077 17.7353 18.6063C18.5018 17.8049 19.4077 17.1777 20.4182 16.7247C21.4635 16.2718 22.5785 16.0279 23.798 16.0279C25.6447 16.0279 27.1778 16.446 28.4321 17.3171C29.7562 18.223 31.9513 20.662 32.7875 22.0557Z" fill="#08928F"/>
<path fillRule="evenodd" clipRule="evenodd" d="M27.3868 25.0174C25.9931 25.0174 24.8433 23.8676 24.8433 22.439C24.8433 21.0104 25.9931 19.8606 27.3868 19.8606C28.7805 19.8606 29.9304 21.0104 29.9304 22.439C29.9304 23.8676 28.7805 25.0174 27.3868 25.0174ZM29.0244 21.0453C29.0244 20.662 28.7457 20.3832 28.3624 20.3832C27.9792 20.3832 27.7004 20.662 27.7004 21.0453C27.7004 21.4285 28.014 21.7073 28.3624 21.7073C28.7109 21.7073 29.0244 21.4285 29.0244 21.0453Z" fill="#08928F"/>
<path fillRule="evenodd" clipRule="evenodd" d="M21.0453 25.0174C19.6515 25.0174 18.5017 23.8676 18.5017 22.439C18.5017 21.0104 19.6515 19.8606 21.0453 19.8606C22.439 19.8606 23.5888 21.0104 23.5888 22.439C23.5888 23.8676 22.439 25.0174 21.0453 25.0174ZM22.3693 21.0453C22.3693 20.662 22.0906 20.3832 21.7073 20.3832C21.3589 20.3832 21.0453 20.662 21.0453 21.0453C21.0453 21.4285 21.3589 21.7073 21.7073 21.7073C22.0557 21.7073 22.3693 21.4285 22.3693 21.0453Z" fill="#08928F"/>
<path d="M21.7074 21.6724C22.0907 21.6724 22.3695 21.3937 22.3695 21.0104C22.3695 20.6271 22.0559 20.3484 21.7074 20.3484C21.359 20.3484 21.0454 20.6271 21.0454 21.0104C21.0454 21.3937 21.359 21.6724 21.7074 21.6724Z" fill="white"/>
<path d="M28.3625 21.6724C28.7457 21.6724 29.0245 21.3937 29.0245 21.0104C29.0245 20.6271 28.7109 20.3484 28.3625 20.3484C28.014 20.3484 27.7004 20.6271 27.7004 21.0104C27.7004 21.3937 27.9792 21.6724 28.3625 21.6724Z" fill="white"/>
</svg>
