<svg width="100" height="41" viewBox="0 0 100 41" fill="none" xmlns="http://www.w3.org/2000/svg">
<path d="M54.9129 37.3871V39.5121H60.6269V18.1181H54.8779V29.7911C54.8779 31.2891 54.4599 32.4741 53.5879 33.3111C52.7179 34.1461 51.6029 34.5641 50.1739 34.5641C48.9199 34.5641 47.9439 34.1811 47.2469 33.3801C46.5509 32.5781 46.2019 31.5681 46.2019 30.2791V18.1191H40.4529V31.2541C40.4529 32.5781 40.6619 33.7281 41.0449 34.8081C41.4289 35.8541 41.9859 36.7601 42.7179 37.5261C43.4489 38.2931 44.3209 38.8501 45.3309 39.2681C46.3409 39.6861 47.4909 39.8951 48.7459 39.8951C50.0349 39.8951 51.2199 39.6861 52.2999 39.2331C53.3099 38.7801 54.1809 38.1881 54.9129 37.3871ZM70.4879 21.0451V18.1181H64.7039V39.5121H70.5569V29.7561C70.5569 27.9091 71.0449 26.4111 72.0209 25.2961C72.9969 24.2161 74.5639 23.6591 76.7249 23.6591V17.8391C75.4009 17.8391 74.2159 18.1191 73.1709 18.7111C72.0909 19.3031 71.2199 20.0701 70.4879 21.0451ZM99.0939 24.5301C98.6059 23.2061 97.8739 22.0561 96.9689 21.0801C96.0279 20.1051 94.9129 19.3381 93.5889 18.7801C92.2649 18.2231 90.7319 17.9441 89.0589 17.9441C87.3869 17.9441 85.8539 18.2231 84.4589 18.8151C83.0659 19.4081 81.8819 20.2091 80.8709 21.2201C79.8609 22.2301 79.0939 23.4151 78.5369 24.7741C77.9789 26.1321 77.7349 27.5961 77.6999 29.0941C77.6999 30.6621 77.9439 32.1601 78.5019 33.5191C79.0239 34.8781 79.7909 36.0631 80.7669 37.0391C81.7419 38.0141 82.9269 38.8151 84.3209 39.3731C85.6789 39.9301 87.2469 40.2431 88.9549 40.2431C91.3589 40.2431 93.3799 39.7911 95.0169 38.8851C96.6549 37.9791 98.0139 36.7601 99.0939 35.1571L94.7739 32.4741C94.1459 33.3441 93.3799 34.0071 92.4389 34.5301C91.4989 35.0521 90.3829 35.2961 89.0939 35.2961C87.5959 35.2961 86.3409 34.8781 85.3659 34.0761C84.3899 33.2761 83.7279 32.1961 83.4149 30.8361L99.7559 30.8711C99.7559 30.8011 99.7559 30.5571 99.7909 30.1051C99.8259 29.6521 99.8259 29.2331 99.8259 28.8151C99.8259 27.3171 99.5819 25.8541 99.0939 24.5301ZM83.6239 26.5851C84.0069 25.3651 84.6689 24.4251 85.5739 23.7281C86.4809 23.0311 87.5959 22.7181 88.9899 22.7181C90.1739 22.7181 91.2199 23.0311 92.1599 23.6931C93.1009 24.3211 93.7279 25.2961 94.0419 26.6201L83.6239 26.5851ZM0.243896 18.8151H6.0279V40.2091H0.243896V18.8151Z" fill="white"/>
<path d="M33.0309 22.37L38.1879 18.815C36.5159 14.878 33.7979 13.171 31.7079 12.125C29.8949 11.22 27.8749 10.627 25.6449 10.453V7.66596C27.0729 7.14296 28.0839 5.74896 28.0839 4.11096C28.0839 2.02096 26.3759 0.313965 24.2859 0.313965C22.1959 0.313965 20.5229 2.05596 20.5229 4.14596C20.5229 5.78396 21.5329 7.14296 22.9619 7.69996V10.453C21.2539 10.557 19.6519 10.941 18.1179 11.568C16.2719 12.334 14.6339 13.38 13.3099 14.704C11.9509 16.028 10.9059 17.596 10.1049 19.408C9.33792 21.185 8.91992 23.136 8.91992 25.226C8.91992 27.317 9.30292 29.268 10.1049 31.08C10.9049 32.892 11.9509 34.495 13.3449 35.819C14.7389 37.178 16.3409 38.223 18.2229 38.989C20.1049 39.756 22.1249 40.139 24.3209 40.139C27.2469 40.139 29.7559 39.512 31.8469 38.258C33.9369 37.003 35.6789 35.226 37.0729 32.997L32.0909 29.443C31.2889 30.871 30.2089 31.986 28.8849 32.823C27.5609 33.659 26.0279 34.077 24.2849 34.077C23.0309 34.077 21.8819 33.833 20.8009 33.38C19.7209 32.927 18.8149 32.3 18.0139 31.498C17.2469 30.697 16.6199 29.756 16.2019 28.676C15.7839 27.596 15.5399 26.411 15.5399 25.156C15.5399 23.937 15.7499 22.787 16.2019 21.707C16.6199 20.627 17.2469 19.721 17.9789 18.92C18.7459 18.118 19.6519 17.491 20.6619 17.038C21.7069 16.585 22.8219 16.341 24.0419 16.341C25.8889 16.341 27.4219 16.76 28.6759 17.631C29.9999 18.537 32.1959 20.976 33.0309 22.369V22.37Z" fill="#08928F"/>
<path d="M25.0871 22.7531C25.0871 24.1811 26.2371 25.3311 27.6311 25.3311C29.0241 25.3311 30.1741 24.1811 30.1741 22.7531C30.1741 21.3241 29.0241 20.1741 27.6311 20.1741C26.2371 20.1741 25.0871 21.3241 25.0871 22.7531ZM28.6071 20.6971C28.9901 20.6971 29.2681 20.9761 29.2681 21.3591C29.2681 21.7421 28.9551 22.0211 28.6061 22.0211C28.2581 22.0211 27.9441 21.7421 27.9441 21.3591C27.9441 20.9761 28.2231 20.6971 28.6061 20.6971H28.6071ZM18.7461 22.7531C18.7461 24.1811 19.8961 25.3311 21.2891 25.3311C22.6831 25.3311 23.8331 24.1811 23.8331 22.7531C23.8331 21.3241 22.6831 20.1741 21.2891 20.1741C19.8951 20.1741 18.7461 21.3241 18.7461 22.7531ZM21.9511 20.6971C22.3341 20.6971 22.6131 20.9761 22.6131 21.3591C22.6131 21.7421 22.3001 22.0211 21.9511 22.0211C21.6031 22.0211 21.2891 21.7421 21.2891 21.3591C21.2891 20.9761 21.6031 20.6971 21.9511 20.6971Z" fill="#3F3F3E"/>
<path d="M21.9511 21.9861C22.3341 21.9861 22.6131 21.7071 22.6131 21.3241C22.6131 20.9411 22.3001 20.6621 21.9511 20.6621C21.6031 20.6621 21.2891 20.9411 21.2891 21.3241C21.2891 21.7071 21.6031 21.9861 21.9511 21.9861ZM28.6061 21.9861C28.9901 21.9861 29.2681 21.7071 29.2681 21.3241C29.2681 20.9411 28.9551 20.6621 28.6061 20.6621C28.2581 20.6621 27.9441 20.9411 27.9441 21.3241C27.9441 21.7071 28.2231 21.9861 28.6061 21.9861Z" fill="white"/>
</svg>
