<svg width="588" height="153" viewBox="0 0 588 153" fill="none" xmlns="http://www.w3.org/2000/svg">
<path fill-rule="evenodd" clip-rule="evenodd" d="M149.939 3.06083V54.3561C149.68 65.4104 150.796 74.8364 148.404 82.1957C144.537 94.1025 138.388 100.379 129.334 109.159C121.951 116.316 114.683 123.59 107.413 130.861C101.658 136.615 95.2863 143.276 89.6562 148.835C87.7404 150.728 86.5862 151.732 85.2724 153V93.3753C85.358 91.8723 85.4283 91.0453 85.7108 89.8682C86.2079 87.7977 86.5262 85.6811 87.2458 83.7295C89.5067 77.592 92.2712 72.8963 95.795 68.166C98.7167 65.3171 101.421 62.4657 104.344 59.6168C106.957 56.7436 109.492 54.4686 112.015 51.9444C115.742 48.1459 119.469 44.3448 123.196 40.5463C130.69 33.0528 136.088 28.7379 137.006 16.2138C129.072 16.0425 123.761 19.1905 119.469 22.7896C118.338 23.7392 117.082 25.2423 115.962 26.2967C115.351 26.8719 114.708 27.5671 114.647 27.6119C114.293 27.8701 112.75 29.5162 112.235 30.0237C110.171 32.0571 108.884 33.1691 106.536 35.7227C105.585 36.5995 104.417 37.9147 103.466 38.7914C101.297 40.9616 99.2855 43.0731 97.1101 45.1487C96.0135 46.3182 94.6984 47.4876 93.6017 48.6558C89.7892 52.4684 85.9958 56.7015 81.5454 59.8366C76.4944 63.3936 70.7391 65.8182 63.79 67.2892C59.1224 68.2772 49.3015 67.9475 42.3077 67.9475H0C3.23999 64.8442 18.8916 49.0546 21.2625 46.6837C29.0091 38.9384 36.7531 31.1918 44.4997 23.4478C51.942 16.0042 58.6252 8.70748 69.9275 5.03422C77.8453 2.46012 89.0709 3.06083 99.5206 3.06083H149.939Z" fill="#D7D7D7"/>
<path d="M163.605 41.798C163.605 35.134 165.141 29.156 168.211 23.864C171.347 18.572 175.561 14.456 180.853 11.516C186.211 8.51066 192.058 7.00799 198.395 7.00799C205.647 7.00799 212.083 8.80466 217.701 12.398C223.385 15.926 227.501 20.9567 230.049 27.49H216.623C214.859 23.8967 212.409 21.218 209.273 19.454C206.137 17.69 202.511 16.808 198.395 16.808C193.887 16.808 189.869 17.8207 186.341 19.846C182.813 21.8713 180.037 24.7787 178.011 28.568C176.051 32.3573 175.071 36.7673 175.071 41.798C175.071 46.8287 176.051 51.2387 178.011 55.028C180.037 58.8173 182.813 61.7573 186.341 63.848C189.869 65.8733 193.887 66.886 198.395 66.886C202.511 66.886 206.137 66.004 209.273 64.24C212.409 62.476 214.859 59.7973 216.623 56.204H230.049C227.501 62.7373 223.385 67.768 217.701 71.296C212.083 74.824 205.647 76.588 198.395 76.588C191.993 76.588 186.145 75.118 180.853 72.178C175.561 69.1727 171.347 65.024 168.211 59.732C165.141 54.44 163.605 48.462 163.605 41.798ZM239.402 48.756C239.402 43.3333 240.513 38.5313 242.734 34.35C245.021 30.1687 248.092 26.9347 251.946 24.648C255.866 22.296 260.178 21.12 264.882 21.12C269.129 21.12 272.82 21.9693 275.956 23.668C279.158 25.3013 281.706 27.3593 283.6 29.842V22.002H294.87V76H283.6V67.964C281.706 70.512 279.125 72.6353 275.858 74.334C272.592 76.0327 268.868 76.882 264.686 76.882C260.048 76.882 255.801 75.706 251.946 73.354C248.092 70.9367 245.021 67.6047 242.734 63.358C240.513 59.046 239.402 54.1787 239.402 48.756ZM283.6 48.952C283.6 45.228 282.816 41.994 281.248 39.25C279.746 36.506 277.753 34.4153 275.27 32.978C272.788 31.5407 270.109 30.822 267.234 30.822C264.36 30.822 261.681 31.5407 259.198 32.978C256.716 34.35 254.69 36.408 253.122 39.152C251.62 41.8307 250.868 45.032 250.868 48.756C250.868 52.48 251.62 55.7467 253.122 58.556C254.69 61.3653 256.716 63.5213 259.198 65.024C261.746 66.4613 264.425 67.18 267.234 67.18C270.109 67.18 272.788 66.4613 275.27 65.024C277.753 63.5867 279.746 61.496 281.248 58.752C282.816 55.9427 283.6 52.676 283.6 48.952ZM320.716 29.842C322.35 27.098 324.506 24.9747 327.184 23.472C329.928 21.904 333.162 21.12 336.886 21.12V32.684H334.044C329.667 32.684 326.335 33.7947 324.048 36.016C321.827 38.2373 320.716 42.092 320.716 47.58V76H309.544V22.002H320.716V29.842ZM343.432 48.756C343.432 43.3333 344.542 38.5313 346.764 34.35C349.05 30.1687 352.121 26.9347 355.976 24.648C359.896 22.296 364.24 21.12 369.01 21.12C372.538 21.12 376 21.904 379.398 23.472C382.86 24.9747 385.604 27 387.63 29.548V3.48H398.9V76H387.63V67.866C385.8 70.4793 383.252 72.6353 379.986 74.334C376.784 76.0327 373.093 76.882 368.912 76.882C364.208 76.882 359.896 75.706 355.976 73.354C352.121 70.9367 349.05 67.6047 346.764 63.358C344.542 59.046 343.432 54.1787 343.432 48.756ZM387.63 48.952C387.63 45.228 386.846 41.994 385.278 39.25C383.775 36.506 381.782 34.4153 379.3 32.978C376.817 31.5407 374.138 30.822 371.264 30.822C368.389 30.822 365.71 31.5407 363.228 32.978C360.745 34.35 358.72 36.408 357.152 39.152C355.649 41.8307 354.898 45.032 354.898 48.756C354.898 52.48 355.649 55.7467 357.152 58.556C358.72 61.3653 360.745 63.5213 363.228 65.024C365.776 66.4613 368.454 67.18 371.264 67.18C374.138 67.18 376.817 66.4613 379.3 65.024C381.782 63.5867 383.775 61.496 385.278 58.752C386.846 55.9427 387.63 52.676 387.63 48.952ZM419.258 14.848C417.232 14.848 415.534 14.162 414.162 12.79C412.79 11.418 412.104 9.71933 412.104 7.694C412.104 5.66866 412.79 3.97 414.162 2.598C415.534 1.226 417.232 0.539996 419.258 0.539996C421.218 0.539996 422.884 1.226 424.256 2.598C425.628 3.97 426.314 5.66866 426.314 7.694C426.314 9.71933 425.628 11.418 424.256 12.79C422.884 14.162 421.218 14.848 419.258 14.848ZM424.746 22.002V76H413.574V22.002H424.746ZM466.657 21.12C470.904 21.12 474.693 22.002 478.025 23.766C481.423 25.53 484.069 28.1433 485.963 31.606C487.858 35.0687 488.805 39.25 488.805 44.15V76H477.731V45.816C477.731 40.9813 476.523 37.29 474.105 34.742C471.688 32.1287 468.389 30.822 464.207 30.822C460.026 30.822 456.694 32.1287 454.211 34.742C451.794 37.29 450.585 40.9813 450.585 45.816V76H439.413V22.002H450.585V28.176C452.415 25.9547 454.734 24.2233 457.543 22.982C460.418 21.7407 463.456 21.12 466.657 21.12ZM499.332 48.756C499.332 43.3333 500.443 38.5313 502.664 34.35C504.951 30.1687 508.021 26.9347 511.876 24.648C515.796 22.296 520.108 21.12 524.812 21.12C529.059 21.12 532.75 21.9693 535.886 23.668C539.087 25.3013 541.635 27.3593 543.53 29.842V22.002H554.8V76H543.53V67.964C541.635 70.512 539.055 72.6353 535.788 74.334C532.521 76.0327 528.797 76.882 524.616 76.882C519.977 76.882 515.731 75.706 511.876 73.354C508.021 70.9367 504.951 67.6047 502.664 63.358C500.443 59.046 499.332 54.1787 499.332 48.756ZM543.53 48.952C543.53 45.228 542.746 41.994 541.178 39.25C539.675 36.506 537.683 34.4153 535.2 32.978C532.717 31.5407 530.039 30.822 527.164 30.822C524.289 30.822 521.611 31.5407 519.128 32.978C516.645 34.35 514.62 36.408 513.052 39.152C511.549 41.8307 510.798 45.032 510.798 48.756C510.798 52.48 511.549 55.7467 513.052 58.556C514.62 61.3653 516.645 63.5213 519.128 65.024C521.676 66.4613 524.355 67.18 527.164 67.18C530.039 67.18 532.717 66.4613 535.2 65.024C537.683 63.5867 539.675 61.496 541.178 58.752C542.746 55.9427 543.53 52.676 543.53 48.952ZM580.646 3.48V76H569.474V3.48H580.646Z" fill="#D7D7D7"/>
</svg>
