<svg width="386" height="250" viewBox="0 0 386 250" fill="none" xmlns="http://www.w3.org/2000/svg">
<g clip-path="url(#clip0_1201_34287)">
<path d="M376.199 152.684H362.674C362.385 152.684 362.1 152.62 361.839 152.494C361.579 152.369 361.35 152.186 361.171 151.96C360.993 151.739 360.868 151.481 360.804 151.205C360.741 150.929 360.741 150.643 360.804 150.367C362.074 144.76 362.013 138.933 360.625 133.354C360.518 132.927 360.562 132.477 360.75 132.079C360.938 131.681 361.258 131.36 361.655 131.172C367.305 128.528 372.493 128.597 377.074 131.376C377.314 131.52 377.52 131.714 377.678 131.946C377.835 132.177 377.94 132.44 377.986 132.717C378.957 138.782 378.994 144.961 378.096 151.037C378.032 151.495 377.805 151.914 377.456 152.216C377.107 152.519 376.661 152.685 376.199 152.684Z" fill="#009290"/>
<path d="M375.994 143.823H365.652C365.395 143.822 365.149 143.72 364.968 143.538C364.786 143.356 364.684 143.11 364.684 142.853C364.684 142.596 364.786 142.35 364.968 142.168C365.149 141.986 365.395 141.883 365.652 141.883H375.994C376.251 141.883 376.497 141.986 376.678 142.168C376.86 142.35 376.962 142.596 376.962 142.853C376.962 143.11 376.86 143.356 376.678 143.538C376.497 143.72 376.251 143.822 375.994 143.823Z" fill="white"/>
<path d="M375.994 140.421H365.652C365.395 140.42 365.149 140.318 364.968 140.136C364.786 139.954 364.684 139.708 364.684 139.451C364.684 139.194 364.786 138.947 364.968 138.766C365.149 138.584 365.395 138.481 365.652 138.481H375.994C376.251 138.481 376.497 138.584 376.678 138.766C376.86 138.947 376.962 139.194 376.962 139.451C376.962 139.708 376.86 139.954 376.678 140.136C376.497 140.318 376.251 140.42 375.994 140.421Z" fill="white"/>
<path d="M105.348 151.328C145.042 151.328 177.219 119.15 177.219 79.4574C177.219 39.7643 145.042 7.58667 105.348 7.58667C65.6554 7.58667 33.4778 39.7643 33.4778 79.4574C33.4778 119.15 65.6554 151.328 105.348 151.328Z" fill="#DDE3E7"/>
<path d="M188.702 149.202C196.217 149.202 202.31 143.109 202.31 135.593C202.31 128.077 196.217 121.984 188.702 121.984C181.186 121.984 175.093 128.077 175.093 135.593C175.093 143.109 181.186 149.202 188.702 149.202Z" fill="#DDE3E7"/>
<path d="M257.17 179.821C260.223 179.821 262.699 177.346 262.699 174.293C262.699 171.239 260.223 168.764 257.17 168.764C254.117 168.764 251.641 171.239 251.641 174.293C251.641 177.346 254.117 179.821 257.17 179.821Z" fill="#DDE3E7"/>
<path d="M299.856 196.037C297.525 178.222 286.362 160.725 269.321 155.031C276.145 173.34 276.272 193.473 269.681 211.866C267.113 218.951 263.52 226.563 266.023 233.67C267.581 238.093 271.343 241.46 275.539 243.554C279.734 245.647 284.382 246.628 288.971 247.589L289.878 248.329C297.048 231.855 302.188 213.852 299.856 196.037Z" fill="#DDE3E7"/>
<path d="M269.155 155.37C279.128 166.402 285.372 180.296 286.999 195.078C287.329 198.247 287.387 201.491 286.714 204.621C286.034 207.667 284.551 210.475 282.419 212.754C280.474 214.919 278.233 216.908 276.848 219.509C275.388 222.249 275.351 225.353 276.381 228.247C277.642 231.789 280.099 234.666 282.601 237.397C285.378 240.429 288.31 243.534 289.508 247.569C289.653 248.058 290.404 247.804 290.259 247.316C288.174 240.295 281.321 236.344 278.024 230.03C276.486 227.083 275.826 223.656 277.231 220.526C278.459 217.79 280.768 215.736 282.756 213.561C284.844 211.278 286.44 208.776 287.252 205.765C288.081 202.685 288.15 199.432 287.903 196.269C287.29 189.099 285.553 182.07 282.756 175.44C279.606 167.855 275.182 160.865 269.675 154.772C269.334 154.395 268.816 154.995 269.155 155.37H269.155Z" fill="white"/>
<path d="M286.755 190.287C289.198 189.678 291.345 188.219 292.812 186.173C294.28 184.126 294.972 181.625 294.765 179.116C294.721 178.608 293.93 178.652 293.974 179.16C294.171 181.497 293.526 183.827 292.156 185.729C290.786 187.632 288.781 188.983 286.502 189.537C286.007 189.658 286.263 190.408 286.755 190.287Z" fill="white"/>
<path d="M283.55 211.786C279.114 209.176 275.824 204.989 274.338 200.061C274.191 199.573 273.441 199.826 273.587 200.314C275.144 205.439 278.576 209.789 283.198 212.496C283.639 212.754 283.988 212.043 283.55 211.786Z" fill="white"/>
<path d="M278.876 168.61C277.98 169.043 276.99 169.247 275.996 169.202C275.002 169.158 274.034 168.868 273.18 168.357C272.742 168.094 272.394 168.806 272.828 169.067C273.775 169.627 274.844 169.946 275.942 169.997C277.041 170.048 278.135 169.83 279.129 169.36C279.227 169.324 279.307 169.252 279.353 169.159C279.399 169.066 279.408 168.958 279.378 168.859C279.344 168.76 279.272 168.678 279.178 168.631C279.084 168.585 278.976 168.577 278.876 168.61V168.61Z" fill="white"/>
<path d="M217.694 187.209C217.962 187.381 218.231 187.553 218.5 187.732C222.096 190.064 225.497 192.684 228.668 195.567C228.917 195.786 229.166 196.011 229.408 196.237C236.976 203.264 243.173 211.634 247.685 220.923C249.477 224.621 250.985 228.449 252.196 232.376C253.868 237.799 255.25 243.812 258.52 248.236C258.856 248.701 259.221 249.145 259.611 249.565L288.904 249.378C288.97 249.344 289.037 249.317 289.104 249.283L290.274 249.329C290.226 249.122 290.171 248.909 290.123 248.702C290.095 248.582 290.061 248.462 290.034 248.341C290.013 248.261 289.992 248.181 289.979 248.108C289.972 248.081 289.965 248.055 289.958 248.035C289.944 247.961 289.924 247.894 289.91 247.828C289.608 246.633 289.298 245.439 288.978 244.245C288.978 244.238 288.978 244.238 288.971 244.231C286.514 235.137 283.275 226.169 278.778 217.977C278.643 217.73 278.508 217.477 278.359 217.231C276.311 213.55 273.966 210.042 271.347 206.743C269.907 204.941 268.377 203.213 266.763 201.565C262.583 197.317 257.76 193.753 252.473 191.003C241.931 185.524 229.754 183.476 218.548 186.936C218.261 187.025 217.981 187.114 217.694 187.209Z" fill="#DDE3E7"/>
<path d="M217.762 187.581C232.368 190.384 245.718 197.719 255.918 208.542C258.089 210.874 260.088 213.429 261.435 216.333C262.726 219.174 263.233 222.309 262.903 225.413C262.653 228.313 262.062 231.25 262.521 234.16C263.006 237.227 264.845 239.727 267.41 241.418C270.549 243.487 274.243 244.305 277.884 244.979C281.927 245.728 286.138 246.441 289.524 248.942C289.934 249.245 290.38 248.591 289.971 248.288C284.08 243.938 276.229 244.909 269.795 241.852C266.793 240.426 264.202 238.086 263.44 234.742C262.772 231.818 263.38 228.788 263.658 225.854C263.95 222.774 263.719 219.815 262.553 216.923C261.361 213.964 259.458 211.326 257.356 208.948C252.549 203.593 246.931 199.027 240.706 195.417C233.624 191.257 225.883 188.34 217.818 186.79C217.319 186.695 217.266 187.485 217.762 187.581Z" fill="white"/>
<path d="M252.838 204.863C254.422 202.906 255.258 200.449 255.197 197.931C255.137 195.414 254.183 193 252.507 191.121C252.167 190.742 251.562 191.253 251.903 191.633C253.467 193.38 254.355 195.628 254.406 197.973C254.458 200.317 253.67 202.602 252.185 204.417C251.862 204.811 252.518 205.256 252.838 204.863Z" fill="white"/>
<path d="M263.223 223.959C258.109 224.546 252.962 223.183 248.808 220.144C248.397 219.842 247.951 220.496 248.361 220.798C252.69 223.953 258.049 225.36 263.37 224.738C263.877 224.678 263.727 223.9 263.223 223.959Z" fill="white"/>
<path d="M233.496 192.299C233.041 193.184 232.374 193.943 231.553 194.506C230.733 195.07 229.785 195.42 228.796 195.527C228.288 195.58 228.438 196.358 228.942 196.305C230.035 196.182 231.081 195.794 231.989 195.173C232.896 194.553 233.638 193.719 234.15 192.746C234.206 192.658 234.226 192.553 234.207 192.45C234.188 192.348 234.13 192.257 234.046 192.196C233.959 192.137 233.853 192.115 233.75 192.134C233.647 192.154 233.556 192.213 233.496 192.299H233.496Z" fill="white"/>
<path d="M358.19 126.411L354.229 88.0675L353.183 72.2864L364.271 70.2815C364.271 70.2815 365.931 81.1303 367.384 87.4968C368.817 93.7792 365.474 125.57 365.386 126.408C366.2 127.136 366.774 128.094 367.032 129.156C367.29 130.217 367.219 131.332 366.83 132.353C366.44 133.373 365.75 134.252 364.851 134.871C363.951 135.491 362.885 135.823 361.792 135.824C360.7 135.824 359.633 135.493 358.733 134.874C357.833 134.255 357.142 133.378 356.752 132.358C356.361 131.337 356.29 130.223 356.546 129.161C356.803 128.099 357.376 127.14 358.19 126.411Z" fill="#FFB8B8"/>
<path d="M312.88 244.144H307.24L304.556 222.387L312.881 222.388L312.88 244.144Z" fill="#FFB6B6"/>
<path d="M314.319 249.612L296.131 249.612V249.382C296.131 247.504 296.877 245.704 298.205 244.376C299.532 243.049 301.333 242.303 303.21 242.303H303.211L306.533 239.782L312.732 242.303L314.319 242.303L314.319 249.612Z" fill="#2F2E41"/>
<path d="M362.593 244.144H356.953L354.269 222.387L362.594 222.388L362.593 244.144Z" fill="#FFB6B6"/>
<path d="M364.032 249.612L345.844 249.612V249.382C345.844 247.504 346.59 245.704 347.918 244.376C349.245 243.049 351.046 242.303 352.923 242.303H352.924L356.246 239.782L362.445 242.303L364.032 242.303L364.032 249.612Z" fill="#2F2E41"/>
<path d="M354.014 127.701L358.759 172.771C358.759 172.771 365.074 217.9 363.888 224.126C362.702 230.353 364.185 231.243 364.185 231.243L353.362 230.472C353.362 230.472 353.659 226.617 351.88 224.838C350.101 223.059 350.99 217.722 350.99 217.722L329.997 144.306L317.246 182.853C317.246 182.853 315.171 225.255 314.874 225.848C314.578 226.441 313.688 234.447 313.688 234.447H302.717C302.717 234.447 304.2 229.702 302.124 228.22C300.048 226.737 298.269 227.923 300.048 225.255C301.827 222.586 302.421 219.324 301.827 217.842C301.234 216.359 301.234 210.429 301.234 210.429C301.234 210.429 302.124 130.369 307.165 127.701C312.206 125.032 354.014 127.701 354.014 127.701Z" fill="#2F2E41"/>
<path d="M331.547 36.4444C337.991 36.4444 343.215 31.2201 343.215 24.7756C343.215 18.331 337.991 13.1067 331.547 13.1067C325.102 13.1067 319.878 18.331 319.878 24.7756C319.878 31.2201 325.102 36.4444 331.547 36.4444Z" fill="#FFB8B8"/>
<path d="M366.14 76.3986L354.664 80.5144L351.168 81.7669L348.617 49.1797L357.373 53.8235C357.387 53.8343 357.4 53.8473 357.411 53.8619C358.928 55.5366 360.197 57.4196 361.18 59.4537C365.982 69.2152 366.14 76.3986 366.14 76.3986Z" fill="#3F3D56"/>
<path d="M287.08 123.658C287.08 123.658 298.744 87.4175 298.948 86.9829C300.476 75.3813 304.87 70.2637 305.529 70.8193L316.87 74.7482C316.87 74.7482 313.497 85.4306 311.213 91.7758C309.03 97.8388 294.084 125.831 293.664 126.563C294.115 127.558 294.253 128.666 294.06 129.741C293.867 130.816 293.352 131.808 292.583 132.584C291.814 133.36 290.828 133.885 289.755 134.088C288.682 134.292 287.572 134.165 286.573 133.724C285.573 133.283 284.731 132.549 284.158 131.619C283.585 130.689 283.307 129.607 283.362 128.516C283.417 127.425 283.802 126.377 284.466 125.509C285.13 124.642 286.042 123.997 287.08 123.658H287.08Z" fill="#FFB8B8"/>
<path d="M322.318 51.2785C322.318 51.2785 312.499 46.4662 308.69 55.9177C306.196 62.2919 305.015 65.0722 303.35 71.7112C303.35 71.7112 313.359 73.2129 316.568 78.8688L322.318 51.2785Z" fill="#3F3D56"/>
<path d="M358.047 132.613C335.449 137.28 305.501 129.256 305.501 129.256L313.49 94.6267L310.65 58.3862C310.303 53.9544 312.827 49.8001 316.754 48.328L322.177 46.2971L326.658 39.8806L339.46 40.3007L344.578 47.037L348.617 49.1797L357.373 53.8234L357.411 53.8427V53.8619L354.663 80.5144L353.006 96.5844C353.006 96.5844 358.039 114.658 357.007 117.055C355.974 119.449 356.872 118.292 357.122 119.572C357.373 120.851 358.14 120.932 358.255 123.453C358.375 125.969 358.047 132.613 358.047 132.613Z" fill="#3F3D56"/>
<path d="M344.205 20.6204C343.283 19.7106 344.671 17.3023 344.409 16.0337C344.108 14.5793 342.506 14.5367 342.123 13.1016C341.712 11.5577 340.067 10.7173 338.546 10.228C334.647 8.98051 330.487 8.78998 326.491 9.67584C324.722 10.1077 322.981 10.6442 321.276 11.2824C320.099 11.6967 321.234 10.5694 320.057 10.9836C319.611 11.0829 319.218 11.3438 318.953 11.7159C318.741 12.116 319.027 12.7559 319.472 12.6748C318.035 13.3085 316.598 13.9422 315.161 14.5759C315.967 15.4202 316.773 16.2644 317.579 17.1087C316.433 16.7826 315.212 18.1486 315.663 19.2509C315.845 19.5988 316.109 19.8974 316.431 20.1208C316.754 20.3442 317.126 20.4858 317.516 20.5334C318.81 20.7853 317.829 22.0171 319.147 21.9932C320.466 21.9692 329.66 19.2665 330.3 20.4189C330.757 21.2395 330.707 22.3265 331.358 23.0026C332.192 23.8676 333.648 23.5512 334.709 22.9881C335.771 22.425 336.847 21.6511 338.041 21.7861C339.287 21.927 340.23 24.2302 340.537 25.4464C340.844 26.6626 340.65 27.9423 340.454 29.1813C340.198 30.8086 337.629 32.4358 337.372 34.063C340.223 34.8514 343.282 32.3428 344.409 27.9803C344.297 25.2225 346.17 22.5588 344.205 20.6204Z" fill="#2F2E41"/>
<path d="M162.802 172.168C128.451 172.17 98.5639 146.545 94.1486 111.594L94.9925 111.487C99.3531 146.006 128.877 171.315 162.803 171.317C165.685 171.317 168.565 171.136 171.424 170.773C208.842 166.046 235.438 131.759 230.711 94.3416L231.555 94.2349C236.341 132.118 209.414 166.832 171.531 171.617C168.636 171.984 165.72 172.168 162.802 172.168Z" fill="#3F3D56"/>
<path d="M164.647 186.393H151.122C150.833 186.393 150.547 186.328 150.287 186.203C150.027 186.078 149.798 185.895 149.618 185.669C149.441 185.448 149.316 185.19 149.252 184.914C149.189 184.638 149.188 184.352 149.251 184.076C150.535 178.411 150.459 172.524 149.03 166.894C148.933 166.506 148.961 166.096 149.11 165.724C149.259 165.352 149.521 165.036 149.86 164.822C154.539 161.923 159.634 162.014 165.437 165.099C165.701 165.238 165.929 165.436 166.104 165.677C166.278 165.919 166.395 166.198 166.444 166.492C167.405 172.536 167.439 178.692 166.544 184.746C166.48 185.204 166.253 185.622 165.904 185.925C165.555 186.228 165.109 186.394 164.647 186.393Z" fill="#009290"/>
<path d="M102.982 114.097H89.4573C89.1683 114.097 88.883 114.033 88.6227 113.907C88.3623 113.782 88.1338 113.599 87.9541 113.373C87.7767 113.152 87.6514 112.894 87.5879 112.618C87.5243 112.342 87.5241 112.056 87.5872 111.78C88.8753 106.096 88.7944 100.187 87.3511 94.541C87.2598 94.1692 87.2819 93.7786 87.4145 93.4195C87.5471 93.0604 87.7841 92.7491 88.0951 92.5259C95.0498 87.524 100.527 87.6691 104.374 92.958C104.548 93.1991 104.663 93.4771 104.711 93.7702C105.739 99.9501 105.796 106.253 104.879 112.45C104.816 112.908 104.588 113.327 104.24 113.629C103.891 113.932 103.444 114.098 102.982 114.097Z" fill="#CCCCCC"/>
<path d="M158.327 173.699H153.675C153.418 173.698 153.171 173.596 152.99 173.414C152.808 173.232 152.707 172.986 152.707 172.729C152.707 172.472 152.808 172.226 152.99 172.044C153.171 171.862 153.418 171.759 153.675 171.759H158.327C158.585 171.759 158.831 171.861 159.013 172.043C159.195 172.225 159.297 172.472 159.297 172.729C159.297 172.986 159.195 173.233 159.013 173.415C158.831 173.597 158.585 173.699 158.327 173.699Z" fill="white"/>
<path d="M164.016 177.532H153.675C153.418 177.531 153.171 177.429 152.99 177.247C152.808 177.065 152.707 176.819 152.707 176.562C152.707 176.305 152.808 176.059 152.99 175.877C153.171 175.695 153.418 175.592 153.675 175.592H164.016C164.273 175.592 164.519 175.695 164.701 175.877C164.882 176.059 164.984 176.305 164.984 176.562C164.984 176.819 164.882 177.065 164.701 177.247C164.519 177.429 164.273 177.531 164.016 177.532Z" fill="white"/>
<path d="M98.7893 100.552H94.1366C93.8797 100.552 93.6335 100.449 93.452 100.267C93.2705 100.086 93.1686 99.8391 93.1686 99.5821C93.1686 99.3252 93.2705 99.0788 93.452 98.8969C93.6335 98.715 93.8797 98.6126 94.1366 98.6121H98.7893C99.0462 98.6126 99.2925 98.715 99.474 98.8969C99.6554 99.0788 99.7574 99.3252 99.7574 99.5821C99.7574 99.8391 99.6554 100.086 99.474 100.267C99.2925 100.449 99.0462 100.552 98.7893 100.552Z" fill="white"/>
<path d="M98.7893 103.955H94.1366C93.8797 103.954 93.6335 103.852 93.452 103.67C93.2705 103.488 93.1686 103.241 93.1686 102.984C93.1686 102.728 93.2705 102.481 93.452 102.299C93.6335 102.117 93.8797 102.015 94.1366 102.014H98.7893C99.0462 102.015 99.2925 102.117 99.474 102.299C99.6554 102.481 99.7574 102.728 99.7574 102.984C99.7574 103.241 99.6554 103.488 99.474 103.67C99.2925 103.852 99.0462 103.954 98.7893 103.955Z" fill="white"/>
<path d="M98.7893 107.357H94.1366C93.8797 107.356 93.6335 107.254 93.452 107.072C93.2705 106.89 93.1686 106.644 93.1686 106.387C93.1686 106.13 93.2705 105.883 93.452 105.701C93.6335 105.519 93.8797 105.417 94.1366 105.417H98.7893C99.0462 105.417 99.2925 105.519 99.474 105.701C99.6554 105.883 99.7574 106.13 99.7574 106.387C99.7574 106.644 99.6554 106.89 99.474 107.072C99.2925 107.254 99.0462 107.356 98.7893 107.357Z" fill="white"/>
<path d="M285.016 130.075H241.781C240.622 130.074 239.511 129.613 238.692 128.794C237.873 127.975 237.412 126.864 237.41 125.705V99.0762C237.412 97.9175 237.873 96.8066 238.692 95.9873C239.511 95.168 240.622 94.7071 241.781 94.7058H285.016C286.175 94.7071 287.285 95.168 288.105 95.9873C288.924 96.8066 289.385 97.9175 289.386 99.0762V125.705C289.385 126.864 288.924 127.975 288.105 128.794C287.285 129.613 286.175 130.074 285.016 130.075Z" fill="#E6E6E6"/>
<path d="M267.838 126.645H244.82C243.735 126.644 242.694 126.213 241.927 125.445C241.16 124.678 240.728 123.638 240.727 122.552V102.229C240.728 101.144 241.16 100.103 241.927 99.3359C242.694 98.5685 243.735 98.1369 244.82 98.1357H281.977C283.062 98.1369 284.103 98.5686 284.87 99.3359C285.637 100.103 286.069 101.144 286.07 102.229V108.414C286.065 113.247 284.142 117.882 280.724 121.299C277.306 124.717 272.672 126.64 267.838 126.645Z" fill="white"/>
<path d="M278.27 109.265H248.527C248.269 109.265 248.023 109.162 247.841 108.98C247.659 108.799 247.557 108.552 247.557 108.294C247.557 108.037 247.659 107.791 247.841 107.609C248.023 107.427 248.269 107.324 248.527 107.324H278.27C278.527 107.324 278.774 107.427 278.956 107.609C279.138 107.791 279.24 108.037 279.24 108.294C279.24 108.552 279.138 108.799 278.956 108.98C278.774 109.162 278.527 109.265 278.27 109.265Z" fill="#009290"/>
<path d="M253.179 113.098H248.527C248.27 113.097 248.024 112.995 247.842 112.813C247.661 112.631 247.559 112.384 247.559 112.128C247.559 111.871 247.661 111.624 247.842 111.442C248.024 111.26 248.27 111.158 248.527 111.157H253.179C253.436 111.158 253.682 111.26 253.864 111.442C254.045 111.624 254.147 111.871 254.147 112.128C254.147 112.384 254.045 112.631 253.864 112.813C253.682 112.995 253.436 113.097 253.179 113.098Z" fill="#009290"/>
<path d="M261.42 116.931H248.527C248.269 116.931 248.023 116.828 247.841 116.647C247.659 116.465 247.557 116.218 247.557 115.961C247.557 115.703 247.659 115.457 247.841 115.275C248.023 115.093 248.269 114.99 248.527 114.99H261.42C261.677 114.99 261.924 115.093 262.106 115.275C262.288 115.457 262.39 115.703 262.39 115.961C262.39 116.218 262.288 116.465 262.106 116.647C261.924 116.828 261.677 116.931 261.42 116.931Z" fill="#009290"/>
<path d="M235.902 103.321C240.953 103.321 245.048 99.2266 245.048 94.1755C245.048 89.1243 240.953 85.0295 235.902 85.0295C230.851 85.0295 226.756 89.1243 226.756 94.1755C226.756 99.2266 230.851 103.321 235.902 103.321Z" fill="#3F3D56"/>
<path d="M132.37 24.6017C132.975 21.5285 134.18 18.6047 135.915 15.9971C137.651 13.3896 139.883 11.1494 142.484 9.40444C147.737 5.88037 154.175 4.58751 160.382 5.81029C163.455 6.41574 166.379 7.62057 168.986 9.356C171.594 11.0914 173.834 13.3234 175.579 15.9246C177.324 18.5258 178.54 21.4452 179.156 24.5162C179.773 27.5871 179.779 30.7495 179.173 33.8227L178.339 33.6583C179.518 27.6731 178.271 21.4646 174.873 16.3987C171.474 11.3327 166.203 7.82422 160.218 6.64504C154.232 5.46586 148.024 6.71258 142.958 10.1109C137.892 13.5093 134.383 18.7809 133.204 24.7661L132.37 24.6017Z" fill="#3F3D56"/>
<path d="M141.427 39.6497L127.913 40.2094C127.625 40.222 127.337 40.169 127.071 40.0545C126.806 39.94 126.57 39.7669 126.381 39.5482C126.195 39.3351 126.059 39.0826 125.984 38.8096C125.909 38.5366 125.897 38.2502 125.949 37.9718C126.986 32.3171 126.684 26.498 125.066 20.9811C124.942 20.5592 124.967 20.107 125.138 19.7017C125.309 19.2964 125.616 18.963 126.005 18.7583C131.541 15.8826 136.727 15.7368 141.42 18.3244C141.666 18.458 141.879 18.6437 142.046 18.8684C142.213 19.0932 142.329 19.3516 142.386 19.6257C143.607 25.6458 143.9 31.8174 143.254 37.9261C143.209 38.3858 143 38.8137 142.664 39.1306C142.328 39.4474 141.888 39.6319 141.427 39.6497Z" fill="#009290"/>
<path d="M140.855 30.8051L130.522 31.233C130.395 31.2384 130.268 31.2186 130.148 31.1749C130.028 31.1311 129.918 31.0641 129.825 30.9778C129.731 30.8916 129.655 30.7876 129.601 30.672C129.548 30.5564 129.517 30.4313 129.512 30.304C129.507 30.1766 129.527 30.0495 129.571 29.9298C129.614 29.8101 129.681 29.7003 129.768 29.6065C129.854 29.5128 129.958 29.437 130.074 29.3834C130.19 29.3299 130.315 29.2997 130.442 29.2945L140.775 28.8666C140.902 28.8613 141.029 28.8811 141.149 28.925C141.268 28.9688 141.378 29.0358 141.472 29.1221C141.566 29.2083 141.641 29.3122 141.695 29.4278C141.749 29.5434 141.779 29.6684 141.784 29.7957C141.789 29.9229 141.77 30.05 141.726 30.1696C141.682 30.2893 141.615 30.3991 141.529 30.4928C141.442 30.5865 141.338 30.6623 141.223 30.7159C141.107 30.7695 140.982 30.7998 140.855 30.8051Z" fill="white"/>
<path d="M140.714 27.4059L130.381 27.8339C130.124 27.8445 129.874 27.7526 129.684 27.5784C129.495 27.4041 129.383 27.1618 129.372 26.9047C129.361 26.6477 129.453 26.3969 129.628 26.2076C129.802 26.0183 130.044 25.906 130.301 25.8953L140.634 25.4674C140.891 25.4567 141.142 25.5486 141.331 25.7229C141.52 25.8971 141.633 26.1394 141.643 26.3965C141.654 26.6536 141.562 26.9043 141.388 27.0936C141.213 27.2829 140.971 27.3952 140.714 27.4059Z" fill="white"/>
<path d="M229.865 35.3696H186.63C185.471 35.3683 184.36 34.9074 183.541 34.0881C182.722 33.2688 182.261 32.1579 182.259 30.9992V4.37041C182.261 3.21171 182.722 2.10084 183.541 1.28152C184.36 0.462188 185.471 0.00131356 186.63 0H229.865C231.024 0.00130906 232.135 0.462181 232.954 1.28151C233.773 2.10084 234.234 3.21171 234.235 4.37041V30.9992C234.234 32.1579 233.773 33.2688 232.954 34.0881C232.135 34.9074 231.024 35.3683 229.865 35.3696Z" fill="#E6E6E6"/>
<path d="M212.687 31.9396H189.669C188.584 31.9385 187.543 31.5068 186.776 30.7395C186.009 29.9722 185.577 28.9318 185.576 27.8466V7.52295C185.577 6.43776 186.009 5.39739 186.776 4.63006C187.543 3.86274 188.584 3.43113 189.669 3.42993H226.826C227.911 3.43114 228.952 3.86275 229.719 4.63008C230.486 5.39741 230.918 6.43779 230.919 7.52295V13.7079C230.914 18.5416 228.991 23.1758 225.573 26.5937C222.155 30.0116 217.521 31.9342 212.687 31.9396Z" fill="white"/>
<path d="M223.119 14.5587H193.376C193.118 14.5587 192.872 14.4565 192.69 14.2746C192.508 14.0927 192.406 13.846 192.406 13.5887C192.406 13.3314 192.508 13.0847 192.69 12.9028C192.872 12.7209 193.118 12.6187 193.376 12.6187H223.119C223.376 12.6187 223.623 12.7209 223.805 12.9028C223.987 13.0847 224.089 13.3314 224.089 13.5887C224.089 13.846 223.987 14.0927 223.805 14.2746C223.623 14.4565 223.376 14.5587 223.119 14.5587Z" fill="#009290"/>
<path d="M198.028 18.3918H193.376C193.119 18.3913 192.872 18.2888 192.691 18.107C192.509 17.9251 192.407 17.6787 192.407 17.4217C192.407 17.1648 192.509 16.9184 192.691 16.7365C192.872 16.5546 193.119 16.4522 193.376 16.4517H198.028C198.285 16.4522 198.531 16.5546 198.713 16.7365C198.894 16.9184 198.996 17.1648 198.996 17.4217C198.996 17.6787 198.894 17.9251 198.713 18.107C198.531 18.2888 198.285 18.3913 198.028 18.3918Z" fill="#009290"/>
<path d="M206.269 22.2248H193.376C193.118 22.2248 192.872 22.1226 192.69 21.9407C192.508 21.7588 192.406 21.512 192.406 21.2548C192.406 20.9975 192.508 20.7507 192.69 20.5688C192.872 20.3869 193.118 20.2847 193.376 20.2847H206.269C206.526 20.2852 206.772 20.3877 206.953 20.5695C207.135 20.7514 207.237 20.9978 207.237 21.2548C207.237 21.5117 207.135 21.7581 206.953 21.94C206.772 22.1219 206.526 22.2243 206.269 22.2248Z" fill="#009290"/>
<path d="M187.398 39.9794C190.065 35.6895 188.749 30.0501 184.459 27.3834C180.169 24.7168 174.53 26.0327 171.863 30.3226C169.196 34.6124 170.512 40.2518 174.802 42.9185C179.092 45.5852 184.731 44.2693 187.398 39.9794Z" fill="#3F3D56"/>
<path d="M384.94 250H259.285C259.181 250 259.082 249.959 259.009 249.885C258.935 249.812 258.894 249.713 258.894 249.609C258.894 249.505 258.935 249.406 259.009 249.333C259.082 249.259 259.181 249.218 259.285 249.218H384.94C385.044 249.218 385.143 249.259 385.217 249.333C385.29 249.406 385.331 249.505 385.331 249.609C385.331 249.713 385.29 249.812 385.217 249.885C385.143 249.959 385.044 250 384.94 250Z" fill="#CCCCCC"/>
<path d="M57.7948 106.5C54.0424 96.5806 54.3843 85.5766 58.7452 75.9091C63.1062 66.2415 71.1289 58.7022 81.0486 54.9499C90.9682 51.1975 101.972 51.5393 111.64 55.9003C121.307 60.2612 128.847 68.2839 132.599 78.2036L131.803 78.5047C129.985 73.6975 127.237 69.2955 123.718 65.5501C120.198 61.8047 115.975 58.7892 111.29 56.6758C106.605 54.5625 101.55 53.3926 96.4124 53.2329C91.2752 53.0733 86.1569 53.9271 81.3497 55.7456C76.5425 57.564 72.1405 60.3115 68.3951 63.8312C64.6497 67.3508 61.6342 71.5737 59.5208 76.2588C57.4074 80.9439 56.2375 85.9993 56.0779 91.1365C55.9183 96.2736 56.7721 101.392 58.5905 106.199L57.7948 106.5Z" fill="#3F3D56"/>
<path d="M92.776 66.8916H79.2508C78.9619 66.8922 78.6765 66.8274 78.4162 66.702C78.1559 66.5766 77.9273 66.3939 77.7477 66.1676C77.5702 65.947 77.445 65.6891 77.3814 65.4132C77.3179 65.1373 77.3177 64.8506 77.3807 64.5747C78.6611 58.9236 78.5887 53.0501 77.1694 47.4324C77.0687 47.0348 77.0996 46.6154 77.2573 46.2368C77.4151 45.8583 77.6912 45.5411 78.0444 45.3326C82.9437 42.4807 88.1757 42.5677 93.5946 45.592C93.8511 45.7319 94.0723 45.9285 94.2413 46.1669C94.4103 46.4053 94.5226 46.6791 94.5697 46.9675C95.5342 53.0193 95.569 59.1829 94.6729 65.2452C94.6093 65.7026 94.382 66.1214 94.0332 66.4241C93.6845 66.7268 93.2378 66.8929 92.776 66.8916Z" fill="#009290"/>
<path d="M86.4566 53.7727H81.8039C81.5469 53.7721 81.3007 53.6697 81.1192 53.4878C80.9377 53.306 80.8358 53.0595 80.8358 52.8026C80.8358 52.5457 80.9377 52.2992 81.1192 52.1174C81.3007 51.9355 81.5469 51.8331 81.8039 51.8325H86.4566C86.7135 51.8331 86.9597 51.9355 87.1412 52.1174C87.3227 52.2992 87.4246 52.5457 87.4246 52.8026C87.4246 53.0595 87.3227 53.306 87.1412 53.4878C86.9597 53.6697 86.7135 53.7721 86.4566 53.7727Z" fill="white"/>
<path d="M92.1454 57.6057H81.8038C81.5465 57.6057 81.2998 57.5035 81.1179 57.3216C80.9359 57.1396 80.8337 56.8929 80.8337 56.6356C80.8337 56.3783 80.9359 56.1316 81.1179 55.9497C81.2998 55.7677 81.5465 55.6655 81.8038 55.6655H92.1454C92.4023 55.6661 92.6485 55.7685 92.83 55.9504C93.0115 56.1323 93.1134 56.3787 93.1134 56.6356C93.1134 56.8926 93.0115 57.139 92.83 57.3209C92.6485 57.5027 92.4023 57.6052 92.1454 57.6057Z" fill="white"/>
<path d="M48.2745 105.965H5.03933C3.88063 105.963 2.76976 105.502 1.95044 104.683C1.13112 103.864 0.670252 102.753 0.668945 101.594V74.9654C0.670252 73.8067 1.13112 72.6958 1.95044 71.8765C2.76976 71.0572 3.88063 70.5963 5.03933 70.595H48.2745C49.4332 70.5963 50.5441 71.0572 51.3634 71.8765C52.1827 72.6958 52.6436 73.8067 52.6449 74.9654V101.594C52.6436 102.753 52.1827 103.864 51.3634 104.683C50.5441 105.502 49.4332 105.963 48.2745 105.965Z" fill="#E6E6E6"/>
<path d="M31.0965 102.535H8.07852C6.99333 102.533 5.95293 102.102 5.18556 101.334C4.4182 100.567 3.98654 99.5268 3.98529 98.4416V78.1179C3.98654 77.0327 4.4182 75.9923 5.18556 75.225C5.95293 74.4577 6.99333 74.0261 8.07852 74.0249H45.2355C46.3207 74.0261 47.361 74.4577 48.1284 75.225C48.8957 75.9924 49.3273 77.0327 49.3285 78.1179V84.3028C49.323 89.1366 47.4004 93.7707 43.9824 97.1887C40.5644 100.607 35.9302 102.529 31.0965 102.535Z" fill="white"/>
<path d="M41.5287 85.1537H11.7851C11.5278 85.1537 11.2811 85.0515 11.0992 84.8696C10.9173 84.6877 10.8151 84.4409 10.8151 84.1837C10.8151 83.9264 10.9173 83.6797 11.0992 83.4977C11.2811 83.3158 11.5278 83.2136 11.7851 83.2136H41.5287C41.786 83.2136 42.0327 83.3158 42.2147 83.4977C42.3966 83.6797 42.4988 83.9264 42.4988 84.1837C42.4988 84.4409 42.3966 84.6877 42.2147 84.8696C42.0327 85.0515 41.786 85.1537 41.5287 85.1537Z" fill="#009290"/>
<path d="M16.4378 88.9868H11.7851C11.5281 88.9863 11.2819 88.8838 11.1004 88.702C10.9189 88.5201 10.817 88.2737 10.817 88.0167C10.817 87.7598 10.9189 87.5134 11.1004 87.3315C11.2819 87.1496 11.5281 87.0472 11.7851 87.0466H16.4378C16.6947 87.0472 16.9409 87.1496 17.1224 87.3315C17.3039 87.5134 17.4058 87.7598 17.4058 88.0167C17.4058 88.2737 17.3039 88.5201 17.1224 88.702C16.9409 88.8838 16.6947 88.9863 16.4378 88.9868Z" fill="#009290"/>
<path d="M24.6782 92.8198H11.7851C11.5281 92.8193 11.2819 92.7168 11.1004 92.535C10.9189 92.3531 10.817 92.1067 10.817 91.8497C10.817 91.5928 10.9189 91.3464 11.1004 91.1645C11.2819 90.9826 11.5281 90.8802 11.7851 90.8796H24.6782C24.9355 90.8796 25.1823 90.9818 25.3642 91.1638C25.5461 91.3457 25.6483 91.5924 25.6483 91.8497C25.6483 92.107 25.5461 92.3538 25.3642 92.5357C25.1823 92.7176 24.9355 92.8198 24.6782 92.8198Z" fill="#009290"/>
<path d="M65.3453 109.724C68.012 105.434 66.6961 99.7945 62.4062 97.1278C58.1163 94.4612 52.4769 95.7771 49.8102 100.067C47.1436 104.357 48.4595 109.996 52.7493 112.663C57.0392 115.33 62.6786 114.014 65.3453 109.724Z" fill="#3F3D56"/>
<path d="M139.13 92.4079H125.605C125.316 92.4085 125.031 92.3437 124.771 92.2183C124.51 92.0929 124.282 91.9102 124.102 91.6838C123.925 91.4633 123.799 91.2054 123.736 90.9295C123.672 90.6536 123.672 90.3669 123.735 90.0909C125.013 84.4499 124.943 78.587 123.531 72.978C123.431 72.5749 123.465 72.1501 123.628 71.7681C123.791 71.386 124.074 71.0675 124.435 70.861C131.005 67.1 136.207 67.2038 140.34 71.1785C140.629 71.462 140.82 71.8312 140.883 72.2315C141.887 78.3637 141.936 84.6144 141.027 90.7615C140.964 91.2189 140.736 91.6377 140.388 91.9404C140.039 92.2431 139.592 92.4092 139.13 92.4079Z" fill="#FF6584"/>
<path d="M133.662 79.7141H129.009C128.752 79.7136 128.506 79.6111 128.324 79.4292C128.143 79.2474 128.041 79.0009 128.041 78.744C128.041 78.4871 128.143 78.2406 128.324 78.0588C128.506 77.8769 128.752 77.7745 129.009 77.7739H133.662C133.918 77.7745 134.165 77.8769 134.346 78.0588C134.528 78.2406 134.63 78.4871 134.63 78.744C134.63 79.0009 134.528 79.2474 134.346 79.4292C134.165 79.6111 133.918 79.7136 133.662 79.7141Z" fill="white"/>
<path d="M139.35 83.5471H129.009C128.752 83.5471 128.505 83.4449 128.323 83.263C128.141 83.0811 128.039 82.8343 128.039 82.577C128.039 82.3197 128.141 82.073 128.323 81.8911C128.505 81.7091 128.752 81.6069 129.009 81.6069H139.35C139.607 81.6075 139.854 81.7099 140.035 81.8918C140.217 82.0737 140.318 82.3201 140.318 82.577C140.318 82.834 140.217 83.0804 140.035 83.2623C139.854 83.4441 139.607 83.5466 139.35 83.5471Z" fill="white"/>
</g>
<defs>
<clipPath id="clip0_1201_34287">
<rect width="384.662" height="250" fill="white" transform="translate(0.668945)"/>
</clipPath>
</defs>
</svg>
