<svg width="278" height="250" viewBox="0 0 278 250" fill="none" xmlns="http://www.w3.org/2000/svg">
<g clip-path="url(#clip0_1201_34044)">
<path d="M192.109 249.37H113.228C101.396 249.37 91.7709 239.824 91.7709 228.09V21.2801C91.7709 9.54629 101.396 0 113.228 0H192.109C203.94 0 213.566 9.54629 213.566 21.2801C215.034 104.329 217.538 197.33 213.566 228.09C213.566 239.824 203.94 249.37 192.109 249.37L192.109 249.37Z" fill="#3F3D56"/>
<path d="M214.666 76.0715C214.165 76.0715 213.758 76.4753 213.758 76.9718V105.78C213.758 106.276 214.165 106.68 214.666 106.68C215.166 106.68 215.573 106.276 215.573 105.78V76.9718C215.573 76.4753 215.166 76.0715 214.666 76.0715Z" fill="#3F3D56"/>
<path d="M211.523 21.2803V228.087C211.523 238.3 203.508 246.654 193.373 247.302H193.369C193.219 247.311 193.069 247.32 192.915 247.325C192.647 247.338 192.379 247.343 192.107 247.343C192.107 247.343 191.109 247.271 189.284 247.136C187.441 247.001 184.759 246.798 181.414 246.533C180.411 246.456 179.354 246.371 178.237 246.281C176.013 246.101 173.571 245.903 170.953 245.677C169.909 245.592 168.828 245.497 167.726 245.403C162.089 244.921 155.775 244.359 149.117 243.719C147.992 243.616 146.857 243.508 145.713 243.395C145.414 243.364 93.8134 230.499 93.8134 228.087V21.2803C93.8134 10.6439 102.505 2.02393 113.23 2.02393H124.821C126.673 2.02393 128.162 3.45532 128.321 5.28735C128.334 5.40889 128.348 5.5304 128.37 5.65195C128.706 7.49298 130.408 8.77583 132.296 8.77583H173.04C174.928 8.77583 176.63 7.49298 176.966 5.65195C176.989 5.53041 177.003 5.40889 177.016 5.28735C177.175 3.45533 178.664 2.02393 180.515 2.02393H192.107C202.832 2.02393 211.523 10.6439 211.523 21.2803H211.523Z" fill="white"/>
<path d="M91.317 54.4653C90.8164 54.4653 90.4093 54.8691 90.4093 55.3656V62.5676C90.4093 63.0641 90.8164 63.4679 91.317 63.4679C91.8177 63.4679 92.2248 63.0641 92.2248 62.5676V55.3656C92.2248 54.8691 91.8177 54.4653 91.317 54.4653Z" fill="#3F3D56"/>
<path d="M91.317 76.0715C90.8164 76.0715 90.4093 76.4753 90.4093 76.9718V90.9257C90.4093 91.4222 90.8164 91.826 91.317 91.826C91.8177 91.826 92.2248 91.4222 92.2248 90.9257V76.9718C92.2248 76.4753 91.8177 76.0715 91.317 76.0715V76.0715Z" fill="#3F3D56"/>
<path d="M91.317 95.877C90.8164 95.877 90.4093 96.2807 90.4093 96.7772V110.731C90.4093 111.228 90.8164 111.631 91.317 111.631C91.8177 111.631 92.2248 111.228 92.2248 110.731V96.7772C92.2248 96.2807 91.8177 95.877 91.317 95.877Z" fill="#3F3D56"/>
<path d="M124.523 5.17651H107.128C107.044 5.17651 106.975 5.24429 106.975 5.3279V7.27576C106.975 7.35937 107.044 7.42714 107.128 7.42714H124.523C124.608 7.42714 124.676 7.35937 124.676 7.27576V5.3279C124.676 5.24429 124.608 5.17651 124.523 5.17651Z" fill="#3F3D56"/>
<path d="M183.384 7.42718C184.386 7.42718 185.199 6.62107 185.199 5.62668C185.199 4.63229 184.386 3.82617 183.384 3.82617C182.381 3.82617 181.568 4.63229 181.568 5.62668C181.568 6.62107 182.381 7.42718 183.384 7.42718Z" fill="#3F3D56"/>
<path d="M188.376 7.42718C189.379 7.42718 190.192 6.62107 190.192 5.62668C190.192 4.63229 189.379 3.82617 188.376 3.82617C187.374 3.82617 186.561 4.63229 186.561 5.62668C186.561 6.62107 187.374 7.42718 188.376 7.42718Z" fill="#3F3D56"/>
<path d="M193.369 7.42718C194.371 7.42718 195.184 6.62107 195.184 5.62668C195.184 4.63229 194.371 3.82617 193.369 3.82617C192.366 3.82617 191.553 4.63229 191.553 5.62668C191.553 6.62107 192.366 7.42718 193.369 7.42718Z" fill="#3F3D56"/>
<path d="M7.04346 249.419C7.04346 249.741 7.30426 250 7.62902 250H277.415C277.739 250 278 249.741 278 249.419C278 249.097 277.739 248.839 277.415 248.839H7.62902C7.30426 248.839 7.04346 249.097 7.04346 249.419Z" fill="#CCCCCC"/>
<path d="M93.0629 245.605L87.5304 245.605L84.8986 224.44L93.064 224.441L93.0629 245.605Z" fill="#FFB6B6"/>
<path d="M74.1079 245.481C73.9356 245.768 73.8447 246.697 73.8447 247.032C73.8447 248.06 74.6854 248.894 75.7225 248.894H92.8559C93.5633 248.894 94.1369 248.325 94.1369 247.623V246.916C94.1369 246.916 94.9845 244.79 93.2395 242.169C93.2395 242.169 91.0707 244.221 87.8299 241.007L86.8742 239.29L79.9565 244.308L76.1221 244.776C75.2832 244.878 74.5395 244.76 74.1079 245.481H74.1079V245.481H74.1079Z" fill="#2F2E41"/>
<path d="M62.4674 216.209L56.9349 216.191L54.3708 195.019L62.5362 195.045L62.4674 216.209Z" fill="#FFB6B6"/>
<path d="M43.513 216.025C43.3398 216.312 43.2459 217.24 43.2449 217.575C43.2416 218.604 44.0796 219.44 45.1167 219.443L62.25 219.497C62.9574 219.499 63.5328 218.932 63.5351 218.231L63.5373 217.523C63.5373 217.523 64.3917 215.4 62.6551 212.774C62.6551 212.774 60.4797 214.819 57.2493 211.595L56.2991 209.875L49.3653 214.87L45.5295 215.326C44.6903 215.426 43.9469 215.306 43.5131 216.025H43.513V216.025Z" fill="#2F2E41"/>
<path d="M84.9939 117.12L78.1052 117.608C78.1052 117.608 54.7843 130.758 52.8161 133.686C50.8479 136.614 48.1416 140.762 50.6019 145.154C53.0621 149.546 51.1896 202.724 51.1896 202.724L62.9461 200.087L70.4784 144.448L86.224 142.252C86.224 142.252 91.6366 153.833 89.6684 163.414C87.7002 172.996 86.7161 178.852 86.7161 178.852L84.2558 235.459L93.8508 235.215L102.462 182.755L117.223 141.276L98.0332 118.828L84.9939 117.12Z" fill="#2F2E41"/>
<path d="M118.945 57.0959L104.676 58.5599L103.2 63.4399L89.4223 70.7599L93.8507 101.504L90.4064 106.872L91.8825 112.24C91.8825 112.24 87.9461 112.728 88.4382 115.656L79.5813 117.12C79.5813 117.12 91.3285 119.498 93.8197 131.241C96.311 142.984 116.977 144.448 116.977 144.448L133.215 94.1839L134.691 64.4159L123.374 61.4879L118.945 57.0959Z" fill="#3F3D56"/>
<path d="M111.425 55.2441C117.551 55.2441 122.518 50.3186 122.518 44.2427C122.518 38.1667 117.551 33.2412 111.425 33.2412C105.299 33.2412 100.332 38.1667 100.332 44.2427C100.332 50.3186 105.299 55.2441 111.425 55.2441Z" fill="#FFB6B6"/>
<path d="M105.66 54.1678C105.66 54.1678 95.8189 53.6798 96.803 45.8718C94.3673 37.5571 96.5232 32.1585 104.184 30.2558C104.184 30.2558 106.152 29.7678 106.644 29.7678C113.116 29.7678 116.485 31.7198 116.485 31.7198C116.485 31.7198 115.993 29.787 116.485 30.2654C116.977 30.7438 117.469 31.7198 117.469 31.7198C117.469 31.7198 122.39 34.1598 122.39 39.0398C122.39 43.9198 122.39 41.9678 122.39 41.9678C122.39 41.9678 121.405 41.9678 120.421 39.0398C119.437 36.1118 113.066 38.0638 113.066 38.0638L113.533 39.0398L112.057 38.5518L110.58 40.0158L109.596 39.5278C109.596 39.5278 105.66 39.5278 106.152 39.5278C106.644 39.5278 106.301 42.8442 106.301 42.8442L102.708 46.8478L106.644 54.1678H105.66Z" fill="#2F2E41"/>
<path d="M53.23 112.413C50.4286 113.929 48.9463 116.591 49.9193 118.359C50.8922 120.128 53.9519 120.332 56.7534 118.815C57.9796 118.151 58.9531 117.268 59.5785 116.336L71.3676 109.763L68.1398 104.342L56.8606 111.397C55.732 111.415 54.4563 111.749 53.23 112.413H53.23Z" fill="#FFB6B6"/>
<path d="M92.9867 70.9877C92.9867 70.9877 88.3653 69.2426 86.7731 71.3432C85.1808 73.4438 74.6623 98.9322 74.6623 98.9322L59.2297 106.926L63.5695 114.421L83.4421 107.859L96.5535 84.0771L92.9867 70.9877Z" fill="#3F3D56"/>
<path d="M238.717 154.695V206.423C238.717 210.997 234.965 214.719 230.352 214.719H101.436C96.8232 214.719 93.0708 210.997 93.0708 206.423V154.695C93.0708 150.12 96.8232 146.399 101.436 146.399H230.352C234.965 146.399 238.717 150.12 238.717 154.695Z" fill="white"/>
<path d="M238.717 154.695V206.423C238.717 210.997 234.965 214.719 230.352 214.719H101.436C96.8232 214.719 93.0708 210.997 93.0708 206.423V154.695C93.0708 150.12 96.8232 146.399 101.436 146.399H230.352C234.965 146.399 238.717 150.12 238.717 154.695ZM230.352 213.743C234.429 213.743 237.733 210.465 237.733 206.423V180.343C237.733 162.135 222.85 147.375 204.491 147.375H101.436C97.3594 147.375 94.0549 150.652 94.0549 154.695V206.423C94.0549 210.465 97.3594 213.743 101.436 213.743H230.352Z" fill="#3F3D56"/>
<path d="M150.941 177.651H134.103C133.678 177.651 133.333 177.993 133.333 178.414C133.333 178.835 133.678 179.178 134.103 179.178H150.941C151.365 179.178 151.711 178.835 151.711 178.414C151.711 177.993 151.365 177.651 150.941 177.651Z" fill="#009290"/>
<path d="M176.527 177.651H159.689C159.265 177.651 158.919 177.993 158.919 178.414C158.919 178.835 159.265 179.178 159.689 179.178H176.527C176.952 179.178 177.297 178.835 177.297 178.414C177.297 177.993 176.952 177.651 176.527 177.651Z" fill="#009290"/>
<path d="M150.941 185.999H134.103C133.678 185.999 133.333 186.341 133.333 186.762C133.333 187.183 133.678 187.526 134.103 187.526H150.941C151.365 187.526 151.711 187.183 151.711 186.762C151.711 186.341 151.365 185.999 150.941 185.999Z" fill="#009290"/>
<path d="M176.527 185.999H159.689C159.265 185.999 158.919 186.341 158.919 186.762C158.919 187.183 159.265 187.526 159.689 187.526H176.527C176.952 187.526 177.297 187.183 177.297 186.762C177.297 186.341 176.952 185.999 176.527 185.999Z" fill="#009290"/>
<path d="M202.884 186.762C202.884 186.341 202.539 185.999 202.114 185.999H185.276C184.851 185.999 184.506 186.341 184.506 186.762C184.506 187.183 184.851 187.526 185.276 187.526H202.114C202.539 187.526 202.884 187.183 202.884 186.762Z" fill="#009290"/>
<path d="M141.1 170.985C141.524 170.985 141.87 170.643 141.87 170.222C141.87 169.801 141.524 169.458 141.1 169.458H124.262C123.837 169.458 123.492 169.801 123.492 170.222C123.492 170.643 123.837 170.985 124.262 170.985H141.1Z" fill="#009290"/>
<path d="M190.688 170.675H207.527C207.951 170.675 208.296 170.332 208.296 169.911C208.296 169.49 207.951 169.148 207.527 169.148H190.688C190.264 169.148 189.918 169.49 189.918 169.911C189.918 170.332 190.264 170.675 190.688 170.675Z" fill="#009290"/>
<path d="M148.194 170.835H183.103C183.527 170.835 183.873 170.493 183.873 170.072C183.873 169.651 183.527 169.308 183.103 169.308H148.194C147.769 169.308 147.424 169.651 147.424 170.072C147.424 170.493 147.769 170.835 148.194 170.835Z" fill="#009290"/>
<path d="M161.929 193.583H145.09C144.666 193.583 144.32 193.925 144.32 194.346C144.32 194.767 144.666 195.11 145.09 195.11H161.929C162.353 195.11 162.698 194.767 162.698 194.346C162.698 193.925 162.353 193.583 161.929 193.583Z" fill="#009290"/>
<path d="M216.31 154.305V206.032C216.31 210.607 212.558 214.328 207.945 214.328H155.788C151.176 214.328 147.423 210.607 147.423 206.032V154.305C147.423 149.73 151.176 146.009 155.788 146.009H207.945C212.558 146.009 216.31 149.73 216.31 154.305Z" fill="white"/>
<path d="M216.31 154.305V206.032C216.31 210.607 212.558 214.328 207.945 214.328H155.788C151.176 214.328 147.423 210.607 147.423 206.032V154.305C147.423 149.73 151.176 146.009 155.788 146.009H207.945C212.558 146.009 216.31 149.73 216.31 154.305ZM204.71 213.352C210.573 213.352 215.326 208.638 215.326 202.823V179.953C215.326 161.745 200.443 146.985 182.084 146.985H155.788C151.712 146.985 148.408 150.262 148.408 154.305V198.815C148.408 206.844 154.97 213.352 163.065 213.352H204.71V213.352H204.71Z" fill="#3F3D56"/>
<path d="M188.81 167.135H171.972C171.547 167.135 171.202 166.793 171.202 166.372C171.202 165.951 171.547 165.608 171.972 165.608H188.81C189.234 165.608 189.58 165.951 189.58 166.372C189.58 166.793 189.234 167.135 188.81 167.135V167.135Z" fill="#009290"/>
<path d="M188.81 183.416H171.972C171.547 183.416 171.202 183.074 171.202 182.653C171.202 182.232 171.547 181.889 171.972 181.889H188.81C189.234 181.889 189.58 182.232 189.58 182.653C189.58 183.074 189.234 183.416 188.81 183.416V183.416Z" fill="#009290"/>
<path d="M180.445 205.864H163.607C163.182 205.864 162.837 205.522 162.837 205.101C162.837 204.68 163.182 204.337 163.607 204.337H180.445C180.87 204.337 181.215 204.68 181.215 205.101C181.215 205.522 180.87 205.864 180.445 205.864V205.864Z" fill="#009290"/>
<path d="M197.846 175.281H162.936C162.512 175.281 162.166 174.939 162.166 174.518C162.166 174.097 162.512 173.754 162.936 173.754H197.846C198.27 173.754 198.615 174.097 198.615 174.518C198.615 174.939 198.27 175.281 197.846 175.281V175.281Z" fill="#009290"/>
<path d="M206.497 125.641C206.497 109.504 192.745 100.627 177.036 96.4227C156.896 91.0323 142.146 101.94 147.575 125.641C148.806 131.012 151.749 137.286 155.392 142.653H184.302C193.959 136.417 206.497 138.166 206.497 125.641H206.497Z" fill="#009290"/>
<path d="M176.604 156.146C178.248 153.037 180.333 150.793 182.63 149.086H155.553C162.522 158.959 171.764 165.296 176.604 156.146Z" fill="#009290"/>
<path d="M173.479 108.366C175.217 108.366 176.626 109.764 176.626 111.488V117.731H170.331V111.488C170.331 109.764 171.741 108.366 173.479 108.366ZM178.2 117.731V111.488C178.2 108.902 176.086 106.805 173.479 106.805C170.871 106.805 168.758 108.902 168.758 111.488V117.731C167.019 117.731 165.61 119.128 165.61 120.853V128.657C165.61 130.381 167.019 131.778 168.758 131.778H178.2C179.939 131.778 181.348 130.381 181.348 128.657V120.853C181.348 119.128 179.939 117.731 178.2 117.731H178.2ZM168.758 119.292H178.2C179.069 119.292 179.774 119.99 179.774 120.853V128.657C179.774 129.519 179.069 130.217 178.2 130.217H168.758C167.888 130.217 167.184 129.519 167.184 128.657V120.853C167.184 119.99 167.888 119.292 168.758 119.292Z" fill="white"/>
<path d="M128.499 144.713C128.119 147.856 129.446 150.597 131.463 150.837C133.479 151.076 135.422 148.723 135.801 145.58C135.967 144.204 135.807 142.906 135.404 141.86L136.844 128.523L130.519 127.986L129.771 141.191C129.131 142.113 128.665 143.337 128.499 144.713Z" fill="#FFB6B6"/>
<path d="M130.016 65.1479C130.016 65.1479 136.905 63.1959 138.381 66.1239C139.857 69.0519 143.302 107.604 143.302 107.604L136.659 138.377L129.032 136.396L132.969 105.164L127.556 81.7398L130.016 65.1479Z" fill="#3F3D56"/>
<path d="M28.7849 158.765C44.6823 158.765 57.5697 145.984 57.5697 130.217C57.5697 114.451 44.6823 101.669 28.7849 101.669C12.8874 101.669 0 114.451 0 130.217C0 145.984 12.8874 158.765 28.7849 158.765Z" fill="#009290"/>
<path d="M28.7848 117.437C30.8182 117.437 32.4666 119.072 32.4666 121.089V128.392H25.103V121.089C25.103 119.072 26.7514 117.437 28.7848 117.437ZM34.3075 128.392V121.089C34.3075 118.064 31.8349 115.611 28.7848 115.611C25.7347 115.611 23.2621 118.064 23.2621 121.089V128.392C21.2287 128.392 19.5803 130.026 19.5803 132.043V141.172C19.5803 143.188 21.2287 144.823 23.2621 144.823H34.3075C36.3409 144.823 37.9893 143.188 37.9893 141.172V132.043C37.9893 130.026 36.3409 128.392 34.3075 128.392H34.3075ZM23.2621 130.217H34.3075C35.3242 130.217 36.1484 131.035 36.1484 132.043V141.172C36.1484 142.18 35.3242 142.997 34.3075 142.997H23.2621C22.2454 142.997 21.4212 142.18 21.4212 141.172V132.043C21.4212 131.035 22.2454 130.217 23.2621 130.217Z" fill="white"/>
</g>
<defs>
<clipPath id="clip0_1201_34044">
<rect width="278" height="250" fill="white"/>
</clipPath>
</defs>
</svg>
