<svg width="282" height="250" viewBox="0 0 282 250" fill="none" xmlns="http://www.w3.org/2000/svg">
<g clip-path="url(#clip0_1201_34217)">
<path d="M32.8555 250L32.6113 249.909C24.337 246.788 17.8545 240.186 14.8858 231.856C14.0814 229.541 13.5718 227.133 13.3689 224.691L13.3489 224.458L13.5791 224.499C16.327 224.992 19.2116 225.265 20.4969 225.371L13.2863 220.6L13.2993 220.352C13.4115 218.023 14.9298 215.996 17.1336 215.234C19.3585 214.412 21.8594 215.027 23.4501 216.786C24.167 217.564 24.9248 218.347 25.6577 219.105C28.1761 221.707 30.7803 224.399 32.427 227.576C34.9035 232.472 35.0379 238.224 32.7928 243.23L32.8555 250H32.8555Z" fill="#CAD0D5"/>
<path d="M178.752 245.377L178.749 245.351C178.43 238.274 177.132 231.275 174.891 224.555L174.889 224.544C174.758 223.854 174.796 223.142 174.999 222.47C175.625 220.543 177.566 219.363 179.565 219.695C181.63 220.083 183.765 219.718 185.584 218.667C186.74 217.997 188.141 217.904 189.375 218.416C190.538 218.89 191.408 219.887 191.721 221.104C191.745 221.199 191.767 221.296 191.785 221.394C191.85 228.504 193.157 235.549 195.644 242.21L195.646 242.218C195.906 243.594 195.491 245.011 194.529 246.028C193.679 246.891 192.489 247.328 191.282 247.221C189.117 247.074 186.89 247.513 184.475 248.564C183.631 248.94 182.682 249.006 181.794 248.753C180.224 248.292 179.047 246.986 178.752 245.377Z" fill="#009290"/>
<path d="M109.539 148.162V241.095H174.645V148.162C174.647 146.79 173.754 145.577 172.443 145.172C172.142 145.073 171.827 145.024 171.51 145.027H112.683C110.95 145.024 109.542 146.426 109.539 148.159V148.162ZM134.947 180.094C134.982 176.256 138.123 173.173 141.961 173.208C145.75 173.243 148.812 176.306 148.847 180.094V190.877C148.829 194.716 145.703 197.813 141.864 197.795C138.051 197.777 134.965 194.69 134.947 190.877V180.094Z" fill="#CAD0D5"/>
<path d="M109.34 238.123V247.085C109.343 248.051 110.123 248.835 111.089 248.843H173.095C174.063 248.838 174.844 248.052 174.844 247.085V238.123H109.34Z" fill="#DDE3E7"/>
<path d="M7.11859 8.1462V177.829C7.12216 182.331 10.7713 185.981 15.2738 185.984H266.726C271.229 185.981 274.878 182.331 274.881 177.829V8.1462C274.871 3.64809 271.224 0.00570602 266.726 0H15.2738C10.7757 0.00572844 7.1293 3.6481 7.11859 8.1462H7.11859Z" fill="#DDE3E7"/>
<path d="M264.629 5.8899H17.3715C14.963 5.89514 13.0133 7.84897 13.0131 10.2575V175.736C13.0172 178.141 14.9661 180.09 17.3715 180.094H264.629C267.034 180.09 268.983 178.141 268.987 175.736V10.2575C268.987 7.84896 267.037 5.89514 264.629 5.88989V5.8899ZM202.257 123.455C201.518 124.915 200.019 125.834 198.383 125.83L198.357 125.828C195.987 125.498 193.607 125.28 191.22 125.175C191.59 125.44 191.917 125.763 192.186 126.131C192.879 127.124 193.092 128.374 192.767 129.541C192.227 131.643 192.252 133.912 192.845 136.479C193.061 137.377 192.953 138.323 192.542 139.149C191.803 140.609 190.304 141.528 188.667 141.524L188.641 141.523C182.981 140.734 177.25 140.581 171.555 141.067C171.532 141.211 171.504 141.355 171.467 141.498C170.927 143.6 170.953 145.87 171.546 148.437C171.761 149.335 171.654 150.28 171.242 151.107C170.503 152.567 169.004 153.486 167.368 153.482L167.342 153.48C161.528 152.671 155.641 152.532 149.796 153.067C149.751 154.527 149.903 155.986 150.246 157.405C150.462 158.303 150.354 159.248 149.943 160.075C149.204 161.535 147.705 162.454 146.068 162.45L146.042 162.448C139.026 161.471 131.908 161.471 124.892 162.448H124.88C124.178 162.451 123.485 162.284 122.861 161.961C121.081 160.994 120.275 158.871 120.966 156.966C121.178 156.366 121.335 155.749 121.437 155.121C115.006 154.38 108.508 154.456 102.097 155.349H102.086C101.384 155.351 100.691 155.184 100.067 154.861C98.2866 153.894 97.4808 151.771 98.1717 149.866C98.9298 147.907 98.9609 145.741 98.2593 143.76C97.9287 142.832 97.9286 141.818 98.2591 140.889C93.426 140.643 88.5805 140.855 83.7874 141.523H83.7761C83.0736 141.525 82.3809 141.358 81.757 141.035C79.9765 140.068 79.1707 137.945 79.8616 136.04C80.6197 134.081 80.6508 131.915 79.9492 129.934C79.501 128.676 79.6656 127.281 80.394 126.162C81.0723 125.105 82.211 124.431 83.4641 124.345C83.5626 124.339 83.6615 124.335 83.7615 124.335C86.2172 124.765 88.6966 125.045 91.1862 125.174C89.598 124.13 88.9327 122.134 89.5772 120.346C90.3353 118.386 90.3664 116.22 89.6648 114.24C89.2166 112.982 89.3811 111.587 90.1096 110.467C90.1411 110.419 90.1778 110.376 90.211 110.33C88.4394 110.452 86.6718 110.636 84.9084 110.881H84.8971C84.1947 110.884 83.502 110.717 82.878 110.394C81.0975 109.427 80.2917 107.303 80.9827 105.399C81.7408 103.439 81.7718 101.273 81.0702 99.293C80.6221 98.0349 80.7866 96.6397 81.5151 95.5203C82.1934 94.4632 83.332 93.7896 84.5851 93.7039C84.6836 93.6974 84.7825 93.6939 84.8825 93.6939C87.8353 94.2109 90.8219 94.5115 93.8185 94.5935C93.054 93.4917 92.8662 92.0894 93.3139 90.8253C94.0721 88.866 94.1031 86.6999 93.4015 84.7197C92.9534 83.4616 93.1179 82.0664 93.8464 80.947C94.5247 79.8899 95.6633 79.2162 96.9164 79.1306C97.0149 79.124 97.1138 79.1206 97.2138 79.1206C99.7126 79.5576 102.236 79.8401 104.77 79.9665C104.225 78.9358 104.136 77.7247 104.524 76.6256C105.282 74.6663 105.313 72.5003 104.612 70.52C104.164 69.2619 104.328 67.8667 105.057 66.7473C105.735 65.6902 106.874 65.0166 108.127 64.9309C108.225 64.9244 108.324 64.9209 108.424 64.9209C111.364 65.4356 114.338 65.7358 117.322 65.8192C116.916 64.8595 116.883 63.7826 117.229 62.7996C117.987 60.8403 118.018 58.6743 117.317 56.694C116.869 55.4359 117.033 54.0407 117.762 52.9213C118.44 51.8642 119.579 51.1906 120.832 51.1049C120.93 51.0984 121.029 51.0949 121.129 51.0949C128.132 52.3275 135.296 52.3284 142.299 51.0977H142.308C142.849 51.209 143.406 51.209 143.947 51.0977H143.955C150.959 52.3284 158.123 52.3275 165.126 51.0949C165.226 51.0949 165.325 51.0984 165.423 51.1049C166.676 51.1906 167.815 51.8642 168.493 52.9213C169.222 54.0407 169.386 55.4359 168.938 56.694C168.236 58.6743 168.267 60.8403 169.026 62.7996C169.372 63.7826 169.339 64.8595 168.933 65.8192C171.917 65.7358 174.89 65.4356 177.831 64.9209C177.931 64.9209 178.029 64.9244 178.128 64.9309C179.381 65.0165 180.52 65.6902 181.198 66.7473C181.927 67.8667 182.091 69.2619 181.643 70.52C180.941 72.5003 180.972 74.6663 181.73 76.6256C182.118 77.7247 182.029 78.9358 181.485 79.9665C184.019 79.8401 186.542 79.5576 189.041 79.1206C189.141 79.1206 189.24 79.124 189.338 79.1306C190.591 79.2162 191.73 79.8899 192.408 80.947C193.137 82.0664 193.301 83.4616 192.853 84.7197C192.152 86.6999 192.183 88.866 192.941 90.8253C193.39 92.0926 193.2 93.4986 192.431 94.6015C192.765 94.8534 193.06 95.1525 193.307 95.4895C194 96.4824 194.213 97.7331 193.888 98.8995C193.348 101.001 193.373 103.271 193.967 105.838C194.182 106.736 194.074 107.681 193.663 108.508C193.512 108.802 193.329 109.079 193.116 109.332C194.865 109.178 196.61 108.949 198.351 108.644H198.359C199.759 108.639 201.077 109.305 201.902 110.436C202.595 111.429 202.808 112.68 202.482 113.846C201.942 115.948 201.968 118.218 202.561 120.785C202.776 121.683 202.669 122.628 202.257 123.455L202.257 123.455Z" fill="white"/>
<path d="M256.609 28.6853H25.2514C24.7433 28.6741 24.3404 28.2531 24.3516 27.745C24.3625 27.2526 24.759 26.8561 25.2514 26.8452H256.609C257.117 26.8564 257.52 27.2774 257.509 27.7855C257.498 28.2779 257.101 28.6745 256.609 28.6853Z" fill="#DDE3E7"/>
<path d="M143.725 158.042L143.699 158.04C136.683 157.063 129.565 157.063 122.549 158.04H122.537C121.835 158.043 121.142 157.876 120.518 157.553C118.738 156.586 117.932 154.462 118.623 152.558C119.381 150.598 119.412 148.432 118.71 146.452C118.262 145.194 118.427 143.799 119.155 142.679C119.834 141.622 120.972 140.949 122.225 140.863C122.324 140.856 122.423 140.853 122.523 140.853C129.526 142.086 136.69 142.087 143.693 140.856H143.702C145.102 140.851 146.419 141.518 147.244 142.649C147.937 143.642 148.15 144.892 147.825 146.059C147.285 148.16 147.31 150.43 147.904 152.997C148.119 153.895 148.011 154.84 147.6 155.667C146.861 157.127 145.362 158.046 143.725 158.042Z" fill="#009290"/>
<path d="M165.302 121.404L159.658 116.733C155.425 118.952 148.984 127.81 148.984 127.81L134.125 138.496C132.341 138.581 130.963 140.097 131.048 141.881C131.133 143.666 132.648 145.043 134.433 144.958C135.591 144.903 136.631 144.233 137.159 143.2L157.348 132.532L165.302 121.404V121.404Z" fill="#FFB8B8"/>
<path d="M174.825 103.627C178.083 106.386 178.488 111.263 175.729 114.521C175.419 114.886 175.077 115.222 174.706 115.524L171.116 118.442C171.116 118.442 162.163 131.331 157.502 132.826L145.538 139.077L140.143 133.668L150.986 124.831C150.986 124.831 155.974 120.113 156.473 116.66C156.779 114.545 160.358 108.784 163.946 104.512C166.699 101.263 171.565 100.862 174.813 103.616L174.825 103.627V103.627Z" fill="#3F3D56"/>
<path d="M163.225 243.514L158.126 243.513L155.7 223.843L163.226 223.843L163.225 243.514Z" fill="#FFB6B6"/>
<path d="M163.405 248.833L147.723 248.833V248.635C147.723 245.264 150.456 242.531 153.827 242.531H153.827L156.692 240.358L162.036 242.531L163.405 242.531L163.405 248.833Z" fill="#2F2E41"/>
<path d="M202.081 216.673L199.666 221.164L181.193 213.986L184.757 207.357L202.081 216.673Z" fill="#FFB6B6"/>
<path d="M206.852 219.033L199.426 232.845L199.251 232.752C196.282 231.155 195.169 227.454 196.765 224.485L196.766 224.485L196.208 220.933L200.653 217.255L201.301 216.049L206.852 219.033Z" fill="#2F2E41"/>
<path d="M153.584 153.435L149.083 189.442L151.333 201.514L191.841 219.261L194.092 211.947C183.737 205.611 172.669 196.022 165.694 195.317C165.694 195.317 165.116 188.927 170.112 184.983C171.12 184.188 170.9 183.111 171.308 182.136C171.588 181.465 172.703 180.766 172.989 180.077C173.359 179.185 172.901 178.299 173.273 177.392C173.482 176.883 174.275 176.851 174.483 176.341C174.838 175.471 174.606 174.123 174.952 173.264C175.69 171.427 176.4 169.63 177.049 167.946C179.067 162.705 180.487 158.552 180.308 157.655C179.745 154.842 153.584 153.435 153.584 153.435Z" fill="#2F2E41"/>
<path d="M152.809 189.338L150.454 204.544L156.397 235.576H164.273C167.103 225.149 167.249 211.445 164.555 199.851L152.809 189.338Z" fill="#2F2E41"/>
<path d="M157.869 109.441L161.5 103.114L165.399 99.9868L172.713 98.8616L174.745 100.424C182.057 111.601 184.784 125.165 182.359 138.299L181.789 141.391L181.426 143.353L181.583 145.699L180.363 149.114L180.531 151.615L180.62 152.951L180.71 154.291L180.836 156.162C181.061 157.23 179.928 157.089 180.088 158.03C180.37 159.683 181.631 162.133 179.715 162.141L159.91 158.03C154.879 158.051 150.194 152.052 155.052 147.194L157.869 109.441Z" fill="#3F3D56"/>
<path d="M167.139 97.099C172.451 97.099 176.756 92.7932 176.756 87.4819C176.756 82.1705 172.451 77.8647 167.139 77.8647C161.828 77.8647 157.522 82.1705 157.522 87.4819C157.522 92.7932 161.828 97.099 167.139 97.099Z" fill="#FFB8B8"/>
<path d="M167.302 96.8256C168.709 96.8476 170.116 96.7493 171.506 96.5318C172.884 96.2516 175.968 93.9922 176.827 92.6326C177.466 91.6224 177.874 90.045 178.104 88.8997C178.731 85.8345 178.029 82.6473 176.172 80.1294C175.819 79.6086 175.332 79.1929 174.762 78.9262C174.712 78.9064 174.66 78.8889 174.607 78.874C173.777 78.6555 173.031 78.1939 172.465 77.5484C172.355 77.4178 172.236 77.2954 172.109 77.1819C171.469 76.6421 170.711 76.2613 169.896 76.0707C168.58 75.7186 166.676 76.0681 164.237 77.1105C163.012 77.6342 161.671 77.4446 160.64 77.221C160.523 77.1983 160.402 77.2397 160.323 77.3298C159.884 77.7416 159.306 77.9722 158.704 77.975C158.335 77.9912 157.949 78.5015 157.481 79.1669C157.375 79.3179 157.252 79.4942 157.162 79.6015L157.15 79.3955L156.942 79.6253C155.87 80.8074 155.958 82.635 157.141 83.7074C157.458 83.9957 157.836 84.2096 158.247 84.3336C158.617 84.4322 158.997 84.4927 159.38 84.5142C159.612 84.5351 159.852 84.5567 160.082 84.5966C161.584 84.904 162.813 85.9777 163.32 87.424C163.532 88.0164 164.185 88.3244 164.777 88.1121C164.87 88.0787 164.959 88.0334 165.04 87.9772C165.526 87.5986 166.167 87.4819 166.755 87.6648C167.006 87.8042 167.201 88.0254 167.308 88.2914C167.438 88.5878 167.653 88.8389 167.926 89.0125C168.86 89.494 168.924 91.6272 168.589 93.4054C168.265 95.1195 167.626 96.3595 167.034 96.4208C166.579 96.4679 166.527 96.5003 166.494 96.5809L166.464 96.653L166.515 96.7205C166.767 96.8117 167.035 96.8476 167.302 96.8256Z" fill="#2F2E41"/>
<path d="M147.836 91.1544L147.81 91.1526C140.793 90.175 133.675 90.175 126.659 91.1526H126.648C125.945 91.1552 125.253 90.9881 124.629 90.6654C122.848 89.6984 122.042 87.5748 122.733 85.6701C123.491 83.7108 123.522 81.5447 122.821 79.5644C122.373 78.3063 122.537 76.9111 123.266 75.7917C123.944 74.7346 125.083 74.061 126.336 73.9754C126.434 73.9688 126.533 73.9653 126.633 73.9653C133.636 75.1979 140.8 75.1989 147.803 73.9681H147.812C149.212 73.9632 150.53 74.6299 151.355 75.7609C152.048 76.7538 152.261 78.0046 151.935 79.1709C151.395 81.2728 151.421 83.5424 152.014 86.1094C152.229 87.0075 152.122 87.9526 151.71 88.7793C150.971 90.2394 149.472 91.1583 147.836 91.1544Z" fill="#009290"/>
<path d="M156.829 113.805L160.808 107.653C158.11 103.709 148.561 98.347 148.561 98.347L136.211 84.8388C135.918 83.0765 134.252 81.8854 132.489 82.1783C130.727 82.4712 129.536 84.1373 129.829 85.8996C130.019 87.0433 130.807 87.9977 131.893 88.4014L144.848 107.205L156.829 113.805H156.829Z" fill="#FFB8B8"/>
<path d="M175.598 121.185C173.239 124.743 168.442 125.715 164.884 123.355C164.485 123.091 164.112 122.79 163.768 122.457L160.451 119.233C160.451 119.233 146.545 111.972 144.515 107.518L135.403 94.5935L141.513 89.082L152.132 98.7356C152.132 98.7356 157.021 104.389 160.509 104.482C162.645 104.538 168.785 107.42 173.448 110.484C176.995 112.839 177.962 117.624 175.607 121.172L175.598 121.185Z" fill="#3F3D56"/>
<path d="M82.9603 248.778L82.9344 248.776C75.9181 247.798 68.8001 247.798 61.7838 248.776H61.7724C61.07 248.779 60.3773 248.611 59.7534 248.289C57.9729 247.322 57.1671 245.198 57.858 243.293C58.6161 241.334 58.6472 239.168 57.9456 237.188C57.4974 235.93 57.6619 234.534 58.3904 233.415C59.0687 232.358 60.2073 231.684 61.4604 231.599C61.559 231.592 61.6579 231.589 61.7579 231.589C68.7607 232.821 75.925 232.822 82.9282 231.591H82.9369C84.3368 231.586 85.6542 232.253 86.4792 233.384C87.1722 234.377 87.3852 235.628 87.0598 236.794C86.5197 238.896 86.5452 241.166 87.1386 243.733C87.3538 244.631 87.2462 245.576 86.8346 246.403C86.0956 247.863 84.5967 248.782 82.9603 248.778H82.9603Z" fill="#009290"/>
<path d="M88.9391 233.083L88.9132 233.082C81.8969 232.104 74.7789 232.104 67.7626 233.082H67.7513C67.0488 233.084 66.3561 232.917 65.7322 232.594C63.9517 231.627 63.1459 229.504 63.8368 227.599C64.5949 225.64 64.626 223.474 63.9244 221.493C63.4762 220.235 63.6407 218.84 64.3692 217.721C65.0475 216.664 66.1862 215.99 67.4393 215.904C67.5378 215.898 67.6367 215.894 67.7367 215.894C74.7395 217.127 81.9038 217.128 88.907 215.897H88.9157C90.3157 215.892 91.633 216.559 92.458 217.69C93.151 218.683 93.364 219.934 93.0386 221.1C92.4985 223.202 92.524 225.471 93.1174 228.038C93.3327 228.936 93.2251 229.882 92.8134 230.708C92.0744 232.168 90.5756 233.087 88.9391 233.083H88.9391Z" fill="#009290"/>
<path d="M36.6198 237.362L36.6358 237.341C41.3769 232.078 45.3653 226.182 48.4869 219.823L48.4933 219.813C48.8847 219.23 49.4112 218.75 50.0281 218.414C51.8267 217.481 54.0372 218.004 55.2277 219.643C56.4257 221.369 58.2024 222.608 60.2357 223.137C61.5289 223.47 62.5923 224.388 63.1113 225.619C63.6068 226.773 63.5268 228.094 62.8955 229.18C62.8458 229.265 62.7932 229.349 62.7372 229.432C57.7924 234.541 53.7774 240.475 50.8728 246.965L50.8679 246.972C50.0875 248.134 48.7971 248.852 47.3981 248.902C46.1874 248.919 45.0321 248.395 44.2484 247.472C42.8101 245.847 40.9159 244.596 38.4572 243.649C37.5928 243.324 36.8702 242.706 36.4161 241.901C35.6208 240.471 35.6996 238.715 36.6198 237.362Z" fill="#009290"/>
<path d="M280.895 249.348L1.10533 249.462C0.859604 249.461 0.661441 249.261 0.662726 249.015C0.663996 248.771 0.861417 248.574 1.10533 248.573L280.895 248.458C281.14 248.459 281.339 248.659 281.337 248.905C281.336 249.149 281.139 249.346 280.895 249.348Z" fill="#DDE3E7"/>
<path d="M60.5447 20.1442C62.29 20.1442 63.7048 18.6979 63.7048 16.9138C63.7048 15.1297 62.29 13.6833 60.5447 13.6833C58.7995 13.6833 57.3847 15.1297 57.3847 16.9138C57.3847 18.6979 58.7995 20.1442 60.5447 20.1442Z" fill="#3F3D56"/>
<path d="M71.4612 20.1442C73.2064 20.1442 74.6212 18.6979 74.6212 16.9138C74.6212 15.1297 73.2064 13.6833 71.4612 13.6833C69.7159 13.6833 68.3011 15.1297 68.3011 16.9138C68.3011 18.6979 69.7159 20.1442 71.4612 20.1442Z" fill="#3F3D56"/>
<path d="M82.3776 20.1442C84.1229 20.1442 85.5377 18.6979 85.5377 16.9138C85.5377 15.1297 84.1229 13.6833 82.3776 13.6833C80.6324 13.6833 79.2176 15.1297 79.2176 16.9138C79.2176 18.6979 80.6324 20.1442 82.3776 20.1442Z" fill="#3F3D56"/>
<path d="M94.8253 19.4671C94.7282 19.4671 94.6313 19.4295 94.5582 19.3547L92.426 17.1751C92.2838 17.0298 92.2838 16.7978 92.426 16.6525L94.5582 14.4731C94.7029 14.3256 94.9397 14.3233 95.0866 14.4672C95.2342 14.6115 95.2367 14.8482 95.0924 14.9956L93.2158 16.9138L95.0924 18.8322C95.2367 18.9796 95.2342 19.2162 95.0866 19.3606C95.014 19.4317 94.9196 19.4671 94.8253 19.4671Z" fill="#3F3D56"/>
<path d="M98.4082 19.4672C98.3139 19.4672 98.2196 19.4318 98.147 19.3606C97.9994 19.2163 97.9968 18.9798 98.1411 18.8322L100.018 16.9138L98.1411 14.9956C97.9968 14.8482 97.9994 14.6116 98.147 14.4672C98.2942 14.3227 98.531 14.3255 98.6754 14.4731L100.807 16.6525C100.95 16.7978 100.95 17.0299 100.807 17.1751L98.6754 19.3548C98.6022 19.4296 98.5053 19.4672 98.4082 19.4672Z" fill="#3F3D56"/>
<path d="M209.954 14.0574H205.989C205.537 14.0574 205.171 14.4236 205.171 14.8757V18.8442C205.171 19.2963 205.537 19.6625 205.989 19.6625H209.954C210.406 19.6625 210.776 19.2963 210.776 18.8442V14.8757C210.776 14.4236 210.406 14.0574 209.954 14.0574Z" fill="#3F3D56"/>
<path d="M200.238 14.0574H196.274C195.822 14.0574 195.455 14.4236 195.455 14.8757V18.8442C195.455 19.2963 195.822 19.6625 196.274 19.6625H200.238C200.691 19.6625 201.061 19.2963 201.061 18.8442V14.8757C201.061 14.4236 200.691 14.0574 200.238 14.0574Z" fill="#3F3D56"/>
<path d="M219.109 14.2441H215.144C214.692 14.2441 214.326 14.6103 214.326 15.0625V19.0309C214.326 19.4831 214.692 19.8493 215.144 19.8493H219.109C219.561 19.8493 219.931 19.4831 219.931 19.0309V15.0625C219.931 14.6103 219.561 14.2441 219.109 14.2441Z" fill="#3F3D56"/>
<path d="M159.35 15.7539H127.659C127.106 15.7539 126.661 16.2023 126.661 16.7516C126.661 17.3009 127.106 17.7493 127.659 17.7493H159.35C159.9 17.7493 160.348 17.3009 160.348 16.7516C160.348 16.2023 159.9 15.7539 159.35 15.7539Z" fill="#3F3D56"/>
</g>
<defs>
<clipPath id="clip0_1201_34217">
<rect width="280.675" height="250" fill="white" transform="translate(0.66272)"/>
</clipPath>
</defs>
</svg>
